<svg width="16" height="16" viewBox="0 0 16 16" fill="none" xmlns="http://www.w3.org/2000/svg">
<path d="M14.462 11.5253C14.5 11.0607 14.5 10.4833 14.5 9.75533V6.83333H6.5V14.5H9.75533C10.4833 14.5 11.0607 14.5 11.5253 14.462C12.0013 14.4233 12.4033 14.342 12.7713 14.1553C13.367 13.8516 13.8512 13.3671 14.1547 12.7713C14.342 12.4033 14.4233 12.0013 14.462 11.5253ZM11.5253 1.538C11.0607 1.5 10.4833 1.5 9.75533 1.5H6.5V5.83333H14.5C14.4987 5.29467 14.4927 4.84867 14.462 4.47467C14.4233 3.99867 14.342 3.59667 14.1553 3.22933C13.8517 2.63343 13.3672 2.14894 12.7713 1.84533C12.4033 1.658 12.0013 1.57667 11.5253 1.538ZM1.84533 3.22933C1.658 3.596 1.57667 3.99867 1.538 4.47467C1.50733 4.848 1.50133 5.29467 1.5 5.83333H5.5V1.502C5.10667 1.50533 4.76867 1.514 4.47467 1.538C3.99867 1.57667 3.59667 1.658 3.22933 1.84467C2.63332 2.14845 2.14883 2.63318 1.84533 3.22933ZM3.22933 14.1547C3.596 14.342 3.99867 14.4233 4.47467 14.462C4.768 14.486 5.10667 14.4953 5.5 14.498V6.83333H1.5V9.75533C1.5 10.4833 1.5 11.0607 1.538 11.5253C1.57667 12.0013 1.658 12.4033 1.84467 12.7713C2.14856 13.3671 2.63328 13.8513 3.22933 14.1547Z" fill="black"/>
</svg>
