<svg width="322" height="64" viewBox="0 0 322 64" fill="none" xmlns="http://www.w3.org/2000/svg">
<path d="M17.356 1.73197C18.378 0.709916 19.755 0.133073 21.1923 0.124896L43.1311 8.81236e-05C44.5897 -0.00820957 45.9918 0.569774 47.029 1.60691L62.3669 16.9433C63.4196 17.9959 64.0083 19.4333 63.9999 20.9305L63.8772 42.7435C63.8689 44.2186 63.2816 45.63 62.2444 46.6672L46.644 62.268C45.622 63.2901 44.245 63.8669 42.8077 63.8751L20.8689 63.9999C19.4103 64.0082 18.0082 63.4302 16.971 62.3931L1.63314 47.0567C0.580384 46.0041 -0.0083329 44.5667 8.91349e-05 43.0695L0.122792 21.2565C0.13109 19.7814 0.718416 18.37 1.75559 17.3328L17.356 1.73197Z" fill="#1E3A8A"/>
<path d="M30.5804 43.984C30.303 44.0053 30.047 43.9413 29.8124 43.792C29.599 43.664 29.4497 43.4933 29.3644 43.28C29.279 43.1733 29.1404 42.9387 28.9484 42.576C28.7564 42.2347 28.639 41.936 28.5964 41.68C28.5324 40.9973 28.4897 40.336 28.4684 39.696C28.4684 39.056 28.5004 38.16 28.5644 37.008C28.6284 36.0693 28.7564 35.2373 28.9484 34.512C29.1404 33.7653 29.3324 33.136 29.5244 32.624C29.7164 32.0907 29.8657 31.696 29.9724 31.44C30.079 31.1627 30.1004 31.024 30.0364 31.024C29.951 31.024 29.855 31.1093 29.7484 31.28C29.663 31.4293 29.5564 31.632 29.4284 31.888C29.3217 32.144 29.1937 32.4213 29.0444 32.72C28.9164 33.0187 28.7777 33.3067 28.6284 33.584C28.3297 34.2453 27.9777 34.9493 27.5724 35.696C27.1884 36.4213 26.7937 37.1253 26.3884 37.808C25.983 38.4907 25.631 39.088 25.3324 39.6C25.1404 39.8133 24.9164 40.1227 24.6604 40.528C24.4044 40.912 24.127 41.3173 23.8284 41.744C23.5297 42.1707 23.2204 42.5227 22.9004 42.8C22.431 43.248 21.951 43.5147 21.4604 43.6C20.9697 43.7067 20.511 43.6533 20.0844 43.44C19.871 43.4187 19.647 43.3013 19.4124 43.088C19.1777 42.896 18.9857 42.6507 18.8364 42.352C18.7084 42.0533 18.6764 41.776 18.7404 41.52C18.719 41.2213 18.719 40.7627 18.7404 40.144C18.783 39.504 18.847 38.8107 18.9324 38.064C19.0177 37.296 19.103 36.56 19.1884 35.856C19.295 35.152 19.391 34.5653 19.4764 34.096C19.6684 32.7307 19.9244 31.3333 20.2444 29.904C20.5857 28.4747 20.895 27.0347 21.1724 25.584C21.343 25.1573 21.4924 24.6773 21.6204 24.144C21.7697 23.5893 21.919 23.0773 22.0684 22.608C22.0897 22.1387 22.2604 21.8507 22.5804 21.744C22.9004 21.616 23.2417 21.5947 23.6044 21.68C23.9884 21.7653 24.255 21.9147 24.4044 22.128C24.6177 22.3413 24.8204 22.672 25.0124 23.12C25.2044 23.568 25.151 24.1333 24.8524 24.816C24.4257 25.8613 24.0097 27.1413 23.6044 28.656C23.2204 30.1493 22.8684 31.9627 22.5484 34.096C22.463 34.608 22.367 35.184 22.2604 35.824C22.175 36.4427 22.0897 37.04 22.0044 37.616C21.9404 38.192 21.887 38.672 21.8444 39.056C21.823 39.4187 21.8337 39.6107 21.8764 39.632C22.047 39.6747 22.2284 39.5787 22.4204 39.344C22.6337 39.1093 22.8577 38.736 23.0924 38.224C23.967 36.7733 24.7884 35.3333 25.5564 33.904C26.3457 32.4747 27.135 30.9813 27.9244 29.424C28.287 28.8053 28.6497 28.1333 29.0124 27.408C29.3964 26.6613 29.759 25.9787 30.1004 25.36C30.463 24.72 30.815 24.1013 31.1564 23.504C31.4977 22.9067 31.7964 22.4053 32.0524 22C32.3084 21.5733 32.5004 21.3387 32.6284 21.296C33.2044 21.296 33.631 21.4453 33.9084 21.744C34.207 22.0427 34.4417 22.4053 34.6124 22.832C34.655 22.9387 34.6764 23.12 34.6764 23.376C34.6977 23.632 34.6657 23.856 34.5804 24.048C34.559 24.1973 34.463 24.5067 34.2924 24.976C34.143 25.4453 34.0044 25.968 33.8764 26.544C33.663 27.12 33.471 27.696 33.3004 28.272C33.151 28.8267 33.0444 29.2853 32.9804 29.648C32.8097 30.5653 32.5964 31.568 32.3404 32.656C32.0844 33.744 31.8604 34.832 31.6684 35.92C31.4977 36.9867 31.4017 37.936 31.3804 38.768C31.359 39.3653 31.359 39.76 31.3804 39.952C31.423 40.1227 31.487 40.304 31.5724 40.496C31.615 40.6667 31.711 40.7093 31.8604 40.624C32.0097 40.5387 32.159 40.3893 32.3084 40.176C32.607 39.728 32.831 39.344 32.9804 39.024C33.151 38.704 33.3217 38.3627 33.4924 38C33.663 37.616 33.8977 37.136 34.1964 36.56C34.7297 35.5787 35.2737 34.5013 35.8284 33.328C36.4044 32.1547 36.9484 30.992 37.4604 29.84C37.9937 28.688 38.4524 27.664 38.8364 26.768C39.2417 25.616 39.583 24.688 39.8604 23.984C40.1377 23.2587 40.3937 22.704 40.6284 22.32C40.863 21.936 41.087 21.68 41.3004 21.552C41.407 21.4667 41.631 21.424 41.9724 21.424C42.335 21.424 42.6124 21.5093 42.8044 21.68C42.8897 21.7653 43.039 21.904 43.2524 22.096C43.4657 22.288 43.5617 22.512 43.5404 22.768C43.4337 23.1093 43.231 23.664 42.9324 24.432C42.655 25.2 42.3244 26.0533 41.9404 26.992C41.5777 27.9093 41.215 28.7947 40.8524 29.648C40.511 30.48 40.223 31.1413 39.9884 31.632C39.7537 32.08 39.5297 32.464 39.3164 32.784C39.103 33.104 38.9964 33.3493 38.9964 33.52C38.9964 33.6053 38.8897 33.872 38.6764 34.32C38.463 34.7467 38.1857 35.2693 37.8444 35.888C37.5244 36.5067 37.1724 37.1467 36.7884 37.808C36.4044 38.4693 36.0417 39.0773 35.7004 39.632C35.359 40.1867 35.071 40.6133 34.8364 40.912C34.303 41.5733 33.727 42.128 33.1084 42.576C32.511 43.0453 31.9777 43.3973 31.5084 43.632C31.039 43.8667 30.7297 43.984 30.5804 43.984Z" fill="#F9FAFB"/>
<path d="M44.4347 41.07C44.0747 41.082 43.8107 40.896 43.6427 40.512C43.4867 40.14 43.5767 39.552 43.9127 38.748C43.9847 38.616 44.0507 38.484 44.1107 38.352C44.1827 38.22 44.2247 38.112 44.2367 38.028C44.2727 37.944 44.3507 37.782 44.4707 37.542C44.5907 37.29 44.7407 36.99 44.9207 36.642C45.1007 36.294 45.2867 35.934 45.4787 35.562C45.6827 35.19 45.8687 34.842 46.0367 34.518C46.2167 34.182 46.3667 33.906 46.4867 33.69C46.6067 33.474 46.6787 33.348 46.7027 33.312C46.7627 33.324 46.8167 33.294 46.8647 33.222C46.9127 33.138 46.9427 33.054 46.9547 32.97C46.9787 32.862 47.0207 32.754 47.0807 32.646C47.1407 32.538 47.2007 32.472 47.2607 32.448C47.2727 32.388 47.2967 32.322 47.3327 32.25C47.3687 32.178 47.3927 32.118 47.4047 32.07C47.4167 32.022 47.4407 31.98 47.4767 31.944C47.5127 31.896 47.5307 31.848 47.5307 31.8C47.6267 31.68 47.7707 31.458 47.9627 31.134C48.1667 30.81 48.3947 30.432 48.6467 30C48.8987 29.556 49.1567 29.1 49.4207 28.632C49.6847 28.152 49.9307 27.702 50.1587 27.282C50.3867 26.862 50.5727 26.514 50.7167 26.238C50.8607 25.95 50.9387 25.782 50.9507 25.734C50.9627 25.554 51.0767 25.482 51.2927 25.518C51.3767 25.458 51.4727 25.44 51.5807 25.464C51.5807 25.464 51.6407 25.53 51.7607 25.662C51.8927 25.782 52.0007 25.902 52.0847 26.022C52.1807 26.118 52.2227 26.22 52.2107 26.328C52.2107 26.436 52.1927 26.556 52.1567 26.688C52.1327 26.844 52.0907 26.982 52.0307 27.102C51.9827 27.222 51.8807 27.384 51.7247 27.588C51.5807 27.792 51.3587 28.11 51.0587 28.542C50.9867 28.65 50.8727 28.83 50.7167 29.082C50.5727 29.334 50.4167 29.598 50.2487 29.874C50.0927 30.15 49.9607 30.39 49.8527 30.594C49.7447 30.798 49.6907 30.912 49.6907 30.936C49.6787 30.984 49.6367 31.056 49.5647 31.152C49.5047 31.236 49.4447 31.35 49.3847 31.494C49.3127 31.578 49.2167 31.71 49.0967 31.89C48.9887 32.058 48.8747 32.238 48.7547 32.43C48.6347 32.61 48.5267 32.772 48.4307 32.916C48.3467 33.048 48.3047 33.126 48.3047 33.15C48.2927 33.186 48.2747 33.228 48.2507 33.276C48.2387 33.324 48.2027 33.366 48.1427 33.402C48.1067 33.39 48.0767 33.42 48.0527 33.492C48.0287 33.552 48.0167 33.582 48.0167 33.582C48.0407 33.678 47.8967 33.978 47.5847 34.482C47.4647 34.734 47.3027 35.064 47.0987 35.472C46.8947 35.88 46.6727 36.318 46.4327 36.786C46.2047 37.254 45.9827 37.71 45.7667 38.154C45.5507 38.598 45.3707 38.988 45.2267 39.324C45.0827 39.66 44.9987 39.894 44.9747 40.026C44.9267 40.302 44.8487 40.536 44.7407 40.728C44.6327 40.92 44.5307 41.034 44.4347 41.07Z" fill="#F9FAFB"/>
<path d="M52.5181 38.64C52.4461 38.664 52.3321 38.616 52.1761 38.496C52.0321 38.364 51.9301 38.28 51.8701 38.244C51.7501 38.148 51.6601 38.088 51.6001 38.064C51.5401 38.028 51.4981 37.962 51.4741 37.866C51.4741 37.866 51.4861 37.812 51.5101 37.704C51.5461 37.596 51.6061 37.506 51.6901 37.434C51.8581 37.29 52.0741 37.152 52.3381 37.02C52.6141 36.876 52.9441 36.702 53.3281 36.498C53.7241 36.294 54.1801 36.036 54.6961 35.724C55.0201 35.52 55.2661 35.382 55.4341 35.31C55.6021 35.238 55.7101 35.172 55.7581 35.112C55.8061 35.052 55.8181 34.944 55.7941 34.788C55.5901 34.548 55.2541 34.308 54.7861 34.068C54.3301 33.816 53.6521 33.552 52.7521 33.276C52.3081 33.132 51.9781 33 51.7621 32.88C51.5461 32.748 51.4021 32.616 51.3301 32.484C51.2701 32.352 51.2521 32.208 51.2761 32.052C51.3361 31.944 51.4861 31.86 51.7261 31.8C51.9661 31.728 52.2361 31.692 52.5361 31.692C52.8481 31.692 53.1301 31.752 53.3821 31.872C53.7541 31.968 54.0781 32.058 54.3541 32.142C54.6301 32.214 54.9361 32.382 55.2721 32.646C55.6801 32.874 56.0041 33.066 56.2441 33.222C56.4961 33.378 56.7361 33.618 56.9641 33.942L57.5581 34.662L57.7561 35.616C57.6601 35.628 57.5701 35.658 57.4861 35.706C57.4021 35.754 57.3481 35.784 57.3241 35.796C57.1801 35.868 57.0301 35.958 56.8741 36.066C56.7301 36.162 56.5321 36.294 56.2801 36.462C56.0281 36.618 55.6741 36.828 55.2181 37.092C54.6661 37.38 54.1861 37.644 53.7781 37.884C53.3701 38.124 53.1061 38.304 52.9861 38.424C52.9141 38.508 52.8301 38.568 52.7341 38.604C52.6501 38.628 52.5781 38.64 52.5181 38.64Z" fill="#F9FAFB"/>
<path d="M11.7474 38.226C11.3754 38.13 11.0514 38.046 10.7754 37.974C10.4994 37.89 10.1934 37.716 9.8574 37.452C9.4494 37.212 9.1194 37.02 8.8674 36.876C8.6274 36.72 8.3934 36.48 8.1654 36.156L7.5714 35.436L7.3734 34.482C7.4694 34.458 7.5594 34.428 7.6434 34.392C7.7394 34.344 7.7934 34.314 7.8054 34.302C7.9494 34.23 8.0934 34.146 8.2374 34.05C8.3934 33.942 8.5974 33.804 8.8494 33.636C9.1014 33.468 9.4554 33.258 9.9114 33.006C10.4754 32.718 10.9554 32.454 11.3514 32.214C11.7594 31.974 12.0234 31.794 12.1434 31.674C12.2154 31.59 12.2994 31.536 12.3954 31.512C12.4914 31.476 12.5634 31.458 12.6114 31.458C12.6834 31.434 12.7974 31.488 12.9534 31.62C13.1094 31.74 13.2114 31.818 13.2594 31.854C13.3914 31.938 13.4874 31.998 13.5474 32.034C13.6074 32.07 13.6434 32.136 13.6554 32.232C13.6554 32.232 13.6374 32.286 13.6014 32.394C13.5774 32.502 13.5234 32.592 13.4394 32.664C13.2834 32.796 13.0674 32.934 12.7914 33.078C12.5274 33.222 12.1974 33.396 11.8014 33.6C11.4174 33.792 10.9614 34.05 10.4334 34.374C10.1094 34.566 9.8634 34.704 9.6954 34.788C9.5274 34.86 9.4194 34.926 9.3714 34.986C9.3234 35.046 9.3114 35.154 9.3354 35.31C9.5394 35.55 9.8694 35.796 10.3254 36.048C10.7934 36.288 11.4774 36.546 12.3774 36.822C12.8214 36.954 13.1514 37.086 13.3674 37.218C13.5954 37.35 13.7394 37.482 13.7994 37.614C13.8594 37.746 13.8774 37.89 13.8534 38.046C13.7934 38.154 13.6434 38.244 13.4034 38.316C13.1634 38.376 12.8874 38.406 12.5754 38.406C12.2754 38.394 11.9994 38.334 11.7474 38.226Z" fill="#F9FAFB"/>
<path d="M88 43.104C88 41.952 88.1067 41.1413 88.32 40.672C88.576 40.2027 89.0027 39.968 89.6 39.968C90.24 39.968 91.072 40.5653 92.096 41.76C93.12 42.9547 94.272 44.1493 95.552 45.344C96.8747 46.5387 98.176 47.136 99.456 47.136C100.437 47.136 101.419 45.7707 102.4 43.04C103.381 40.3093 104.427 36.8107 105.536 32.544C106.645 28.2347 107.349 25.3547 107.648 23.904C108.331 20.5333 108.821 18.4853 109.12 17.76C107.968 18.016 106.048 18.336 103.36 18.72C100.715 19.0613 98.944 19.232 98.048 19.232C97.152 19.232 96.4267 18.9547 95.872 18.4C95.3173 17.8453 95.04 17.184 95.04 16.416C95.04 14.88 96.6613 13.4933 99.904 12.256C103.189 11.0187 106.453 10.1653 109.696 9.696C112.981 9.184 115.243 8.928 116.48 8.928C118.869 8.928 120.064 9.696 120.064 11.232C120.064 11.872 119.296 14.5387 117.76 19.232C116.224 23.9253 115.285 26.9973 114.944 28.448C112.64 38.2187 110.912 44.5333 109.76 47.392C107.968 51.872 105.664 54.4747 102.848 55.2C102.165 55.3707 101.483 55.456 100.8 55.456C97.7707 55.456 94.8693 54.0053 92.096 51.104C89.3653 48.16 88 45.4933 88 43.104Z" fill="#1E3A8A"/>
<path d="M142.357 24.096C142.698 23.0293 143.381 22.496 144.405 22.496C145.429 22.496 146.602 23.3707 147.925 25.12C149.29 26.8693 149.973 28.384 149.973 29.664C149.973 30.1333 148.992 33.2693 147.029 39.072C145.066 44.8747 143.552 49.4613 142.485 52.832C141.888 54.624 140.885 55.52 139.477 55.52C138.624 55.52 137.898 55.2213 137.301 54.624C136.746 53.984 136.469 53.0027 136.469 51.68C136.469 50.3573 136.725 48.48 137.237 46.048C132.842 52.3627 129.344 55.52 126.741 55.52C125.376 55.52 123.733 54.6453 121.813 52.896C119.893 51.104 118.933 49.376 118.933 47.712C118.933 43.616 120.085 38.3893 122.389 32.032C124.736 25.6747 126.933 22.496 128.981 22.496C130.218 22.496 131.306 23.0507 132.245 24.16C133.226 25.2693 133.717 26.4853 133.717 27.808C133.717 28.32 133.184 29.7493 132.117 32.096C128.874 39.136 127.253 44.1067 127.253 47.008C127.253 47.264 127.36 47.392 127.573 47.392C128.213 47.392 129.408 46.3893 131.157 44.384C132.949 42.336 134.933 39.4347 137.109 35.68C139.328 31.8827 141.077 28.0213 142.357 24.096Z" fill="#1E3A8A"/>
<path d="M171.434 22.56C173.055 22.56 174.655 23.52 176.234 25.44C177.813 27.36 178.602 29.088 178.602 30.624C178.602 31.648 178.154 32.16 177.258 32.16C176.746 32.16 175.999 31.968 175.018 31.584C174.037 31.1573 173.034 30.944 172.01 30.944C171.029 30.944 169.557 31.2853 167.594 31.968C165.674 32.6507 164.714 33.5467 164.714 34.656C164.714 35.0827 165.29 35.7013 166.442 36.512C167.594 37.3227 168.853 38.1547 170.218 39.008C171.583 39.8613 172.842 41.056 173.994 42.592C175.146 44.0853 175.722 45.728 175.722 47.52C175.722 49.2693 174.421 51.04 171.818 52.832C169.258 54.624 166.229 55.52 162.73 55.52C159.274 55.52 156.309 54.7307 153.834 53.152C151.359 51.5733 150.122 49.952 150.122 48.288C150.122 46.624 150.805 45.792 152.17 45.792C152.725 45.792 153.386 46.0053 154.154 46.432C156.287 47.6693 158.933 48.288 162.09 48.288C165.29 48.288 166.89 47.8613 166.89 47.008C166.89 46.1547 166.271 45.216 165.034 44.192C163.839 43.1253 162.517 42.144 161.066 41.248C159.658 40.352 158.335 39.264 157.098 37.984C155.903 36.6613 155.306 35.3813 155.306 34.144C155.306 31.84 157.397 29.344 161.578 26.656C165.759 23.9253 169.045 22.56 171.434 22.56Z" fill="#1E3A8A"/>
<path d="M197.469 30.112C197.128 31.264 196.616 32.8853 195.933 34.976C195.293 37.024 194.482 39.6053 193.501 42.72C192.562 45.8347 192.093 47.4987 192.093 47.712C192.093 47.8827 192.434 47.968 193.117 47.968C193.842 47.968 195.528 47.4987 198.173 46.56C200.818 45.5787 202.376 45.088 202.845 45.088C203.912 45.088 204.445 45.8133 204.445 47.264C204.445 48.7147 203.016 50.464 200.157 52.512C197.298 54.5173 194.312 55.52 191.197 55.52C189.832 55.52 188.21 54.7733 186.333 53.28C184.456 51.7867 183.517 50.272 183.517 48.736C183.517 47.456 184.157 44.768 185.437 40.672C186.76 36.5333 187.656 33.696 188.125 32.16C186.461 32.6293 185.202 32.864 184.349 32.864C183.496 32.864 182.6 32.288 181.661 31.136C180.722 29.9413 180.253 28.8107 180.253 27.744C180.253 26.3787 183.56 25.2267 190.173 24.288C190.984 20.32 191.389 16.8853 191.389 13.984C191.389 12.704 192.029 12.064 193.309 12.064C194.418 12.064 195.826 12.7467 197.533 14.112C199.282 15.4347 200.157 16.7573 200.157 18.08C200.157 19.36 199.88 21.1733 199.325 23.52C201.373 23.4347 202.93 23.392 203.997 23.392C207.197 23.392 208.797 24.1173 208.797 25.568C208.797 26.5067 207.858 27.3173 205.981 28C204.146 28.64 201.309 29.344 197.469 30.112Z" fill="#1E3A8A"/>
<path d="M217.96 55.456C217.107 55.456 215.869 54.7947 214.248 53.472C212.669 52.1067 211.88 50.7627 211.88 49.44C211.88 46.3253 212.328 40.9493 213.224 33.312C214.12 25.6747 214.568 18.336 214.568 11.296C214.568 9.504 215.123 8.608 216.232 8.608C217.768 8.608 219.603 9.46133 221.736 11.168C223.912 12.8747 225 14.5813 225 16.288C225 16.8853 224.296 20.5333 222.888 27.232C221.48 33.888 220.669 39.2427 220.456 43.296C222.504 39.1573 224.915 35.7013 227.688 32.928C230.504 30.1547 232.808 28.768 234.6 28.768C235.88 28.768 236.712 31.6053 237.096 37.28C237.267 39.4133 237.608 41.376 238.12 43.168C238.632 44.9173 239.336 45.792 240.232 45.792C241.896 45.792 243.368 44.0213 244.648 40.48C245.971 36.896 246.632 33.2053 246.632 29.408C246.632 21.1733 244.371 17.056 239.848 17.056C238.525 17.056 237.288 16.3733 236.136 15.008C235.027 13.6427 234.472 12.4267 234.472 11.36C234.472 9.44 235.645 8.48 237.992 8.48C241.149 8.48 243.901 9.07733 246.248 10.272C248.637 11.424 250.493 13.024 251.816 15.072C254.461 19.1253 255.784 24.1173 255.784 30.048C255.784 34.0587 255.08 38.0267 253.672 41.952C252.264 45.8347 250.301 49.056 247.784 51.616C245.309 54.176 242.664 55.456 239.848 55.456C234.643 55.456 231.677 51.04 230.952 42.208L228.968 45.024C224.275 51.9787 220.605 55.456 217.96 55.456Z" fill="#1E3A8A"/>
<path d="M269.042 48.992C271.346 47.968 273.351 45.8987 275.058 42.784C276.765 39.6693 277.618 36.7467 277.618 34.016C277.618 31.2853 277.234 29.408 276.466 28.384C274.631 29.4507 272.797 31.6907 270.962 35.104C269.17 38.5173 268.274 41.5253 268.274 44.128C268.274 46.688 268.53 48.3093 269.042 48.992ZM259.698 44.768C259.698 39.4347 261.341 34.3787 264.626 29.6C267.954 24.8213 271.239 22.432 274.482 22.432C277.725 22.432 280.455 23.584 282.674 25.888C284.893 28.1493 286.002 30.9013 286.002 34.144C286.002 37.344 285.234 40.608 283.698 43.936C282.162 47.264 280.007 50.0373 277.234 52.256C274.461 54.432 271.495 55.52 268.338 55.52C265.991 55.52 263.965 54.4747 262.258 52.384C260.551 50.2933 259.698 47.7547 259.698 44.768Z" fill="#1E3A8A"/>
<path d="M312.758 22.496C314.976 22.496 316.918 23.4987 318.582 25.504C320.288 27.4667 321.142 29.5787 321.142 31.84C321.142 35.4667 320.544 39.264 319.35 43.232C318.198 47.1573 316.918 50.1867 315.51 52.32C314.144 54.4533 312.736 55.52 311.286 55.52C309.878 55.52 309.174 54.5173 309.174 52.512C309.174 50.976 309.878 47.8827 311.286 43.232C312.352 39.392 312.885 36.64 312.885 34.976C312.885 33.312 312.672 32.48 312.246 32.48C311.691 32.48 311.136 32.7573 310.582 33.312C310.07 33.8667 309.643 34.3573 309.302 34.784C308.96 35.2107 308.555 35.7653 308.086 36.448C307.659 37.088 307.275 37.6853 306.934 38.24C306.635 38.752 306.229 39.4347 305.717 40.288C305.248 41.0987 304.864 41.7813 304.566 42.336C304.267 42.848 303.883 43.5307 303.414 44.384C299.446 51.808 296.331 55.52 294.07 55.52C293.174 55.52 292.043 54.752 290.678 53.216C289.312 51.6373 288.63 50.4853 288.63 49.76C288.63 49.2907 288.928 48.288 289.526 46.752C290.166 45.1733 290.614 43.9787 290.87 43.168C291.168 42.3147 291.403 41.4187 291.574 40.48C291.787 39.5413 291.958 38.5387 292.086 37.472C292.214 36.3627 292.299 35.5093 292.342 34.912C292.427 34.3147 292.512 33.376 292.598 32.096C292.982 26.5493 293.301 23.4773 293.557 22.88C293.856 22.2827 294.176 21.984 294.518 21.984C296.139 21.984 297.696 22.6667 299.19 24.032C300.683 25.3547 301.43 26.5707 301.43 27.68C301.43 30.3253 300.747 34.1227 299.382 39.072C302.155 34.208 304.672 30.24 306.934 27.168C309.238 24.0533 311.179 22.496 312.758 22.496Z" fill="#1E3A8A"/>
</svg>
