<svg width="262" height="64" viewBox="0 0 262 64" fill="none" xmlns="http://www.w3.org/2000/svg">
<path d="M17.356 1.73197C18.378 0.709916 19.755 0.133073 21.1923 0.124896L43.1311 8.81236e-05C44.5897 -0.00820957 45.9918 0.569774 47.029 1.60691L62.3669 16.9433C63.4196 17.9959 64.0083 19.4333 63.9999 20.9305L63.8772 42.7435C63.8689 44.2186 63.2816 45.63 62.2444 46.6672L46.644 62.268C45.622 63.2901 44.245 63.8669 42.8077 63.8751L20.8689 63.9999C19.4103 64.0082 18.0082 63.4302 16.971 62.3931L1.63314 47.0567C0.580384 46.0041 -0.0083329 44.5667 8.91349e-05 43.0695L0.122792 21.2565C0.13109 19.7814 0.718416 18.37 1.75559 17.3328L17.356 1.73197Z" fill="#1E3A8A"/>
<path d="M40.4347 41.07C40.0747 41.082 39.8107 40.896 39.6427 40.512C39.4867 40.14 39.5767 39.552 39.9127 38.748C39.9847 38.616 40.0507 38.484 40.1107 38.352C40.1827 38.22 40.2247 38.112 40.2367 38.028C40.2727 37.944 40.3507 37.782 40.4707 37.542C40.5907 37.29 40.7407 36.99 40.9207 36.642C41.1007 36.294 41.2867 35.934 41.4787 35.562C41.6827 35.19 41.8687 34.842 42.0367 34.518C42.2167 34.182 42.3667 33.906 42.4867 33.69C42.6067 33.474 42.6787 33.348 42.7027 33.312C42.7627 33.324 42.8167 33.294 42.8647 33.222C42.9127 33.138 42.9427 33.054 42.9547 32.97C42.9787 32.862 43.0207 32.754 43.0807 32.646C43.1407 32.538 43.2007 32.472 43.2607 32.448C43.2727 32.388 43.2967 32.322 43.3327 32.25C43.3687 32.178 43.3927 32.118 43.4047 32.07C43.4167 32.022 43.4407 31.98 43.4767 31.944C43.5127 31.896 43.5307 31.848 43.5307 31.8C43.6267 31.68 43.7707 31.458 43.9627 31.134C44.1667 30.81 44.3947 30.432 44.6467 30C44.8987 29.556 45.1567 29.1 45.4207 28.632C45.6847 28.152 45.9307 27.702 46.1587 27.282C46.3867 26.862 46.5727 26.514 46.7167 26.238C46.8607 25.95 46.9387 25.782 46.9507 25.734C46.9627 25.554 47.0767 25.482 47.2927 25.518C47.3767 25.458 47.4727 25.44 47.5807 25.464C47.5807 25.464 47.6407 25.53 47.7607 25.662C47.8927 25.782 48.0007 25.902 48.0847 26.022C48.1807 26.118 48.2227 26.22 48.2107 26.328C48.2107 26.436 48.1927 26.556 48.1567 26.688C48.1327 26.844 48.0907 26.982 48.0307 27.102C47.9827 27.222 47.8807 27.384 47.7247 27.588C47.5807 27.792 47.3587 28.11 47.0587 28.542C46.9867 28.65 46.8727 28.83 46.7167 29.082C46.5727 29.334 46.4167 29.598 46.2487 29.874C46.0927 30.15 45.9607 30.39 45.8527 30.594C45.7447 30.798 45.6907 30.912 45.6907 30.936C45.6787 30.984 45.6367 31.056 45.5647 31.152C45.5047 31.236 45.4447 31.35 45.3847 31.494C45.3127 31.578 45.2167 31.71 45.0967 31.89C44.9887 32.058 44.8747 32.238 44.7547 32.43C44.6347 32.61 44.5267 32.772 44.4307 32.916C44.3467 33.048 44.3047 33.126 44.3047 33.15C44.2927 33.186 44.2747 33.228 44.2507 33.276C44.2387 33.324 44.2027 33.366 44.1427 33.402C44.1067 33.39 44.0767 33.42 44.0527 33.492C44.0287 33.552 44.0167 33.582 44.0167 33.582C44.0407 33.678 43.8967 33.978 43.5847 34.482C43.4647 34.734 43.3027 35.064 43.0987 35.472C42.8947 35.88 42.6727 36.318 42.4327 36.786C42.2047 37.254 41.9827 37.71 41.7667 38.154C41.5507 38.598 41.3707 38.988 41.2267 39.324C41.0827 39.66 40.9987 39.894 40.9747 40.026C40.9267 40.302 40.8487 40.536 40.7407 40.728C40.6327 40.92 40.5307 41.034 40.4347 41.07Z" fill="#F9FAFB"/>
<path d="M48.5181 38.64C48.4461 38.664 48.3321 38.616 48.1761 38.496C48.0321 38.364 47.9301 38.28 47.8701 38.244C47.7501 38.148 47.6601 38.088 47.6001 38.064C47.5401 38.028 47.4981 37.962 47.4741 37.866C47.4741 37.866 47.4861 37.812 47.5101 37.704C47.5461 37.596 47.6061 37.506 47.6901 37.434C47.8581 37.29 48.0741 37.152 48.3381 37.02C48.6141 36.876 48.9441 36.702 49.3281 36.498C49.7241 36.294 50.1801 36.036 50.6961 35.724C51.0201 35.52 51.2661 35.382 51.4341 35.31C51.6021 35.238 51.7101 35.172 51.7581 35.112C51.8061 35.052 51.8181 34.944 51.7941 34.788C51.5901 34.548 51.2541 34.308 50.7861 34.068C50.3301 33.816 49.6521 33.552 48.7521 33.276C48.3081 33.132 47.9781 33 47.7621 32.88C47.5461 32.748 47.4021 32.616 47.3301 32.484C47.2701 32.352 47.2521 32.208 47.2761 32.052C47.3361 31.944 47.4861 31.86 47.7261 31.8C47.9661 31.728 48.2361 31.692 48.5361 31.692C48.8481 31.692 49.1301 31.752 49.3821 31.872C49.7541 31.968 50.0781 32.058 50.3541 32.142C50.6301 32.214 50.9361 32.382 51.2721 32.646C51.6801 32.874 52.0041 33.066 52.2441 33.222C52.4961 33.378 52.7361 33.618 52.9641 33.942L53.5581 34.662L53.7561 35.616C53.6601 35.628 53.5701 35.658 53.4861 35.706C53.4021 35.754 53.3481 35.784 53.3241 35.796C53.1801 35.868 53.0301 35.958 52.8741 36.066C52.7301 36.162 52.5321 36.294 52.2801 36.462C52.0281 36.618 51.6741 36.828 51.2181 37.092C50.6661 37.38 50.1861 37.644 49.7781 37.884C49.3701 38.124 49.1061 38.304 48.9861 38.424C48.9141 38.508 48.8301 38.568 48.7341 38.604C48.6501 38.628 48.5781 38.64 48.5181 38.64Z" fill="#F9FAFB"/>
<path d="M15.7474 38.226C15.3754 38.13 15.0514 38.046 14.7754 37.974C14.4994 37.89 14.1934 37.716 13.8574 37.452C13.4494 37.212 13.1194 37.02 12.8674 36.876C12.6274 36.72 12.3934 36.48 12.1654 36.156L11.5714 35.436L11.3734 34.482C11.4694 34.458 11.5594 34.428 11.6434 34.392C11.7394 34.344 11.7934 34.314 11.8054 34.302C11.9494 34.23 12.0934 34.146 12.2374 34.05C12.3934 33.942 12.5974 33.804 12.8494 33.636C13.1014 33.468 13.4554 33.258 13.9114 33.006C14.4754 32.718 14.9554 32.454 15.3514 32.214C15.7594 31.974 16.0234 31.794 16.1434 31.674C16.2154 31.59 16.2994 31.536 16.3954 31.512C16.4914 31.476 16.5634 31.458 16.6114 31.458C16.6834 31.434 16.7974 31.488 16.9534 31.62C17.1094 31.74 17.2114 31.818 17.2594 31.854C17.3914 31.938 17.4874 31.998 17.5474 32.034C17.6074 32.07 17.6434 32.136 17.6554 32.232C17.6554 32.232 17.6374 32.286 17.6014 32.394C17.5774 32.502 17.5234 32.592 17.4394 32.664C17.2834 32.796 17.0674 32.934 16.7914 33.078C16.5274 33.222 16.1974 33.396 15.8014 33.6C15.4174 33.792 14.9614 34.05 14.4334 34.374C14.1094 34.566 13.8634 34.704 13.6954 34.788C13.5274 34.86 13.4194 34.926 13.3714 34.986C13.3234 35.046 13.3114 35.154 13.3354 35.31C13.5394 35.55 13.8694 35.796 14.3254 36.048C14.7934 36.288 15.4774 36.546 16.3774 36.822C16.8214 36.954 17.1514 37.086 17.3674 37.218C17.5954 37.35 17.7394 37.482 17.7994 37.614C17.8594 37.746 17.8774 37.89 17.8534 38.046C17.7934 38.154 17.6434 38.244 17.4034 38.316C17.1634 38.376 16.8874 38.406 16.5754 38.406C16.2754 38.394 15.9994 38.334 15.7474 38.226Z" fill="#F9FAFB"/>
<path d="M44.294 20.6592C39.8343 20.8231 36.2175 21.788 33.4526 23.2754L32.0712 25.5854L31.8384 24.2685C31.3446 24.6155 30.8862 24.9821 30.4643 25.3657L29.7758 27.4779L29.54 26.2988C27.6345 28.4319 26.7083 30.9799 26.7773 33.6069C28.9932 29.2162 32.9837 25.5103 36.7133 23.2402L37.1688 23.9888C33.6386 26.1375 29.8382 29.6702 27.6913 33.7505H28.2611C29.1883 33.1871 30.0967 32.4916 30.9989 31.7143L29.5795 31.7891L32.121 30.7065C34.3183 28.661 36.5022 26.2546 38.8388 24.2247L37.6918 23.9814L40.3402 22.9956C41.5989 22.0354 42.9091 21.2217 44.294 20.6592ZM23.7905 34.6264V36.0518H30.0938V34.6264H23.7905ZM24.7456 36.9277L23.2148 38.2725L22.1705 42.2553L22.8516 42.9995H31.1588L31.8412 42.2554L30.7969 38.2725L29.3482 36.9278L24.7456 36.9277Z" fill="white"/>
<path d="M119.808 44.16C119.808 47.7867 118.08 50.9013 114.624 53.504C111.168 56.1067 107.221 57.408 102.784 57.408C98.3467 57.408 94.7627 56.32 92.032 54.144C89.344 51.9253 88 49.6427 88 47.296C88 44.9493 88.6613 43.776 89.984 43.776C91.008 43.776 92.0747 44.288 93.184 45.312C94.2933 46.336 95.5307 47.36 96.896 48.384C98.304 49.408 99.8827 49.92 101.632 49.92C103.381 49.92 105.365 49.1947 107.584 47.744C109.803 46.2933 110.912 45.0773 110.912 44.096C110.912 43.1147 109.696 41.472 107.264 39.168C104.875 36.864 102.464 34.496 100.032 32.064C97.6427 29.5893 96.448 27.6907 96.448 26.368C96.448 25.0027 96.6827 23.5307 97.152 21.952C97.664 20.3733 98.2827 19.2853 99.008 18.688C101.312 16.4267 104.277 14.4853 107.904 12.864C111.573 11.2 114.795 10.368 117.568 10.368C119.189 10.368 120.533 11.072 121.6 12.48C122.667 13.8453 123.2 15.2747 123.2 16.768C123.2 17.3653 122.709 17.856 121.728 18.24C120.789 18.5813 119.403 18.944 117.568 19.328C115.776 19.712 113.941 20.2667 112.064 20.992C107.712 22.6133 105.536 23.9787 105.536 25.088C105.536 25.6 106.283 26.5387 107.776 27.904C109.269 29.2267 110.891 30.6347 112.64 32.128C114.432 33.5787 116.075 35.4347 117.568 37.696C119.061 39.9147 119.808 42.0693 119.808 44.16Z" fill="#1E3A8A"/>
<path d="M141.361 32.064C141.019 33.216 140.507 34.8373 139.825 36.928C139.185 38.976 138.374 41.5573 137.393 44.672C136.454 47.7867 135.984 49.4507 135.984 49.664C135.984 49.8347 136.326 49.92 137.008 49.92C137.734 49.92 139.419 49.4507 142.064 48.512C144.71 47.5307 146.267 47.04 146.737 47.04C147.803 47.04 148.337 47.7653 148.337 49.216C148.337 50.6667 146.907 52.416 144.049 54.464C141.19 56.4693 138.203 57.472 135.089 57.472C133.723 57.472 132.102 56.7253 130.225 55.232C128.347 53.7387 127.409 52.224 127.409 50.688C127.409 49.408 128.049 46.72 129.329 42.624C130.651 38.4853 131.547 35.648 132.017 34.112C130.353 34.5813 129.094 34.816 128.241 34.816C127.387 34.816 126.491 34.24 125.553 33.088C124.614 31.8933 124.145 30.7627 124.145 29.696C124.145 28.3307 127.451 27.1787 134.064 26.24C134.875 22.272 135.281 18.8373 135.281 15.936C135.281 14.656 135.921 14.016 137.201 14.016C138.31 14.016 139.718 14.6987 141.424 16.064C143.174 17.3867 144.049 18.7093 144.049 20.032C144.049 21.312 143.771 23.1253 143.217 25.472C145.265 25.3867 146.822 25.344 147.889 25.344C151.089 25.344 152.689 26.0693 152.689 27.52C152.689 28.4587 151.75 29.2693 149.872 29.952C148.038 30.592 145.201 31.296 141.361 32.064Z" fill="#1E3A8A"/>
<path d="M176.124 26.048C176.465 24.9813 177.148 24.448 178.172 24.448C179.196 24.448 180.369 25.3227 181.692 27.072C183.057 28.8213 183.74 30.336 183.74 31.616C183.74 32.0853 182.758 35.2213 180.796 41.024C178.833 46.8267 177.318 51.4133 176.252 54.784C175.654 56.576 174.651 57.472 173.243 57.472C172.39 57.472 171.665 57.1733 171.068 56.576C170.513 55.936 170.236 54.9547 170.236 53.632C170.236 52.3093 170.492 50.432 171.004 48C166.609 54.3147 163.11 57.472 160.508 57.472C159.142 57.472 157.499 56.5973 155.579 54.848C153.659 53.056 152.7 51.328 152.7 49.664C152.7 45.568 153.852 40.3413 156.156 33.984C158.502 27.6267 160.699 24.448 162.747 24.448C163.985 24.448 165.073 25.0027 166.012 26.112C166.993 27.2213 167.484 28.4373 167.484 29.76C167.484 30.272 166.95 31.7013 165.883 34.048C162.641 41.088 161.02 46.0587 161.02 48.96C161.02 49.216 161.126 49.344 161.34 49.344C161.98 49.344 163.174 48.3413 164.924 46.336C166.716 44.288 168.7 41.3867 170.876 37.632C173.094 33.8347 174.844 29.9733 176.124 26.048Z" fill="#1E3A8A"/>
<path d="M212.113 6.528C213.137 6.528 214.48 7.46667 216.145 9.344C217.808 11.1787 218.641 12.9067 218.641 14.528C218.641 15.3387 217.894 18.7093 216.4 24.64C214.907 30.5707 214.011 34.1547 213.713 35.392C210.299 50.112 207.803 57.472 206.225 57.472C205.329 57.472 204.326 56.9387 203.217 55.872C202.107 54.8053 201.553 53.76 201.553 52.736C201.553 52.5227 201.574 52.352 201.617 52.224C197.35 55.7227 194.278 57.472 192.4 57.472C190.566 57.472 188.774 56.4907 187.025 54.528C185.318 52.5227 184.465 50.7093 184.465 49.088C184.465 47.4667 184.678 45.6747 185.105 43.712C185.574 41.7067 186.278 39.5947 187.217 37.376C188.155 35.1573 189.222 33.088 190.417 31.168C191.654 29.2053 193.126 27.6053 194.833 26.368C196.582 25.088 198.374 24.448 200.209 24.448C202.939 24.448 205.179 25.8347 206.929 28.608C209.233 18.496 210.342 11.776 210.257 8.448C210.257 7.168 210.875 6.528 212.113 6.528ZM193.232 49.344C194.299 49.344 196.091 48.4267 198.609 46.592C201.169 44.7573 203.067 42.432 204.305 39.616C204.262 39.2747 204.241 38.528 204.241 37.376C204.241 36.224 203.857 35.136 203.089 34.112C202.321 33.088 201.617 32.576 200.977 32.576C199.697 32.576 198.459 33.2587 197.265 34.624C196.113 35.9893 195.195 37.6107 194.512 39.488C193.062 43.456 192.337 46.464 192.337 48.512C192.337 48.8533 192.379 49.088 192.465 49.216C192.593 49.3013 192.848 49.344 193.232 49.344Z" fill="#1E3A8A"/>
<path d="M225.557 16.448C225.557 15.3387 226.047 14.208 227.029 13.056C228.053 11.8613 229.034 11.264 229.973 11.264C230.954 11.264 232.106 12.416 233.428 14.72C234.751 17.024 235.413 18.7093 235.413 19.776C235.413 20.8 235.071 21.5893 234.389 22.144C233.706 22.6987 233.002 22.976 232.277 22.976C231.039 22.976 229.61 22.1653 227.988 20.544C226.367 18.9227 225.557 17.5573 225.557 16.448ZM226.516 24.448C228.01 24.448 229.332 25.3013 230.484 27.008C231.679 28.7147 232.277 30.3573 232.277 31.936C232.277 32.7467 231.53 35.6693 230.036 40.704C228.586 45.696 227.135 50.432 225.684 54.912C225.172 56.576 224.127 57.408 222.549 57.408C221.61 57.408 220.778 57.0667 220.053 56.384C219.37 55.6587 219.029 54.7413 219.029 53.632C219.029 52.48 219.562 49.664 220.628 45.184C221.738 40.6613 222.57 36.8213 223.124 33.664C223.722 30.464 224.255 28.1387 224.725 26.688C225.237 25.1947 225.834 24.448 226.516 24.448Z" fill="#1E3A8A"/>
<path d="M244.934 50.944C247.238 49.92 249.243 47.8507 250.95 44.736C252.656 41.6213 253.51 38.6987 253.51 35.968C253.51 33.2373 253.125 31.36 252.357 30.336C250.523 31.4027 248.688 33.6427 246.854 37.056C245.062 40.4693 244.165 43.4773 244.165 46.08C244.165 48.64 244.422 50.2613 244.934 50.944ZM235.589 46.72C235.589 41.3867 237.232 36.3307 240.518 31.552C243.846 26.7733 247.131 24.384 250.374 24.384C253.616 24.384 256.347 25.536 258.566 27.84C260.784 30.1013 261.894 32.8533 261.894 36.096C261.894 39.296 261.126 42.56 259.59 45.888C258.054 49.216 255.899 51.9893 253.126 54.208C250.352 56.384 247.387 57.472 244.23 57.472C241.883 57.472 239.856 56.4267 238.15 54.336C236.443 52.2453 235.589 49.7067 235.589 46.72Z" fill="#1E3A8A"/>
</svg>
