<svg width="16" height="16" viewBox="0 0 16 16" fill="none" xmlns="http://www.w3.org/2000/svg">
<path d="M6.7641 2.16534C6.86371 1.91915 7.03457 1.70832 7.25478 1.55986C7.47499 1.4114 7.73452 1.33209 8.0001 1.33209C8.26568 1.33209 8.52521 1.4114 8.74542 1.55986C8.96563 1.70832 9.13649 1.91915 9.2361 2.16534C10.2221 2.43617 11.0919 3.02334 11.7117 3.83659C12.3315 4.64984 12.6671 5.64416 12.6668 6.66668V9.79801L13.8881 11.63C13.9551 11.7304 13.9936 11.8471 13.9994 11.9677C14.0053 12.0882 13.9783 12.2081 13.9214 12.3145C13.8644 12.4209 13.7796 12.5099 13.6761 12.5719C13.5726 12.6339 13.4541 12.6667 13.3334 12.6667H10.3101C10.2298 13.2221 9.95214 13.73 9.5279 14.0973C9.10366 14.4646 8.56127 14.6668 8.0001 14.6668C7.43893 14.6668 6.89654 14.4646 6.4723 14.0973C6.04806 13.73 5.77037 13.2221 5.6901 12.6667H2.66677C2.54607 12.6667 2.42764 12.6339 2.32409 12.5719C2.22055 12.5099 2.13579 12.4209 2.07885 12.3145C2.02191 12.2081 1.99493 12.0882 2.00079 11.9677C2.00664 11.8471 2.04511 11.7304 2.1121 11.63L3.33343 9.79801V6.66668C3.33343 4.51734 4.78677 2.70668 6.7641 2.16534ZM7.05743 12.6667C7.12629 12.8618 7.25396 13.0307 7.42285 13.1502C7.59174 13.2697 7.79354 13.3339 8.00043 13.3339C8.20733 13.3339 8.40913 13.2697 8.57802 13.1502C8.74691 13.0307 8.87458 12.8618 8.94343 12.6667H7.05743ZM8.0001 3.33334C7.11604 3.33334 6.2682 3.68453 5.64308 4.30965C5.01796 4.93478 4.66677 5.78262 4.66677 6.66668V10C4.6668 10.1317 4.62782 10.2604 4.55477 10.37L3.91277 11.3333H12.0868L11.4448 10.37C11.3719 10.2604 11.3332 10.1316 11.3334 10V6.66668C11.3334 5.78262 10.9822 4.93478 10.3571 4.30965C9.732 3.68453 8.88416 3.33334 8.0001 3.33334Z" fill="black"/>
</svg>
