<svg width="16" height="16" viewBox="0 0 16 16" fill="none" xmlns="http://www.w3.org/2000/svg">
<path d="M7.99992 1.33331C11.6819 1.33331 14.6666 4.31798 14.6666 7.99998C14.6666 11.682 11.6819 14.6666 7.99992 14.6666C4.31792 14.6666 1.33325 11.682 1.33325 7.99998C1.33325 4.31798 4.31792 1.33331 7.99992 1.33331ZM7.99992 2.66665C6.58543 2.66665 5.22888 3.22855 4.22868 4.22874C3.22849 5.22894 2.66659 6.58549 2.66659 7.99998C2.66659 9.41447 3.22849 10.771 4.22868 11.7712C5.22888 12.7714 6.58543 13.3333 7.99992 13.3333C9.41441 13.3333 10.771 12.7714 11.7712 11.7712C12.7713 10.771 13.3333 9.41447 13.3333 7.99998C13.3333 6.58549 12.7713 5.22894 11.7712 4.22874C10.771 3.22855 9.41441 2.66665 7.99992 2.66665ZM10.3566 5.58731C10.4763 5.46648 10.6376 5.39596 10.8076 5.39019C10.9776 5.38442 11.1434 5.44384 11.271 5.55629C11.3986 5.66874 11.4784 5.8257 11.4941 5.99506C11.5097 6.16442 11.4601 6.33337 11.3553 6.46731L11.2999 6.52998L7.57592 10.2546C7.44882 10.3817 7.27947 10.4577 7.10003 10.4682C6.9206 10.4786 6.74358 10.4228 6.60259 10.3113L6.53859 10.2546L4.69992 8.41598C4.57908 8.29629 4.50856 8.13493 4.5028 7.96495C4.49703 7.79496 4.55645 7.6292 4.6689 7.50159C4.78134 7.37398 4.93831 7.29418 5.10767 7.27851C5.27703 7.26284 5.44597 7.3125 5.57992 7.41731L5.64259 7.47331L7.05725 8.88731L10.3573 5.58731H10.3566Z" fill="black"/>
</svg>
