<svg width="16" height="16" viewBox="0 0 16 16" fill="none" xmlns="http://www.w3.org/2000/svg">
<path fill-rule="evenodd" clip-rule="evenodd" d="M14.3641 3.40732C14.5516 3.59484 14.6569 3.84915 14.6569 4.11432C14.6569 4.37948 14.5516 4.63379 14.3641 4.82132L6.86877 12.3167C6.76971 12.4157 6.65211 12.4943 6.52268 12.5479C6.39325 12.6016 6.25453 12.6292 6.11443 12.6292C5.97434 12.6292 5.83561 12.6016 5.70618 12.5479C5.57675 12.4943 5.45915 12.4157 5.3601 12.3167L1.6361 8.59332C1.54059 8.50107 1.46441 8.39073 1.412 8.26872C1.35959 8.14672 1.332 8.0155 1.33085 7.88272C1.32969 7.74994 1.355 7.61826 1.40528 7.49536C1.45556 7.37247 1.52981 7.26081 1.6237 7.16692C1.7176 7.07303 1.82925 6.99878 1.95214 6.94849C2.07504 6.89821 2.20672 6.87291 2.3395 6.87407C2.47228 6.87522 2.6035 6.90281 2.7255 6.95522C2.84751 7.00762 2.95785 7.08381 3.0501 7.17932L6.1141 10.2433L12.9494 3.40732C13.0423 3.31439 13.1526 3.24067 13.2739 3.19038C13.3953 3.14008 13.5254 3.1142 13.6568 3.1142C13.7881 3.1142 13.9182 3.14008 14.0396 3.19038C14.161 3.24067 14.2712 3.31439 14.3641 3.40732Z" fill="black"/>
</svg>
