<svg width="16" height="16" viewBox="0 0 16 16" fill="none" xmlns="http://www.w3.org/2000/svg">
<path fill-rule="evenodd" clip-rule="evenodd" d="M8.00006 9.41468L11.5354 12.95C11.723 13.1376 11.9774 13.243 12.2427 13.243C12.508 13.243 12.7625 13.1376 12.9501 12.95C13.1377 12.7624 13.243 12.508 13.243 12.2427C13.243 11.9774 13.1377 11.7229 12.9501 11.5353L9.4134 8.00001L12.9494 4.46468C13.0422 4.37179 13.1159 4.26152 13.1661 4.14018C13.2163 4.01883 13.2422 3.88878 13.2421 3.75744C13.2421 3.62611 13.2162 3.49607 13.1659 3.37475C13.1156 3.25342 13.042 3.14319 12.9491 3.05035C12.8562 2.9575 12.7459 2.88386 12.6246 2.83363C12.5032 2.7834 12.3732 2.75756 12.2418 2.75759C12.1105 2.75763 11.9805 2.78352 11.8591 2.83381C11.7378 2.8841 11.6276 2.95779 11.5347 3.05068L8.00006 6.58601L4.46473 3.05068C4.37253 2.95513 4.26222 2.87889 4.14024 2.82643C4.01826 2.77396 3.88705 2.74631 3.75427 2.7451C3.6215 2.74388 3.48981 2.76912 3.36689 2.81934C3.24397 2.86957 3.13228 2.94377 3.03834 3.03762C2.94441 3.13146 2.8701 3.24308 2.81976 3.36595C2.76942 3.48882 2.74406 3.62049 2.74515 3.75327C2.74624 3.88605 2.77377 4.01728 2.82612 4.13931C2.87847 4.26134 2.9546 4.37172 3.05006 4.46401L6.58673 8.00001L3.05073 11.536C2.95526 11.6283 2.87913 11.7387 2.82678 11.8607C2.77443 11.9827 2.74691 12.114 2.74582 12.2468C2.74473 12.3795 2.77009 12.5112 2.82043 12.6341C2.87077 12.7569 2.94507 12.8686 3.03901 12.9624C3.13295 13.0563 3.24463 13.1305 3.36755 13.1807C3.49047 13.2309 3.62216 13.2561 3.75494 13.2549C3.88772 13.2537 4.01893 13.2261 4.14091 13.1736C4.26288 13.1211 4.37319 13.0449 4.4654 12.9493L8.00006 9.41468Z" fill="black"/>
</svg>
