<svg width="16" height="16" viewBox="0 0 16 16" fill="none" xmlns="http://www.w3.org/2000/svg">
<path d="M8.47525 11.142C8.60281 11.014 8.66659 10.8555 8.66659 10.6666C8.66659 10.4778 8.60259 10.3195 8.47459 10.192C8.34659 10.0644 8.18836 10.0004 7.99992 9.99998C7.81148 9.99954 7.65325 10.0635 7.52525 10.192C7.39725 10.3204 7.33325 10.4786 7.33325 10.6666C7.33325 10.8546 7.39725 11.0131 7.52525 11.142C7.65325 11.2709 7.81148 11.3346 7.99992 11.3333C8.18836 11.332 8.34681 11.2686 8.47525 11.142ZM8.47525 8.47465C8.60281 8.34709 8.66659 8.18887 8.66659 7.99998V5.33331C8.66659 5.14442 8.60259 4.9862 8.47459 4.85865C8.34659 4.73109 8.18836 4.66709 7.99992 4.66665C7.81148 4.6662 7.65325 4.7302 7.52525 4.85865C7.39725 4.98709 7.33325 5.14531 7.33325 5.33331V7.99998C7.33325 8.18887 7.39725 8.34731 7.52525 8.47531C7.65325 8.60331 7.81148 8.66709 7.99992 8.66665C8.18836 8.6662 8.34681 8.6022 8.47525 8.47465ZM7.99992 14.6666C7.0777 14.6666 6.21103 14.4915 5.39992 14.1413C4.58881 13.7911 3.88325 13.3162 3.28325 12.7166C2.68325 12.1171 2.20836 11.4115 1.85859 10.6C1.50881 9.78842 1.3337 8.92176 1.33325 7.99998C1.33281 7.0782 1.50792 6.21154 1.85859 5.39998C2.20925 4.58842 2.68414 3.88287 3.28325 3.28331C3.88236 2.68376 4.58792 2.20887 5.39992 1.85865C6.21192 1.50842 7.07859 1.33331 7.99992 1.33331C8.92125 1.33331 9.78792 1.50842 10.5999 1.85865C11.4119 2.20887 12.1175 2.68376 12.7166 3.28331C13.3157 3.88287 13.7908 4.58842 14.1419 5.39998C14.493 6.21154 14.6679 7.0782 14.6666 7.99998C14.6653 8.92176 14.4901 9.78842 14.1413 10.6C13.7924 11.4115 13.3175 12.1171 12.7166 12.7166C12.1157 13.3162 11.4101 13.7913 10.5999 14.142C9.7897 14.4926 8.92303 14.6675 7.99992 14.6666Z" fill="black"/>
</svg>
