<svg width="16" height="16" viewBox="0 0 16 16" fill="none" xmlns="http://www.w3.org/2000/svg">
<path d="M7.99992 1.33331C6.68138 1.33331 5.39245 1.72431 4.29612 2.45685C3.19979 3.18939 2.34531 4.23058 1.84072 5.44876C1.33614 6.66693 1.20412 8.00738 1.46135 9.30058C1.71859 10.5938 2.35353 11.7817 3.28588 12.714C4.21823 13.6464 5.40611 14.2813 6.69932 14.5385C7.99253 14.7958 9.33297 14.6638 10.5511 14.1592C11.7693 13.6546 12.8105 12.8001 13.5431 11.7038C14.2756 10.6075 14.6666 9.31852 14.6666 7.99998C14.6648 6.23241 13.9619 4.53774 12.712 3.28788C11.4622 2.03802 9.76749 1.33508 7.99992 1.33331ZM7.99992 13.3333C6.94509 13.3333 5.91394 13.0205 5.03688 12.4345C4.15982 11.8484 3.47623 11.0155 3.07256 10.041C2.6689 9.06642 2.56328 7.99406 2.76907 6.9595C2.97485 5.92493 3.48281 4.97462 4.22869 4.22874C4.97457 3.48286 5.92487 2.97491 6.95944 2.76913C7.99401 2.56334 9.06636 2.66895 10.0409 3.07262C11.0154 3.47629 11.8484 4.15988 12.4344 5.03694C13.0205 5.914 13.3333 6.94515 13.3333 7.99998C13.3315 9.41393 12.769 10.7695 11.7692 11.7693C10.7694 12.7691 9.41387 13.3315 7.99992 13.3333ZM7.99992 7.66665C7.82311 7.66665 7.65354 7.73688 7.52852 7.86191C7.40349 7.98693 7.33326 8.1565 7.33326 8.33331V10.3333C7.33326 10.5101 7.40349 10.6797 7.52852 10.8047C7.65354 10.9297 7.82311 11 7.99992 11C8.17673 11 8.3463 10.9297 8.47133 10.8047C8.59635 10.6797 8.66659 10.5101 8.66659 10.3333V8.33331C8.66659 8.1565 8.59635 7.98693 8.47133 7.86191C8.3463 7.73688 8.17673 7.66665 7.99992 7.66665ZM7.99992 4.99998C7.8351 4.99998 7.67399 5.04885 7.53695 5.14042C7.39991 5.23199 7.2931 5.36214 7.23002 5.51441C7.16695 5.66668 7.15045 5.83424 7.1826 5.99589C7.21476 6.15754 7.29412 6.30603 7.41067 6.42257C7.52721 6.53911 7.6757 6.61848 7.83735 6.65063C7.999 6.68279 8.16655 6.66629 8.31882 6.60321C8.4711 6.54014 8.60125 6.43333 8.69281 6.29629C8.78438 6.15925 8.83326 5.99813 8.83326 5.83331C8.83326 5.6123 8.74546 5.40034 8.58918 5.24406C8.4329 5.08778 8.22094 4.99998 7.99992 4.99998Z" fill="black"/>
</svg>
