<svg width="16" height="16" viewBox="0 0 16 16" fill="none" xmlns="http://www.w3.org/2000/svg">
<path d="M9.83333 5.33335V4.00002C9.83333 3.6464 9.69286 3.30726 9.44281 3.05721C9.19276 2.80716 8.85362 2.66669 8.5 2.66669H3.83333C3.47971 2.66669 3.14057 2.80716 2.89052 3.05721C2.64048 3.30726 2.5 3.6464 2.5 4.00002V12C2.5 12.3536 2.64048 12.6928 2.89052 12.9428C3.14057 13.1929 3.47971 13.3334 3.83333 13.3334H8.5C8.85362 13.3334 9.19276 13.1929 9.44281 12.9428C9.69286 12.6928 9.83333 12.3536 9.83333 12V10.6667" stroke="black" stroke-width="1.33333" stroke-linecap="round" stroke-linejoin="round"/>
<path d="M7.5 8H13.5M13.5 8L12 6M13.5 8L12 10" stroke="black" stroke-width="1.33333" stroke-linecap="round" stroke-linejoin="round"/>
</svg>
