<svg width="16" height="16" viewBox="0 0 16 16" fill="none" xmlns="http://www.w3.org/2000/svg">
<path d="M11.7666 4.23332C11.2078 3.6695 10.5295 3.2384 9.7818 2.97185C9.03408 2.7053 8.23604 2.61011 7.4466 2.69332C4.99993 2.93999 2.9866 4.92665 2.71327 7.37332C2.3466 10.6067 4.8466 13.3333 7.99993 13.3333C9.00667 13.3333 9.99275 13.0477 10.8436 12.5095C11.6944 11.9714 12.3751 11.2029 12.8066 10.2933C13.0199 9.84665 12.6999 9.33332 12.2066 9.33332C11.9599 9.33332 11.7266 9.46665 11.6199 9.68665C11.2329 10.5193 10.5708 11.1933 9.74521 11.5952C8.91958 11.9971 7.98073 12.1024 7.0866 11.8933C5.6066 11.5667 4.41327 10.36 4.09993 8.87999C3.96822 8.29483 3.96975 7.68754 4.1044 7.10305C4.23905 6.51856 4.50338 5.97182 4.87783 5.50327C5.25229 5.03472 5.7273 4.65634 6.26771 4.39613C6.80813 4.13592 7.40013 4.00054 7.99993 3.99999C9.1066 3.99999 10.0933 4.45999 10.8133 5.18665L9.8066 6.19332C9.3866 6.61332 9.67993 7.33332 10.2733 7.33332H12.6666C13.0333 7.33332 13.3333 7.03332 13.3333 6.66665V4.27332C13.3333 3.67999 12.6133 3.37999 12.1933 3.79999L11.7666 4.23332Z" fill="black"/>
</svg>
