<svg width="16" height="16" viewBox="0 0 16 16" fill="none" xmlns="http://www.w3.org/2000/svg">
<path d="M14.4 9.59998H12.656C12.52 10.16 12.304 10.68 12.008 11.144L13.24 12.376L11.56 14.056L10.328 12.824C9.86405 13.112 9.34405 13.328 8.80005 13.456V15.2H6.40005V13.456C5.85605 13.328 5.33605 13.112 4.87205 12.824L3.64005 14.056L1.94405 12.36L3.17605 11.128C2.88805 10.664 2.67205 10.144 2.54405 9.59998H0.800049V7.22398H2.53605C2.66405 6.66398 2.88805 6.14398 3.17605 5.67198L1.94405 4.43998L3.62405 2.75998L4.85605 3.99198C5.32005 3.69598 5.84805 3.47998 6.40005 3.34398V1.59998H8.80005V3.34398C9.34405 3.47198 9.86405 3.68798 10.328 3.97598L11.56 2.74398L13.256 4.43998L12.024 5.67198C12.312 6.14398 12.536 6.66398 12.664 7.22398H14.4V9.59998ZM7.60005 10.8C8.92805 10.8 10 9.72798 10 8.39998C10 7.07198 8.92805 5.99998 7.60005 5.99998C6.27205 5.99998 5.20005 7.07198 5.20005 8.39998C5.20005 9.72798 6.27205 10.8 7.60005 10.8Z" fill="black"/>
</svg>
