<svg width="16" height="16" viewBox="0 0 16 16" fill="none" xmlns="http://www.w3.org/2000/svg">
<path fill-rule="evenodd" clip-rule="evenodd" d="M7.99992 9.19999C7.82311 9.19999 7.65354 9.12975 7.52851 9.00473C7.40349 8.87971 7.33325 8.71014 7.33325 8.53333V5.19999C7.33325 5.02318 7.40349 4.85361 7.52851 4.72859C7.65354 4.60356 7.82311 4.53333 7.99992 4.53333C8.17673 4.53333 8.3463 4.60356 8.47132 4.72859C8.59635 4.85361 8.66659 5.02318 8.66659 5.19999V8.53333C8.66659 8.71014 8.59635 8.87971 8.47132 9.00473C8.3463 9.12975 8.17673 9.19999 7.99992 9.19999Z" fill="black"/>
<path d="M7.2981 10.6386C7.2981 10.4525 7.37206 10.2739 7.50371 10.1423C7.63536 10.0106 7.81391 9.93665 8.0001 9.93665C8.18628 9.93665 8.36483 10.0106 8.49648 10.1423C8.62814 10.2739 8.7021 10.4525 8.7021 10.6386C8.7021 10.8248 8.62814 11.0034 8.49648 11.135C8.36483 11.2667 8.18628 11.3406 8.0001 11.3406C7.81391 11.3406 7.63536 11.2667 7.50371 11.135C7.37206 11.0034 7.2981 10.8248 7.2981 10.6386Z" fill="black"/>
<path fill-rule="evenodd" clip-rule="evenodd" d="M10.4047 3.09467L14.322 10.2413C15.33 12.0807 14.0067 14.3333 11.9173 14.3333H4.08266C1.99333 14.3333 0.669328 12.08 1.67799 10.2407L5.59533 3.094C6.63933 1.19067 9.36066 1.19067 10.4047 3.094V3.09467ZM9.20199 3.76134C8.68066 2.80867 7.31933 2.80867 6.79799 3.76134L2.87999 10.9067C2.37533 11.8267 3.03733 12.9527 4.08199 12.9527H11.9167C12.9613 12.9527 13.6233 11.826 13.1187 10.906L9.20199 3.76134Z" fill="black"/>
</svg>
