<svg width="16" height="16" viewBox="0 0 16 16" fill="none" xmlns="http://www.w3.org/2000/svg">
<path d="M14.3166 11.8359L9.35024 2.68843C9.21875 2.44685 9.02457 2.24519 8.78812 2.10468C8.55168 1.96417 8.28172 1.89001 8.00668 1.89001C7.73163 1.89001 7.46168 1.96417 7.22523 2.10468C6.98879 2.24519 6.7946 2.44685 6.66311 2.68843L1.69168 11.8359C1.56156 12.0694 1.49492 12.333 1.49842 12.6004C1.50192 12.8677 1.57543 13.1294 1.71162 13.3595C1.8478 13.5896 2.04192 13.78 2.27461 13.9116C2.5073 14.0433 2.77043 14.1117 3.03779 14.11H12.9705C13.2356 14.1102 13.4963 14.0415 13.7269 13.9106C13.9575 13.7798 14.1502 13.5912 14.2859 13.3634C14.4216 13.1356 14.4958 12.8764 14.5012 12.6113C14.5066 12.3462 14.443 12.0843 14.3166 11.8512V11.8359ZM7.24439 5.30927C7.24439 5.10642 7.32497 4.91188 7.4684 4.76845C7.61184 4.62501 7.80638 4.54443 8.00922 4.54443C8.21207 4.54443 8.40661 4.62501 8.55005 4.76845C8.69348 4.91188 8.77406 5.10642 8.77406 5.30927V8.82241C8.77406 9.02526 8.69348 9.2198 8.55005 9.36324C8.40661 9.50667 8.21207 9.58725 8.00922 9.58725C7.80638 9.58725 7.61184 9.50667 7.4684 9.36324C7.32497 9.2198 7.24439 9.02526 7.24439 8.82241V5.30927ZM8.02962 12.1979C7.85616 12.1979 7.6866 12.1465 7.54238 12.0501C7.39815 11.9537 7.28575 11.8168 7.21937 11.6565C7.15299 11.4962 7.13562 11.3199 7.16946 11.1498C7.2033 10.9797 7.28683 10.8234 7.40948 10.7007C7.53213 10.5781 7.6884 10.4946 7.85852 10.4607C8.02865 10.4269 8.20499 10.4442 8.36524 10.5106C8.52549 10.577 8.66246 10.6894 8.75883 10.8336C8.8552 10.9779 8.90663 11.1474 8.90663 11.3209C8.90663 11.5535 8.81423 11.7766 8.64976 11.941C8.48529 12.1055 8.26222 12.1979 8.02962 12.1979Z" fill="black"/>
</svg>
