<svg width="16" height="16" viewBox="0 0 16 16" fill="none" xmlns="http://www.w3.org/2000/svg">
<path d="M14.4 9.60001H12.656C12.52 10.16 12.304 10.68 12.008 11.144L13.24 12.376L11.56 14.056L10.328 12.824C9.86399 13.112 9.34399 13.328 8.79999 13.456V15.2H6.39999V13.456C5.85599 13.328 5.33599 13.112 4.87199 12.824L3.63999 14.056L1.94399 12.36L3.17599 11.128C2.88799 10.664 2.67199 10.144 2.54399 9.60001H0.799988V7.22401H2.53599C2.66399 6.66401 2.88799 6.14401 3.17599 5.67201L1.94399 4.44001L3.62399 2.76001L4.85599 3.99201C5.31999 3.69601 5.84799 3.48001 6.39999 3.34401V1.60001H8.79999V3.34401C9.34399 3.47201 9.86399 3.68801 10.328 3.97601L11.56 2.74401L13.256 4.44001L12.024 5.67201C12.312 6.14401 12.536 6.66401 12.664 7.22401H14.4V9.60001ZM7.59999 10.8C8.92799 10.8 9.99999 9.72801 9.99999 8.40001C9.99999 7.07201 8.92799 6.00001 7.59999 6.00001C6.27199 6.00001 5.19999 7.07201 5.19999 8.40001C5.19999 9.72801 6.27199 10.8 7.59999 10.8Z" fill="#1E3A8A"/>
</svg>
