<svg width="16" height="16" viewBox="0 0 16 16" fill="none" xmlns="http://www.w3.org/2000/svg">
<path d="M8 0.666687L2 3.33335V7.33335C2 11.0334 4.56 14.4934 8 15.3334C11.44 14.4934 14 11.0334 14 7.33335V3.33335L8 0.666687ZM8 3.26669C8.39556 3.26669 8.78224 3.38398 9.11114 3.60375C9.44004 3.82351 9.69638 4.13587 9.84776 4.50132C9.99913 4.86677 10.0387 5.26891 9.96157 5.65687C9.8844 6.04483 9.69392 6.4012 9.41421 6.6809C9.13451 6.96061 8.77814 7.15109 8.39018 7.22826C8.00222 7.30543 7.60009 7.26582 7.23463 7.11445C6.86918 6.96307 6.55682 6.70673 6.33706 6.37783C6.1173 6.04893 6 5.66225 6 5.26669C6 4.73625 6.21071 4.22755 6.58579 3.85247C6.96086 3.4774 7.46957 3.26669 8 3.26669ZM8 8.53335C9.33333 8.53335 12 9.26002 12 10.5867C11.5622 11.2468 10.9678 11.7882 10.2698 12.1628C9.57188 12.5374 8.7921 12.7334 8 12.7334C7.2079 12.7334 6.42812 12.5374 5.73018 12.1628C5.03224 11.7882 4.43785 11.2468 4 10.5867C4 9.26002 6.66667 8.53335 8 8.53335Z" fill="currentColor"/>
</svg>
