<svg width="16" height="16" viewBox="0 0 16 16" fill="none" xmlns="http://www.w3.org/2000/svg">
<path d="M7 1.33334V2.66668M9 1.33334V2.66668M5.33333 4.33334H4M5.33333 6.33334H4M12 4.33334H10.6667M12 6.33334H10.6667M8 12.6667C8.31067 12.6667 8.466 12.6667 8.58867 12.718C8.75182 12.7855 8.88153 12.915 8.94933 13.078C9 13.2007 9 13.356 9 13.6667C9 13.9773 9 14.1327 8.94867 14.2553C8.88116 14.4185 8.75169 14.5482 8.58867 14.616C8.466 14.6667 8.31067 14.6667 8 14.6667C7.68933 14.6667 7.534 14.6667 7.41133 14.616C7.24818 14.5485 7.11847 14.4184 7.05067 14.2553C7 14.1327 7 13.9773 7 13.6667C7 13.356 7 13.2007 7.05133 13.078C7.11884 12.9149 7.24831 12.7852 7.41133 12.7173C7.534 12.6667 7.68933 12.6667 8 12.6667ZM8 12.6667V8.00001M8.88867 2.66668H7.11133C6.27333 2.66668 5.85333 2.66668 5.59333 2.92668C5.33333 3.18801 5.33333 3.60668 5.33333 4.44534V6.22268C5.33333 7.06068 5.33333 7.48001 5.59333 7.74068C5.854 8.00068 6.27333 8.00068 7.11133 8.00068H8.88867C9.72667 8.00068 10.146 8.00068 10.4067 7.74068C10.6667 7.48001 10.6667 7.06068 10.6667 6.22268V4.44468C10.6667 3.60668 10.6667 3.18734 10.4067 2.92734C10.146 2.66668 9.72667 2.66668 8.88867 2.66668ZM2.41133 14.616C2.534 14.6667 2.68933 14.6667 3 14.6667C3.31067 14.6667 3.466 14.6667 3.58867 14.616C3.75169 14.5482 3.88116 14.4185 3.94867 14.2553C4 14.1327 4 13.9773 4 13.6667C4 13.356 4 13.2007 3.94933 13.078C3.88153 12.915 3.75182 12.7855 3.58867 12.718C3.466 12.6667 3.31067 12.6667 3 12.6667C2.68933 12.6667 2.534 12.6667 2.41133 12.7173C2.24831 12.7852 2.11884 12.9149 2.05133 13.078C2 13.2007 2 13.356 2 13.6667C2 13.9773 2 14.1327 2.05067 14.2553C2.11847 14.4184 2.24818 14.5485 2.41133 14.616Z" stroke="currentColor" stroke-linecap="round" stroke-linejoin="round"/>
<path d="M3 12.6667C3 11.7307 3 11.262 3.22467 10.926C3.32197 10.7804 3.44702 10.6553 3.59267 10.558C3.92867 10.3333 4.39733 10.3333 5.33333 10.3333H10.6667C11.6027 10.3333 12.0713 10.3333 12.4073 10.558C12.5527 10.6553 12.678 10.7807 12.7753 10.926C13 11.262 13 11.7307 13 12.6667M13 12.6667C13.3107 12.6667 13.466 12.6667 13.5887 12.718C13.7518 12.7855 13.8815 12.915 13.9493 13.078C14 13.2007 14 13.356 14 13.6667C14 13.9773 14 14.1327 13.9487 14.2553C13.8812 14.4185 13.7517 14.5482 13.5887 14.616C13.466 14.6667 13.3107 14.6667 13 14.6667C12.6893 14.6667 12.534 14.6667 12.4113 14.616C12.2482 14.5485 12.1185 14.4184 12.0507 14.2553C12 14.1327 12 13.9773 12 13.6667C12 13.356 12 13.2007 12.0513 13.078C12.1188 12.9149 12.2483 12.7851 12.4113 12.7173C12.534 12.6667 12.6893 12.6667 13 12.6667Z" stroke="currentColor" stroke-linecap="round" stroke-linejoin="round"/>
</svg>
