<svg width="16" height="16" viewBox="0 0 16 16" fill="none" xmlns="http://www.w3.org/2000/svg">
<path d="M6.33337 4.33C6.33337 4.15319 6.40361 3.98362 6.52864 3.8586C6.65366 3.73357 6.82323 3.66333 7.00004 3.66333H11C11.1769 3.66333 11.3464 3.73357 11.4714 3.8586C11.5965 3.98362 11.6667 4.15319 11.6667 4.33C11.6667 4.50681 11.5965 4.67638 11.4714 4.80141C11.3464 4.92643 11.1769 4.99667 11 4.99667H7.00004C6.82323 4.99667 6.65366 4.92643 6.52864 4.80141C6.40361 4.67638 6.33337 4.50681 6.33337 4.33ZM9.42471 5.66333H10.9087C10.9474 5.66333 11.0014 5.66333 11.05 5.66733C11.1087 5.672 11.2027 5.68533 11.3027 5.736C11.4281 5.79992 11.5301 5.9019 11.594 6.02733C11.6454 6.12733 11.658 6.22067 11.6627 6.28C11.6667 6.32867 11.6667 6.38267 11.6667 6.42133V7.572C11.6667 7.61067 11.6667 7.66467 11.6627 7.71333C11.6567 7.80127 11.6334 7.88715 11.594 7.966C11.5301 8.09144 11.4281 8.19342 11.3027 8.25733C11.2239 8.2967 11.138 8.32004 11.05 8.326C11.003 8.329 10.9559 8.33033 10.9087 8.33H9.42471C9.38604 8.33 9.33204 8.33 9.28337 8.326C9.19544 8.32004 9.10956 8.2967 9.03071 8.25733C8.90527 8.19342 8.80329 8.09144 8.73937 7.966C8.70001 7.88715 8.67667 7.80127 8.67071 7.71333C8.66671 7.66467 8.66671 7.61067 8.66671 7.572V6.42133C8.66671 6.38267 8.66671 6.32867 8.67071 6.28C8.67537 6.22133 8.68871 6.12733 8.73937 6.02733C8.80329 5.9019 8.90527 5.79992 9.03071 5.736C9.13071 5.68533 9.22404 5.672 9.28337 5.66733C9.33204 5.66333 9.38604 5.66333 9.42471 5.66333ZM9.66671 6.66333V7.33H10.6667V6.66333H9.66671ZM6.83337 5.83C6.70077 5.83 6.57359 5.88268 6.47982 5.97645C6.38605 6.07022 6.33337 6.19739 6.33337 6.33C6.33337 6.46261 6.38605 6.58979 6.47982 6.68355C6.57359 6.77732 6.70077 6.83 6.83337 6.83H7.66671C7.79932 6.83 7.92649 6.77732 8.02026 6.68355C8.11403 6.58979 8.16671 6.46261 8.16671 6.33C8.16671 6.19739 8.11403 6.07022 8.02026 5.97645C7.92649 5.88268 7.79932 5.83 7.66671 5.83H6.83337ZM6.83337 7.33C6.70077 7.33 6.57359 7.38268 6.47982 7.47645C6.38605 7.57022 6.33337 7.69739 6.33337 7.83C6.33337 7.96261 6.38605 8.08979 6.47982 8.18355C6.57359 8.27732 6.70077 8.33 6.83337 8.33H7.66671C7.79932 8.33 7.92649 8.27732 8.02026 8.18355C8.11403 8.08979 8.16671 7.96261 8.16671 7.83C8.16671 7.69739 8.11403 7.57022 8.02026 7.47645C7.92649 7.38268 7.79932 7.33 7.66671 7.33H6.83337ZM6.83337 9.16333C6.70077 9.16333 6.57359 9.21601 6.47982 9.30978C6.38605 9.40355 6.33337 9.53073 6.33337 9.66333C6.33337 9.79594 6.38605 9.92312 6.47982 10.0169C6.57359 10.1107 6.70077 10.1633 6.83337 10.1633H11.1667C11.2993 10.1633 11.4265 10.1107 11.5203 10.0169C11.614 9.92312 11.6667 9.79594 11.6667 9.66333C11.6667 9.53073 11.614 9.40355 11.5203 9.30978C11.4265 9.21601 11.2993 9.16333 11.1667 9.16333H6.83337Z" fill="currentColor"/>
<path d="M10.8867 1.83H7.11333C6.75667 1.83 6.46 1.83 6.21667 1.85C5.96333 1.87 5.726 1.91533 5.50133 2.03C5.1563 2.20578 4.87578 2.4863 4.7 2.83133C4.58533 3.056 4.54 3.29333 4.52 3.54667C4.5 3.79 4.5 4.08667 4.5 4.44333V11.1633H3C2.86739 11.1633 2.74021 11.216 2.64645 11.3098C2.55268 11.4035 2.5 11.5307 2.5 11.6633C2.5 12.7853 2.88133 13.45 3.36667 13.8133C3.63733 14.016 3.98933 14.1627 4.33267 14.1633H11.0987C11.57 14.1633 12.0667 14.1833 12.4987 13.9633C12.8436 13.7877 13.1241 13.5075 13.3 13.1627C13.4147 12.9373 13.46 12.7 13.48 12.4467C13.5 12.2033 13.5 11.9067 13.5 11.55V4.44333C13.5 4.08667 13.5 3.79 13.48 3.54667C13.46 3.29333 13.4147 3.056 13.3 2.83133C13.1244 2.4864 12.8441 2.20589 12.4993 2.03C12.274 1.91533 12.0367 1.87 11.7833 1.85C11.54 1.83 11.2433 1.83 10.8867 1.83ZM11.6147 13.1547C11.5007 13.131 11.3934 13.0828 11.3 13.0133C11.1187 12.8773 10.8333 12.5413 10.8333 11.6633C10.8333 11.5307 10.7807 11.4035 10.6869 11.3098C10.5931 11.216 10.4659 11.1633 10.3333 11.1633H5.5V4.46333C5.5 4.082 5.5 3.82533 5.51667 3.628C5.532 3.43667 5.56 3.34533 5.59067 3.28533C5.67061 3.12828 5.79828 3.00061 5.95533 2.92067C6.01533 2.89 6.10667 2.862 6.298 2.84667C6.49533 2.83067 6.75133 2.83 7.13333 2.83H10.8667C11.248 2.83 11.5047 2.83 11.7013 2.84667C11.8933 2.862 11.9847 2.89 12.0447 2.92067C12.202 3.00067 12.3293 3.128 12.4093 3.28533C12.44 3.34533 12.468 3.43667 12.4833 3.628C12.4993 3.82533 12.5 4.08133 12.5 4.46333V11.53C12.5 11.9113 12.5 12.168 12.4833 12.3647C12.468 12.5567 12.44 12.648 12.4093 12.708C12.3294 12.8651 12.2017 12.9927 12.0447 13.0727C11.95 13.1207 11.8473 13.144 11.6147 13.1547ZM4.34133 13.1633H4.33467L4.32933 13.162C4.19799 13.1433 4.07336 13.0922 3.96667 13.0133C3.82467 12.9067 3.61933 12.678 3.53667 12.1633H9.86133C9.908 12.566 10.0113 12.8953 10.1527 13.1633H4.34133Z" fill="currentColor"/>
</svg>
