<svg width="16" height="16" viewBox="0 0 16 16" fill="none" xmlns="http://www.w3.org/2000/svg">
<path d="M5.5 5.33334C5.5 5.20073 5.55268 5.07355 5.64645 4.97978C5.74022 4.88601 5.86739 4.83334 6 4.83334H10.6667C10.7993 4.83334 10.9265 4.88601 11.0202 4.97978C11.114 5.07355 11.1667 5.20073 11.1667 5.33334C11.1667 5.46594 11.114 5.59312 11.0202 5.68689C10.9265 5.78066 10.7993 5.83334 10.6667 5.83334H6C5.86739 5.83334 5.74022 5.78066 5.64645 5.68689C5.55268 5.59312 5.5 5.46594 5.5 5.33334ZM6 6.83334C5.86739 6.83334 5.74022 6.88601 5.64645 6.97978C5.55268 7.07355 5.5 7.20073 5.5 7.33334C5.5 7.46594 5.55268 7.59312 5.64645 7.68689C5.74022 7.78066 5.86739 7.83334 6 7.83334H9.33333C9.46594 7.83334 9.59312 7.78066 9.68689 7.68689C9.78065 7.59312 9.83333 7.46594 9.83333 7.33334C9.83333 7.20073 9.78065 7.07355 9.68689 6.97978C9.59312 6.88601 9.46594 6.83334 9.33333 6.83334H6Z" fill="currentColor"/>
<path fill-rule="evenodd" clip-rule="evenodd" d="M5.66667 2.16666C4.82681 2.16666 4.02136 2.50029 3.4275 3.09416C2.83363 3.68802 2.5 4.49348 2.5 5.33333V12C2.5 12.663 2.76339 13.2989 3.23223 13.7678C3.70107 14.2366 4.33696 14.5 5 14.5H12.3333C12.6428 14.5 12.9395 14.3771 13.1583 14.1583C13.3771 13.9395 13.5 13.6428 13.5 13.3333V3.33333C13.5 3.02391 13.3771 2.72717 13.1583 2.50837C12.9395 2.28958 12.6428 2.16666 12.3333 2.16666H5.66667ZM12.5 9.5V3.33333C12.5 3.28913 12.4824 3.24674 12.4512 3.21548C12.4199 3.18422 12.3775 3.16666 12.3333 3.16666H5.66667C5.09203 3.16666 4.54093 3.39494 4.1346 3.80127C3.72827 4.20759 3.5 4.7587 3.5 5.33333V10C3.93229 9.67457 4.45892 9.49903 5 9.5H12.5ZM12.5 10.5H5C4.60218 10.5 4.22064 10.658 3.93934 10.9393C3.65804 11.2206 3.5 11.6022 3.5 12C3.5 12.3978 3.65804 12.7794 3.93934 13.0607C4.22064 13.342 4.60218 13.5 5 13.5H12.3333C12.3775 13.5 12.4199 13.4824 12.4512 13.4512C12.4824 13.4199 12.5 13.3775 12.5 13.3333V10.5Z" fill="currentColor"/>
</svg>
