<svg width="12" height="12" viewBox="0 0 12 12" fill="none" xmlns="http://www.w3.org/2000/svg">
<path d="M2.22001 4.47001C2.36064 4.32956 2.55126 4.25067 2.75001 4.25067C2.94876 4.25067 3.13939 4.32956 3.28001 4.47001L6.00001 7.19001L8.72001 4.47001C8.86219 4.33753 9.05023 4.26541 9.24453 4.26884C9.43883 4.27226 9.62422 4.35098 9.76163 4.48839C9.89905 4.6258 9.97776 4.81119 9.98119 5.00549C9.98462 5.19979 9.91249 5.38784 9.78001 5.53001L6.53001 8.78001C6.38939 8.92046 6.19876 8.99935 6.00001 8.99935C5.80126 8.99935 5.61064 8.92046 5.47001 8.78001L2.22001 5.53001C2.07956 5.38939 2.00067 5.19876 2.00067 5.00001C2.00067 4.80126 2.07956 4.61064 2.22001 4.47001Z" fill="currentColor"/>
</svg>
