<svg width="16" height="16" viewBox="0 0 16 16" fill="none" xmlns="http://www.w3.org/2000/svg">
<path d="M13.3333 12C13.3333 13.4733 10.9453 14.6667 7.99996 14.6667C5.05463 14.6667 2.66663 13.4733 2.66663 12V9.31601C3.00129 9.72734 3.47663 10.0687 4.00529 10.3327C5.05329 10.8567 6.46663 11.1667 7.99996 11.1667C9.53329 11.1667 10.9466 10.8567 11.9946 10.3333C12.5233 10.0687 12.9986 9.72668 13.3333 9.31601V12Z" fill="currentColor"/>
<path d="M7.99996 7.16668C9.53329 7.16668 10.9466 6.85668 11.9946 6.33334C12.5233 6.06868 12.9986 5.72668 13.3333 5.31601V8.00001C13.3333 8.33334 12.1426 9.06068 11.5473 9.43868C10.6653 9.87934 9.41196 10.1667 7.99996 10.1667C6.58796 10.1667 5.33463 9.88001 4.45263 9.43868C3.66663 9.04534 2.66663 8.33334 2.66663 8.00001V5.31601C3.00129 5.72734 3.47663 6.06868 4.00529 6.33268C5.05329 6.85668 6.46663 7.16668 7.99996 7.16668Z" fill="currentColor"/>
<path d="M11.5474 5.43868C10.6654 5.87934 9.41204 6.16668 8.00004 6.16668C6.58804 6.16668 5.33471 5.88001 4.45271 5.43868C4.10937 5.30401 3.33737 4.87668 2.80137 4.18601C2.75577 4.1282 2.72263 4.06157 2.70404 3.99031C2.68545 3.91906 2.68182 3.84473 2.69337 3.77201C2.70871 3.67334 2.73004 3.57134 2.75737 3.50801C3.21871 2.27068 5.39071 1.33334 8.00004 1.33334C10.6094 1.33334 12.7814 2.27068 13.2427 3.50801C13.27 3.57134 13.2914 3.67334 13.3067 3.77201C13.3183 3.84473 13.3146 3.91906 13.296 3.99031C13.2775 4.06157 13.2443 4.1282 13.1987 4.18601C12.6627 4.87668 11.8907 5.30401 11.5474 5.43868Z" fill="currentColor"/>
</svg>
