<svg width="16" height="16" viewBox="0 0 16 16" fill="none" xmlns="http://www.w3.org/2000/svg">
<path fill-rule="evenodd" clip-rule="evenodd" d="M8.6856 7.62869H7.23853V6.33519H8.6856V7.62869ZM8.6856 3.15625H7.23853V4.49359H8.6856V3.15625ZM10.3958 6.33519H8.94869V7.62869H10.3958V6.33519ZM6.97544 4.75669H5.52838V6.07211H6.97544V4.75669ZM8.6856 4.75669H7.23853V6.07211H8.6856V4.75669ZM14.7588 6.94905C14.4519 6.72983 13.7064 6.66405 13.1583 6.77366C13.0925 6.2475 12.7856 5.78709 12.2594 5.37053L11.9524 5.17323L11.7551 5.48017C11.3605 6.09403 11.2508 7.10252 11.6674 7.76023C11.4701 7.86984 11.0973 8.00139 10.615 8.00139H1.05564C0.858315 9.11952 1.18721 10.5665 2.02035 11.553C2.8316 12.5177 4.05939 13 5.63802 13C9.08024 13 11.6455 11.4215 12.8294 8.52756C13.2899 8.52756 14.3203 8.52756 14.8246 7.541C14.8465 7.49714 14.9781 7.256 15 7.1683L14.7588 6.94905ZM3.55513 6.33519H2.10806V7.62869H3.55513V6.33519ZM5.26528 6.33519H3.81822V7.62869H5.26528V6.33519ZM6.97544 6.33519H5.52838V7.62869H6.97544V6.33519ZM5.26528 4.75669H3.81822V6.07211H5.26528V4.75669Z" fill="currentColor"/>
</svg>
