<svg width="16" height="16" viewBox="0 0 16 16" fill="none" xmlns="http://www.w3.org/2000/svg">
<g clip-path="url(#clip0_448_79)">
<path d="M15.6973 7.28665L8.71133 0.301315C8.51766 0.108348 8.2554 0 7.982 0C7.7086 0 7.44634 0.108348 7.25267 0.301315L5.80533 1.75132L7.64533 3.59132C7.86242 3.51777 8.09578 3.50659 8.3189 3.55904C8.54202 3.61149 8.74596 3.72546 8.90754 3.88802C9.06912 4.05058 9.18188 4.25519 9.23298 4.47862C9.28409 4.70206 9.27151 4.93534 9.19667 5.15198L10.9687 6.92531C11.2309 6.83413 11.5164 6.83471 11.7782 6.92697C12.0401 7.01922 12.2629 7.19768 12.4101 7.4331C12.5573 7.66853 12.6201 7.94696 12.5884 8.22279C12.5566 8.49862 12.4322 8.75549 12.2353 8.95132C12.1216 9.06524 11.9865 9.15563 11.8378 9.2173C11.6891 9.27897 11.5297 9.31071 11.3687 9.31071C11.2077 9.31071 11.0483 9.27897 10.8996 9.2173C10.7508 9.15563 10.6157 9.06524 10.502 8.95132C10.3318 8.78019 10.2156 8.5629 10.1678 8.32638C10.1199 8.08985 10.1425 7.84447 10.2327 7.62065L8.57333 5.96998V10.32C8.69067 10.3773 8.80133 10.4553 8.89867 10.552C9.12666 10.7828 9.2545 11.0942 9.2545 11.4186C9.2545 11.7431 9.12666 12.0545 8.89867 12.2853C8.7845 12.3996 8.64893 12.4902 8.49971 12.5521C8.35048 12.6139 8.19053 12.6458 8.029 12.6458C7.86747 12.6458 7.70752 12.6139 7.5583 12.5521C7.40907 12.4902 7.2735 12.3996 7.15933 12.2853C7.04537 12.1717 6.95494 12.0368 6.89324 11.8882C6.83154 11.7395 6.79978 11.5802 6.79978 11.4193C6.79978 11.2584 6.83154 11.0991 6.89324 10.9505C6.95494 10.8019 7.04537 10.6669 7.15933 10.5533C7.28067 10.4333 7.41733 10.3426 7.56267 10.2826V5.88998C7.41301 5.8288 7.27697 5.73855 7.16243 5.62444C7.04789 5.51034 6.95711 5.37465 6.89536 5.22522C6.83361 5.0758 6.8021 4.91562 6.80267 4.75394C6.80324 4.59226 6.83587 4.4323 6.89867 4.28332L5.09067 2.46665L0.3 7.25398C-0.1 7.65731 -0.1 8.30998 0.3 8.71331L7.28667 15.698C7.38232 15.7937 7.49591 15.8697 7.62094 15.9215C7.74597 15.9733 7.87999 16 8.01533 16C8.15068 16 8.28469 15.9733 8.40972 15.9215C8.53475 15.8697 8.64834 15.7937 8.744 15.698L15.6973 8.74465C15.7933 8.64902 15.8694 8.53541 15.9213 8.41031C15.9732 8.28521 16 8.1511 16 8.01565C16 7.8802 15.9732 7.74608 15.9213 7.62099C15.8694 7.49589 15.7933 7.38227 15.6973 7.28665Z" fill="currentColor"/>
</g>
<defs>
<clipPath id="clip0_448_79">
<rect width="16" height="16" fill="white"/>
</clipPath>
</defs>
</svg>
