<svg width="16" height="16" viewBox="0 0 16 16" fill="none" xmlns="http://www.w3.org/2000/svg">
<path d="M8.00065 1.33334C4.31732 1.33334 1.33399 4.31668 1.33399 8.00001C1.33278 9.39954 1.77249 10.7639 2.59069 11.8993C3.40889 13.0348 4.56399 13.8836 5.89199 14.3253C6.22532 14.3833 6.35065 14.1833 6.35065 14.008C6.35065 13.85 6.34199 13.3253 6.34199 12.7667C4.66732 13.0753 4.23399 12.3587 4.10065 11.9833C4.02532 11.7913 3.70065 11.2 3.41732 11.0413C3.18399 10.9167 2.85065 10.608 3.40865 10.6C3.93399 10.5913 4.30865 11.0833 4.43399 11.2833C5.03399 12.2913 5.99199 12.008 6.37532 11.8333C6.43399 11.4 6.60865 11.1087 6.80065 10.942C5.31732 10.7753 3.76732 10.2 3.76732 7.65001C3.76732 6.92468 4.02532 6.32534 4.45065 5.85868C4.38399 5.69201 4.15065 5.00868 4.51732 4.09201C4.51732 4.09201 5.07532 3.91668 6.35065 4.77468C6.89343 4.62444 7.45414 4.54885 8.01732 4.55001C8.58399 4.55001 9.15065 4.62468 9.68399 4.77468C10.9593 3.90801 11.5173 4.09201 11.5173 4.09201C11.884 5.00868 11.6507 5.69201 11.584 5.85868C12.0087 6.32534 12.2673 6.91668 12.2673 7.65001C12.2673 10.2087 10.7093 10.7753 9.22599 10.942C9.46732 11.15 9.67599 11.55 9.67599 12.1753C9.67599 13.0667 9.66732 13.7833 9.66732 14.0087C9.66732 14.1833 9.79265 14.3913 10.126 14.3247C11.449 13.8774 12.5986 13.0267 13.413 11.8923C14.2275 10.7578 14.6659 9.39658 14.6667 8.00001C14.6667 4.31668 11.6833 1.33334 7.99999 1.33334" fill="black"/>
</svg>
