<svg width="59" height="58" viewBox="0 0 59 58" fill="none" xmlns="http://www.w3.org/2000/svg">
<g style="mix-blend-mode:darken">
<path d="M15.7778 1.55682C16.7069 0.638126 17.9587 0.119616 19.2653 0.112266L39.2093 7.92121e-05C40.5352 -0.00737938 41.8099 0.512155 42.7528 1.44441L56.696 15.2299C57.653 16.1761 58.1882 17.4681 58.1805 18.8139L58.069 38.421C58.0615 39.747 57.5275 41.0156 56.5847 41.948L42.4028 55.9712C41.4737 56.8899 40.2219 57.4084 38.9153 57.4157L18.9713 57.5279C17.6454 57.5354 16.3708 57.0158 15.4278 56.0836L1.48464 42.2981C0.527611 41.3519 -0.00757521 40.0599 8.10301e-05 38.7141L0.111627 19.107C0.11917 17.781 0.653093 16.5123 1.59596 15.58L15.7778 1.55682Z" fill="#1E3A8A"/>
</g>
<path d="M10.352 34.968C9.856 34.84 9.424 34.728 9.056 34.632C8.688 34.52 8.28 34.288 7.832 33.936C7.288 33.616 6.848 33.36 6.512 33.168C6.192 32.96 5.88 32.64 5.576 32.208L4.784 31.248L4.52 29.976C4.648 29.944 4.768 29.904 4.88 29.856C5.008 29.792 5.08 29.752 5.096 29.736C5.288 29.64 5.48 29.528 5.672 29.4C5.88 29.256 6.152 29.072 6.488 28.848C6.824 28.624 7.296 28.344 7.904 28.008C8.656 27.624 9.296 27.272 9.824 26.952C10.368 26.632 10.72 26.392 10.88 26.232C10.976 26.12 11.088 26.048 11.216 26.016C11.344 25.968 11.44 25.944 11.504 25.944C11.6 25.912 11.752 25.984 11.96 26.16C12.168 26.32 12.304 26.424 12.368 26.472C12.544 26.584 12.672 26.664 12.752 26.712C12.832 26.76 12.88 26.848 12.896 26.976C12.896 26.976 12.872 27.048 12.824 27.192C12.792 27.336 12.72 27.456 12.608 27.552C12.4 27.728 12.112 27.912 11.744 28.104C11.392 28.296 10.952 28.528 10.424 28.8C9.912 29.056 9.304 29.4 8.6 29.832C8.168 30.088 7.84 30.272 7.616 30.384C7.392 30.48 7.248 30.568 7.184 30.648C7.12 30.728 7.104 30.872 7.136 31.08C7.408 31.4 7.848 31.728 8.456 32.064C9.08 32.384 9.992 32.728 11.192 33.096C11.784 33.272 12.224 33.448 12.512 33.624C12.816 33.8 13.008 33.976 13.088 34.152C13.168 34.328 13.192 34.52 13.16 34.728C13.08 34.872 12.88 34.992 12.56 35.088C12.24 35.168 11.872 35.208 11.456 35.208C11.056 35.192 10.688 35.112 10.352 34.968ZM24.7829 37.488C24.5749 37.504 24.3829 37.456 24.2069 37.344C24.0469 37.248 23.9349 37.12 23.8709 36.96C23.8069 36.88 23.7029 36.704 23.5589 36.432C23.4149 36.176 23.3269 35.952 23.2949 35.76C23.2469 35.248 23.2149 34.752 23.1989 34.272C23.1989 33.792 23.2229 33.12 23.2709 32.256C23.3189 31.552 23.4149 30.928 23.5589 30.384C23.7029 29.824 23.8469 29.352 23.9909 28.968C24.1349 28.568 24.2469 28.272 24.3269 28.08C24.4069 27.872 24.4229 27.768 24.3749 27.768C24.3109 27.768 24.2389 27.832 24.1589 27.96C24.0949 28.072 24.0149 28.224 23.9189 28.416C23.8389 28.608 23.7429 28.816 23.6309 29.04C23.5349 29.264 23.4309 29.48 23.3189 29.688C23.0949 30.184 22.8309 30.712 22.5269 31.272C22.2389 31.816 21.9429 32.344 21.6389 32.856C21.3349 33.368 21.0709 33.816 20.8469 34.2C20.7029 34.36 20.5349 34.592 20.3429 34.896C20.1509 35.184 19.9429 35.488 19.7189 35.808C19.4949 36.128 19.2629 36.392 19.0229 36.6C18.6709 36.936 18.3109 37.136 17.9429 37.2C17.5749 37.28 17.2309 37.24 16.9109 37.08C16.7509 37.064 16.5829 36.976 16.4069 36.816C16.2309 36.672 16.0869 36.488 15.9749 36.264C15.8789 36.04 15.8549 35.832 15.9029 35.64C15.8869 35.416 15.8869 35.072 15.9029 34.608C15.9349 34.128 15.9829 33.608 16.0469 33.048C16.1109 32.472 16.1749 31.92 16.2389 31.392C16.3189 30.864 16.3909 30.424 16.4549 30.072C16.5989 29.048 16.7909 28 17.0309 26.928C17.2869 25.856 17.5189 24.776 17.7269 23.688C17.8549 23.368 17.9669 23.008 18.0629 22.608C18.1749 22.192 18.2869 21.808 18.3989 21.456C18.4149 21.104 18.5429 20.888 18.7829 20.808C19.0229 20.712 19.2789 20.696 19.5509 20.76C19.8389 20.824 20.0389 20.936 20.1509 21.096C20.3109 21.256 20.4629 21.504 20.6069 21.84C20.7509 22.176 20.7109 22.6 20.4869 23.112C20.1669 23.896 19.8549 24.856 19.5509 25.992C19.2629 27.112 18.9989 28.472 18.7589 30.072C18.6949 30.456 18.6229 30.888 18.5429 31.368C18.4789 31.832 18.4149 32.28 18.3509 32.712C18.3029 33.144 18.2629 33.504 18.2309 33.792C18.2149 34.064 18.2229 34.208 18.2549 34.224C18.3829 34.256 18.5189 34.184 18.6629 34.008C18.8229 33.832 18.9909 33.552 19.1669 33.168C19.8229 32.08 20.4389 31 21.0149 29.928C21.6069 28.856 22.1989 27.736 22.7909 26.568C23.0629 26.104 23.3349 25.6 23.6069 25.056C23.8949 24.496 24.1669 23.984 24.4229 23.52C24.6949 23.04 24.9589 22.576 25.2149 22.128C25.4709 21.68 25.6949 21.304 25.8869 21C26.0789 20.68 26.2229 20.504 26.3189 20.472C26.7509 20.472 27.0709 20.584 27.2789 20.808C27.5029 21.032 27.6789 21.304 27.8069 21.624C27.8389 21.704 27.8549 21.84 27.8549 22.032C27.8709 22.224 27.8469 22.392 27.7829 22.536C27.7669 22.648 27.6949 22.88 27.5669 23.232C27.4549 23.584 27.3509 23.976 27.2549 24.408C27.0949 24.84 26.9509 25.272 26.8229 25.704C26.7109 26.12 26.6309 26.464 26.5829 26.736C26.4549 27.424 26.2949 28.176 26.1029 28.992C25.9109 29.808 25.7429 30.624 25.5989 31.44C25.4709 32.24 25.3989 32.952 25.3829 33.576C25.3669 34.024 25.3669 34.32 25.3829 34.464C25.4149 34.592 25.4629 34.728 25.5269 34.872C25.5589 35 25.6309 35.032 25.7429 34.968C25.8549 34.904 25.9669 34.792 26.0789 34.632C26.3029 34.296 26.4709 34.008 26.5829 33.768C26.7109 33.528 26.8389 33.272 26.9669 33C27.0949 32.712 27.2709 32.352 27.4949 31.92C27.8949 31.184 28.3029 30.376 28.7189 29.496C29.1509 28.616 29.5589 27.744 29.9429 26.88C30.3429 26.016 30.6869 25.248 30.9749 24.576C31.2789 23.712 31.5349 23.016 31.7429 22.488C31.9509 21.944 32.1429 21.528 32.3189 21.24C32.4949 20.952 32.6629 20.76 32.8229 20.664C32.9029 20.6 33.0709 20.568 33.3269 20.568C33.5989 20.568 33.8069 20.632 33.9509 20.76C34.0149 20.824 34.1269 20.928 34.2869 21.072C34.4469 21.216 34.5189 21.384 34.5029 21.576C34.4229 21.832 34.2709 22.248 34.0469 22.824C33.8389 23.4 33.5909 24.04 33.3029 24.744C33.0309 25.432 32.7589 26.096 32.4869 26.736C32.2309 27.36 32.0149 27.856 31.8389 28.224C31.6629 28.56 31.4949 28.848 31.3349 29.088C31.1749 29.328 31.0949 29.512 31.0949 29.64C31.0949 29.704 31.0149 29.904 30.8549 30.24C30.6949 30.56 30.4869 30.952 30.2309 31.416C29.9909 31.88 29.7269 32.36 29.4389 32.856C29.1509 33.352 28.8789 33.808 28.6229 34.224C28.3669 34.64 28.1509 34.96 27.9749 35.184C27.5749 35.68 27.1429 36.096 26.6789 36.432C26.2309 36.784 25.8309 37.048 25.4789 37.224C25.1269 37.4 24.8949 37.488 24.7829 37.488ZM37.6929 38.76C37.2129 38.776 36.8609 38.528 36.6369 38.016C36.4289 37.52 36.5489 36.736 36.9969 35.664C37.0929 35.488 37.1809 35.312 37.2609 35.136C37.3569 34.96 37.4129 34.816 37.4289 34.704C37.4769 34.592 37.5809 34.376 37.7409 34.056C37.9009 33.72 38.1009 33.32 38.3409 32.856C38.5809 32.392 38.8289 31.912 39.0849 31.416C39.3569 30.92 39.6049 30.456 39.8289 30.024C40.0689 29.576 40.2689 29.208 40.4289 28.92C40.5889 28.632 40.6849 28.464 40.7169 28.416C40.7969 28.432 40.8689 28.392 40.9329 28.296C40.9969 28.184 41.0369 28.072 41.0529 27.96C41.0849 27.816 41.1409 27.672 41.2209 27.528C41.3009 27.384 41.3809 27.296 41.4609 27.264C41.4769 27.184 41.5089 27.096 41.5569 27C41.6049 26.904 41.6369 26.824 41.6529 26.76C41.6689 26.696 41.7009 26.64 41.7489 26.592C41.7969 26.528 41.8209 26.464 41.8209 26.4C41.9489 26.24 42.1409 25.944 42.3969 25.512C42.6689 25.08 42.9729 24.576 43.3089 24C43.6449 23.408 43.9889 22.8 44.3409 22.176C44.6929 21.536 45.0209 20.936 45.3249 20.376C45.6289 19.816 45.8769 19.352 46.0689 18.984C46.2609 18.6 46.3649 18.376 46.3809 18.312C46.3969 18.072 46.5489 17.976 46.8369 18.024C46.9489 17.944 47.0769 17.92 47.2209 17.952C47.2209 17.952 47.3009 18.04 47.4609 18.216C47.6369 18.376 47.7809 18.536 47.8929 18.696C48.0209 18.824 48.0769 18.96 48.0609 19.104C48.0609 19.248 48.0369 19.408 47.9889 19.584C47.9569 19.792 47.9009 19.976 47.8209 20.136C47.7569 20.296 47.6209 20.512 47.4129 20.784C47.2209 21.056 46.9249 21.48 46.5249 22.056C46.4289 22.2 46.2769 22.44 46.0689 22.776C45.8769 23.112 45.6689 23.464 45.4449 23.832C45.2369 24.2 45.0609 24.52 44.9169 24.792C44.7729 25.064 44.7009 25.216 44.7009 25.248C44.6849 25.312 44.6289 25.408 44.5329 25.536C44.4529 25.648 44.3729 25.8 44.2929 25.992C44.1969 26.104 44.0689 26.28 43.9089 26.52C43.7649 26.744 43.6129 26.984 43.4529 27.24C43.2929 27.48 43.1489 27.696 43.0209 27.888C42.9089 28.064 42.8529 28.168 42.8529 28.2C42.8369 28.248 42.8129 28.304 42.7809 28.368C42.7649 28.432 42.7169 28.488 42.6369 28.536C42.5889 28.52 42.5489 28.56 42.5169 28.656C42.4849 28.736 42.4689 28.776 42.4689 28.776C42.5009 28.904 42.3089 29.304 41.8929 29.976C41.7329 30.312 41.5169 30.752 41.2449 31.296C40.9729 31.84 40.6769 32.424 40.3569 33.048C40.0529 33.672 39.7569 34.28 39.4689 34.872C39.1809 35.464 38.9409 35.984 38.7489 36.432C38.5569 36.88 38.4449 37.192 38.4129 37.368C38.3489 37.736 38.2449 38.048 38.1009 38.304C37.9569 38.56 37.8209 38.712 37.6929 38.76ZM48.4708 35.52C48.3748 35.552 48.2228 35.488 48.0148 35.328C47.8228 35.152 47.6868 35.04 47.6068 34.992C47.4468 34.864 47.3268 34.784 47.2467 34.752C47.1668 34.704 47.1108 34.616 47.0788 34.488C47.0788 34.488 47.0948 34.416 47.1268 34.272C47.1748 34.128 47.2548 34.008 47.3668 33.912C47.5908 33.72 47.8788 33.536 48.2308 33.36C48.5988 33.168 49.0388 32.936 49.5508 32.664C50.0788 32.392 50.6868 32.048 51.3748 31.632C51.8068 31.36 52.1348 31.176 52.3588 31.08C52.5828 30.984 52.7268 30.896 52.7908 30.816C52.8548 30.736 52.8708 30.592 52.8388 30.384C52.5668 30.064 52.1188 29.744 51.4948 29.424C50.8868 29.088 49.9828 28.736 48.7828 28.368C48.1908 28.176 47.7508 28 47.4628 27.84C47.1748 27.664 46.9828 27.488 46.8867 27.312C46.8068 27.136 46.7828 26.944 46.8148 26.736C46.8948 26.592 47.0948 26.48 47.4148 26.4C47.7348 26.304 48.0948 26.256 48.4948 26.256C48.9108 26.256 49.2868 26.336 49.6228 26.496C50.1188 26.624 50.5508 26.744 50.9188 26.856C51.2868 26.952 51.6948 27.176 52.1428 27.528C52.6868 27.832 53.1188 28.088 53.4388 28.296C53.7748 28.504 54.0948 28.824 54.3988 29.256L55.1908 30.216L55.4548 31.488C55.3268 31.504 55.2068 31.544 55.0948 31.608C54.9828 31.672 54.9108 31.712 54.8788 31.728C54.6868 31.824 54.4868 31.944 54.2788 32.088C54.0868 32.216 53.8228 32.392 53.4868 32.616C53.1508 32.824 52.6788 33.104 52.0708 33.456C51.3348 33.84 50.6948 34.192 50.1508 34.512C49.6068 34.832 49.2548 35.072 49.0948 35.232C48.9988 35.344 48.8868 35.424 48.7588 35.472C48.6468 35.504 48.5508 35.52 48.4708 35.52Z" fill="#F9FAFB"/>
</svg>
