<svg width="427" height="64" viewBox="0 0 427 64" fill="none" xmlns="http://www.w3.org/2000/svg">
<path d="M108.84 17.216C109.907 17.216 110.867 17.856 111.72 19.136C112.616 20.416 113.064 21.4827 113.064 22.336C113.064 23.1467 112.509 23.8293 111.4 24.384C107.987 25.9627 103.891 28.2453 99.112 31.232C94.376 34.2187 92.008 36.1173 92.008 36.928C92.008 37.7387 92.84 38.8267 94.504 40.192C96.2107 41.5573 98.088 42.8587 100.136 44.096C105.555 47.4667 108.264 49.8133 108.264 51.136C108.264 52.416 107.283 53.056 105.32 53.056C103.4 53.056 100.563 52.2027 96.808 50.496C93.0533 48.7893 89.576 46.72 86.376 44.288C83.2187 41.856 81.64 39.7867 81.64 38.08C81.64 37.2267 81.832 36.0747 82.216 34.624C82.6 33.1733 83.048 32.2347 83.56 31.808C86.2907 29.3333 90.5573 26.2827 96.36 22.656C102.205 19.0293 106.365 17.216 108.84 17.216Z" fill="#1E3A8A"/>
<path d="M112.207 42.816C112.207 41.664 112.314 40.8533 112.527 40.384C112.783 39.9147 113.21 39.68 113.807 39.68C114.447 39.68 115.279 40.2773 116.303 41.472C117.327 42.6667 118.479 43.8613 119.759 45.056C121.082 46.2507 122.383 46.848 123.663 46.848C124.644 46.848 125.626 45.4827 126.607 42.752C127.588 40.0213 128.634 36.5227 129.743 32.256C130.852 27.9467 131.556 25.0667 131.855 23.616C132.538 20.2453 133.028 18.1973 133.327 17.472C132.175 17.728 130.255 18.048 127.567 18.432C124.922 18.7733 123.151 18.944 122.255 18.944C121.359 18.944 120.634 18.6667 120.079 18.112C119.524 17.5573 119.247 16.896 119.247 16.128C119.247 14.592 120.868 13.2053 124.111 11.968C127.396 10.7307 130.66 9.87733 133.903 9.408C137.188 8.896 139.45 8.64 140.687 8.64C143.076 8.64 144.271 9.408 144.271 10.944C144.271 11.584 143.503 14.2507 141.967 18.944C140.431 23.6373 139.492 26.7093 139.151 28.16C136.847 37.9307 135.119 44.2453 133.967 47.104C132.175 51.584 129.871 54.1867 127.055 54.912C126.372 55.0827 125.69 55.168 125.007 55.168C121.978 55.168 119.076 53.7173 116.303 50.816C113.572 47.872 112.207 45.2053 112.207 42.816Z" fill="#1E3A8A"/>
<path d="M166.564 23.808C166.905 22.7413 167.588 22.208 168.612 22.208C169.636 22.208 170.809 23.0827 172.132 24.832C173.497 26.5813 174.18 28.096 174.18 29.376C174.18 29.8453 173.199 32.9813 171.236 38.784C169.273 44.5867 167.759 49.1733 166.692 52.544C166.095 54.336 165.092 55.232 163.684 55.232C162.831 55.232 162.105 54.9333 161.508 54.336C160.953 53.696 160.676 52.7147 160.676 51.392C160.676 50.0693 160.932 48.192 161.444 45.76C157.049 52.0747 153.551 55.232 150.948 55.232C149.583 55.232 147.94 54.3573 146.02 52.608C144.1 50.816 143.14 49.088 143.14 47.424C143.14 43.328 144.292 38.1013 146.596 31.744C148.943 25.3867 151.14 22.208 153.188 22.208C154.425 22.208 155.513 22.7627 156.452 23.872C157.433 24.9813 157.924 26.1973 157.924 27.52C157.924 28.032 157.391 29.4613 156.324 31.808C153.081 38.848 151.46 43.8187 151.46 46.72C151.46 46.976 151.567 47.104 151.78 47.104C152.42 47.104 153.615 46.1013 155.364 44.096C157.156 42.048 159.14 39.1467 161.316 35.392C163.535 31.5947 165.284 27.7333 166.564 23.808Z" fill="#1E3A8A"/>
<path d="M195.641 22.272C197.262 22.272 198.862 23.232 200.441 25.152C202.02 27.072 202.809 28.8 202.809 30.336C202.809 31.36 202.361 31.872 201.465 31.872C200.953 31.872 200.206 31.68 199.225 31.296C198.244 30.8693 197.241 30.656 196.217 30.656C195.236 30.656 193.764 30.9973 191.801 31.68C189.881 32.3627 188.921 33.2587 188.921 34.368C188.921 34.7947 189.497 35.4133 190.649 36.224C191.801 37.0347 193.06 37.8667 194.425 38.72C195.79 39.5733 197.049 40.768 198.201 42.304C199.353 43.7973 199.929 45.44 199.929 47.232C199.929 48.9813 198.628 50.752 196.025 52.544C193.465 54.336 190.436 55.232 186.937 55.232C183.481 55.232 180.516 54.4427 178.041 52.864C175.566 51.2853 174.329 49.664 174.329 48C174.329 46.336 175.012 45.504 176.377 45.504C176.932 45.504 177.593 45.7173 178.361 46.144C180.494 47.3813 183.14 48 186.297 48C189.497 48 191.097 47.5733 191.097 46.72C191.097 45.8667 190.478 44.928 189.241 43.904C188.046 42.8373 186.724 41.856 185.273 40.96C183.865 40.064 182.542 38.976 181.305 37.696C180.11 36.3733 179.513 35.0933 179.513 33.856C179.513 31.552 181.604 29.056 185.785 26.368C189.966 23.6373 193.252 22.272 195.641 22.272Z" fill="#1E3A8A"/>
<path d="M221.676 29.824C221.335 30.976 220.823 32.5973 220.14 34.688C219.5 36.736 218.689 39.3173 217.708 42.432C216.769 45.5467 216.3 47.2107 216.3 47.424C216.3 47.5947 216.641 47.68 217.324 47.68C218.049 47.68 219.735 47.2107 222.38 46.272C225.025 45.2907 226.583 44.8 227.052 44.8C228.119 44.8 228.652 45.5253 228.652 46.976C228.652 48.4267 227.223 50.176 224.364 52.224C221.505 54.2293 218.519 55.232 215.404 55.232C214.039 55.232 212.417 54.4853 210.54 52.992C208.663 51.4987 207.724 49.984 207.724 48.448C207.724 47.168 208.364 44.48 209.644 40.384C210.967 36.2453 211.863 33.408 212.332 31.872C210.668 32.3413 209.409 32.576 208.556 32.576C207.703 32.576 206.807 32 205.868 30.848C204.929 29.6533 204.46 28.5227 204.46 27.456C204.46 26.0907 207.767 24.9387 214.38 24C215.191 20.032 215.596 16.5973 215.596 13.696C215.596 12.416 216.236 11.776 217.516 11.776C218.625 11.776 220.033 12.4587 221.74 13.824C223.489 15.1467 224.364 16.4693 224.364 17.792C224.364 19.072 224.087 20.8853 223.532 23.232C225.58 23.1467 227.137 23.104 228.204 23.104C231.404 23.104 233.004 23.8293 233.004 25.28C233.004 26.2187 232.065 27.0293 230.188 27.712C228.353 28.352 225.516 29.056 221.676 29.824Z" fill="#1E3A8A"/>
<path d="M242.167 55.168C241.314 55.168 240.076 54.5067 238.455 53.184C236.876 51.8187 236.087 50.4747 236.087 49.152C236.087 46.0373 236.535 40.6613 237.431 33.024C238.327 25.3867 238.775 18.048 238.775 11.008C238.775 9.216 239.33 8.32 240.439 8.32C241.975 8.32 243.81 9.17333 245.943 10.88C248.119 12.5867 249.207 14.2933 249.207 16C249.207 16.5973 248.503 20.2453 247.095 26.944C245.687 33.6 244.876 38.9547 244.663 43.008C246.711 38.8693 249.122 35.4133 251.895 32.64C254.711 29.8667 257.015 28.48 258.807 28.48C260.087 28.48 260.919 31.3173 261.303 36.992C261.474 39.1253 261.815 41.088 262.327 42.88C262.839 44.6293 263.543 45.504 264.439 45.504C266.103 45.504 267.575 43.7333 268.855 40.192C270.178 36.608 270.839 32.9173 270.839 29.12C270.839 20.8853 268.578 16.768 264.055 16.768C262.732 16.768 261.495 16.0853 260.343 14.72C259.234 13.3547 258.679 12.1387 258.679 11.072C258.679 9.152 259.852 8.192 262.199 8.192C265.356 8.192 268.108 8.78933 270.455 9.984C272.844 11.136 274.7 12.736 276.023 14.784C278.668 18.8373 279.991 23.8293 279.991 29.76C279.991 33.7707 279.287 37.7387 277.879 41.664C276.471 45.5467 274.508 48.768 271.991 51.328C269.516 53.888 266.871 55.168 264.055 55.168C258.85 55.168 255.884 50.752 255.159 41.92L253.175 44.736C248.482 51.6907 244.812 55.168 242.167 55.168Z" fill="#1E3A8A"/>
<path d="M293.249 48.704C295.553 47.68 297.558 45.6107 299.265 42.496C300.972 39.3813 301.825 36.4587 301.825 33.728C301.825 30.9973 301.441 29.12 300.673 28.096C298.838 29.1627 297.004 31.4027 295.169 34.816C293.377 38.2293 292.481 41.2373 292.481 43.84C292.481 46.4 292.737 48.0213 293.249 48.704ZM283.905 44.48C283.905 39.1467 285.548 34.0907 288.833 29.312C292.161 24.5333 295.446 22.144 298.689 22.144C301.932 22.144 304.662 23.296 306.881 25.6C309.1 27.8613 310.209 30.6133 310.209 33.856C310.209 37.056 309.441 40.32 307.905 43.648C306.369 46.976 304.214 49.7493 301.441 51.968C298.668 54.144 295.702 55.232 292.545 55.232C290.198 55.232 288.172 54.1867 286.465 52.096C284.758 50.0053 283.905 47.4667 283.905 44.48Z" fill="#1E3A8A"/>
<path d="M336.965 22.208C339.183 22.208 341.125 23.2107 342.789 25.216C344.495 27.1787 345.349 29.2907 345.349 31.552C345.349 35.1787 344.751 38.976 343.556 42.944C342.404 46.8693 341.124 49.8987 339.716 52.032C338.351 54.1653 336.943 55.232 335.492 55.232C334.084 55.232 333.38 54.2293 333.38 52.224C333.38 50.688 334.084 47.5947 335.492 42.944C336.559 39.104 337.092 36.352 337.092 34.688C337.092 33.024 336.879 32.192 336.453 32.192C335.898 32.192 335.343 32.4693 334.789 33.024C334.277 33.5787 333.85 34.0693 333.509 34.496C333.167 34.9227 332.762 35.4773 332.293 36.16C331.866 36.8 331.482 37.3973 331.141 37.952C330.842 38.464 330.436 39.1467 329.924 40C329.455 40.8107 329.071 41.4933 328.772 42.048C328.474 42.56 328.09 43.2427 327.621 44.096C323.653 51.52 320.538 55.232 318.276 55.232C317.38 55.232 316.25 54.464 314.884 52.928C313.519 51.3493 312.836 50.1973 312.836 49.472C312.836 49.0027 313.135 48 313.733 46.464C314.373 44.8853 314.821 43.6907 315.077 42.88C315.375 42.0267 315.61 41.1307 315.78 40.192C315.994 39.2533 316.165 38.2507 316.293 37.184C316.421 36.0747 316.506 35.2213 316.548 34.624C316.634 34.0267 316.719 33.088 316.805 31.808C317.189 26.2613 317.508 23.1893 317.764 22.592C318.063 21.9947 318.383 21.696 318.724 21.696C320.346 21.696 321.903 22.3787 323.397 23.744C324.89 25.0667 325.637 26.2827 325.637 27.392C325.637 30.0373 324.954 33.8347 323.589 38.784C326.362 33.92 328.879 29.952 331.141 26.88C333.445 23.7653 335.386 22.208 336.965 22.208Z" fill="#1E3A8A"/>
<path d="M376.547 61.12C375.608 61.12 374.542 60.3733 373.347 58.88C372.152 57.3867 371.555 56.0427 371.555 54.848C371.555 53.6533 372.771 49.8133 375.203 43.328C377.678 36.8427 380.622 29.3547 384.035 20.864C387.448 12.3307 389.454 7.21067 390.051 5.504C390.648 3.79733 390.99 2.816 391.075 2.56C391.288 1.87733 391.48 1.51466 391.651 1.472C392.035 1.25866 392.376 1.152 392.675 1.152C393.528 1.152 394.766 2.176 396.387 4.224C398.008 6.272 398.819 7.97866 398.819 9.344C398.819 10.624 398.35 12.416 397.411 14.72C396.515 17.024 395.704 19.008 394.979 20.672C391.907 27.7973 389.582 33.3227 388.003 37.248C381.432 53.1627 377.614 61.12 376.547 61.12Z" fill="#1E3A8A"/>
<path d="M398.194 18.816C398.194 17.7067 398.684 17.152 399.665 17.152C403.505 17.152 407.666 18.4747 412.146 21.12C416.626 23.7227 420.444 26.6027 423.602 29.76C425.394 31.552 426.289 33.024 426.289 34.176C426.289 35.7973 425.458 37.3973 423.794 38.976C422.13 40.5547 419.036 42.7733 414.513 45.632C409.991 48.4907 406.642 50.432 404.466 51.456C402.29 52.48 400.305 52.992 398.513 52.992C396.764 52.992 395.889 52.2453 395.889 50.752C395.889 49.6853 396.978 48.256 399.154 46.464C401.372 44.6293 403.804 42.944 406.449 41.408C413.447 37.2267 416.945 34.688 416.945 33.792C416.945 33.152 415.281 31.7867 411.953 29.696C408.625 27.6053 405.916 26.2187 403.826 25.536C402.887 25.2373 401.714 24.256 400.306 22.592C398.898 20.8853 398.194 19.6267 398.194 18.816Z" fill="#1E3A8A"/>
<path d="M17.356 1.73197C18.378 0.709916 19.755 0.133073 21.1923 0.124896L43.1311 8.81236e-05C44.5897 -0.00820957 45.9918 0.569774 47.029 1.60691L62.3669 16.9433C63.4196 17.9959 64.0083 19.4333 63.9999 20.9305L63.8772 42.7435C63.8689 44.2186 63.2816 45.63 62.2444 46.6672L46.644 62.268C45.622 63.2901 44.245 63.8669 42.8077 63.8751L20.8689 63.9999C19.4103 64.0082 18.0082 63.4302 16.971 62.3931L1.63314 47.0567C0.580384 46.0041 -0.0083329 44.5667 8.91349e-05 43.0695L0.122792 21.2565C0.13109 19.7814 0.718416 18.37 1.75559 17.3328L17.356 1.73197Z" fill="#1E3A8A"/>
<path d="M33.144 50.976C32.728 51.008 32.344 50.912 31.992 50.688C31.672 50.496 31.448 50.24 31.32 49.92C31.192 49.76 30.984 49.408 30.696 48.864C30.408 48.352 30.232 47.904 30.168 47.52C30.072 46.496 30.008 45.504 29.976 44.544C29.976 43.584 30.024 42.24 30.12 40.512C30.216 39.104 30.408 37.856 30.696 36.768C30.984 35.648 31.272 34.704 31.56 33.936C31.848 33.136 32.072 32.544 32.232 32.16C32.392 31.744 32.424 31.536 32.328 31.536C32.2 31.536 32.056 31.664 31.896 31.92C31.768 32.144 31.608 32.448 31.416 32.832C31.256 33.216 31.064 33.632 30.84 34.08C30.648 34.528 30.44 34.96 30.216 35.376C29.768 36.368 29.24 37.424 28.632 38.544C28.056 39.632 27.464 40.688 26.856 41.712C26.248 42.736 25.72 43.632 25.272 44.4C24.984 44.72 24.648 45.184 24.264 45.792C23.88 46.368 23.464 46.976 23.016 47.616C22.568 48.256 22.104 48.784 21.624 49.2C20.92 49.872 20.2 50.272 19.464 50.4C18.728 50.56 18.04 50.48 17.4 50.16C17.08 50.128 16.744 49.952 16.392 49.632C16.04 49.344 15.752 48.976 15.528 48.528C15.336 48.08 15.288 47.664 15.384 47.28C15.352 46.832 15.352 46.144 15.384 45.216C15.448 44.256 15.544 43.216 15.672 42.096C15.8 40.944 15.928 39.84 16.056 38.784C16.216 37.728 16.36 36.848 16.488 36.144C16.776 34.096 17.16 32 17.64 29.856C18.152 27.712 18.616 25.552 19.032 23.376C19.288 22.736 19.512 22.016 19.704 21.216C19.928 20.384 20.152 19.616 20.376 18.912C20.408 18.208 20.664 17.776 21.144 17.616C21.624 17.424 22.136 17.392 22.68 17.52C23.256 17.648 23.656 17.872 23.88 18.192C24.2 18.512 24.504 19.008 24.792 19.68C25.08 20.352 25 21.2 24.552 22.224C23.912 23.792 23.288 25.712 22.68 27.984C22.104 30.224 21.576 32.944 21.096 36.144C20.968 36.912 20.824 37.776 20.664 38.736C20.536 39.664 20.408 40.56 20.28 41.424C20.184 42.288 20.104 43.008 20.04 43.584C20.008 44.128 20.024 44.416 20.088 44.448C20.344 44.512 20.616 44.368 20.904 44.016C21.224 43.664 21.56 43.104 21.912 42.336C23.224 40.16 24.456 38 25.608 35.856C26.792 33.712 27.976 31.472 29.16 29.136C29.704 28.208 30.248 27.2 30.792 26.112C31.368 24.992 31.912 23.968 32.424 23.04C32.968 22.08 33.496 21.152 34.008 20.256C34.52 19.36 34.968 18.608 35.352 18C35.736 17.36 36.024 17.008 36.216 16.944C37.08 16.944 37.72 17.168 38.136 17.616C38.584 18.064 38.936 18.608 39.192 19.248C39.256 19.408 39.288 19.68 39.288 20.064C39.32 20.448 39.272 20.784 39.144 21.072C39.112 21.296 38.968 21.76 38.712 22.464C38.488 23.168 38.28 23.952 38.088 24.816C37.768 25.68 37.48 26.544 37.224 27.408C37 28.24 36.84 28.928 36.744 29.472C36.488 30.848 36.168 32.352 35.784 33.984C35.4 35.616 35.064 37.248 34.776 38.88C34.52 40.48 34.376 41.904 34.344 43.152C34.312 44.048 34.312 44.64 34.344 44.928C34.408 45.184 34.504 45.456 34.632 45.744C34.696 46 34.84 46.064 35.064 45.936C35.288 45.808 35.512 45.584 35.736 45.264C36.184 44.592 36.52 44.016 36.744 43.536C37 43.056 37.256 42.544 37.512 42C37.768 41.424 38.12 40.704 38.568 39.84C39.368 38.368 40.184 36.752 41.016 34.992C41.88 33.232 42.696 31.488 43.464 29.76C44.264 28.032 44.952 26.496 45.528 25.152C46.136 23.424 46.648 22.032 47.064 20.976C47.48 19.888 47.864 19.056 48.216 18.48C48.568 17.904 48.904 17.52 49.224 17.328C49.384 17.2 49.72 17.136 50.232 17.136C50.776 17.136 51.192 17.264 51.48 17.52C51.608 17.648 51.832 17.856 52.152 18.144C52.472 18.432 52.616 18.768 52.584 19.152C52.424 19.664 52.12 20.496 51.672 21.648C51.256 22.8 50.76 24.08 50.184 25.488C49.64 26.864 49.096 28.192 48.552 29.472C48.04 30.72 47.608 31.712 47.256 32.448C46.904 33.12 46.568 33.696 46.248 34.176C45.928 34.656 45.768 35.024 45.768 35.28C45.768 35.408 45.608 35.808 45.288 36.48C44.968 37.12 44.552 37.904 44.04 38.832C43.56 39.76 43.032 40.72 42.456 41.712C41.88 42.704 41.336 43.616 40.824 44.448C40.312 45.28 39.88 45.92 39.528 46.368C38.728 47.36 37.864 48.192 36.936 48.864C36.04 49.568 35.24 50.096 34.536 50.448C33.832 50.8 33.368 50.976 33.144 50.976Z" fill="#F9FAFB"/>
</svg>
