<svg width="16" height="16" viewBox="0 0 16 16" fill="none" xmlns="http://www.w3.org/2000/svg">
<path d="M12.8472 5.74768C12.8472 3.00421 10.6937 0.780212 8.03735 0.780212C5.38098 0.780212 3.22754 3.00424 3.22754 5.74768C3.22754 6.98831 3.66795 8.12265 4.39604 8.99318H4.39601L5.44807 10.9003C5.72285 11.409 5.82485 11.7375 6.28532 11.7375H9.71576C10.1763 11.7375 10.3117 11.3916 10.553 10.9003L11.6787 8.99318H11.6786C12.4067 8.12265 12.8472 6.98831 12.8472 5.74768Z" fill="#FFE46A"/>
<path d="M3.52518 6.35265C3.52518 3.51762 5.66199 1.17449 8.43599 0.798931C8.2976 0.786567 8.15872 0.780321 8.01977 0.780212C5.3634 0.780212 3.20996 3.00424 3.20996 5.74768C3.20996 6.65049 3.44337 7.49687 3.85096 8.2264C3.64002 7.64049 3.52518 7.00978 3.52518 6.35265Z" fill="#FFF0B7"/>
<path d="M12.8472 5.75831C12.8472 4.77565 12.5709 3.85972 12.0942 3.08868C12.1962 3.49132 12.2478 3.90507 12.2478 4.32043C12.2478 7.58462 9.08726 10.243 5.13904 10.3507L5.4481 10.9109C5.72288 11.4197 5.82488 11.7482 6.28535 11.7482H9.71579C10.1763 11.7482 10.3118 11.4022 10.553 10.9109L11.6787 9.00384H11.6787C12.4068 8.13328 12.8472 6.99893 12.8472 5.75831Z" fill="#FFDA00"/>
<path d="M10.0596 6.60008C10.0642 6.59599 10.0688 6.59224 10.0735 6.58774C10.1606 6.50439 10.2323 6.37146 10.1723 6.24814C9.92608 5.74264 9.17324 5.58227 8.62468 5.74968C8.59691 5.75813 8.56995 5.76735 8.5438 5.77733C8.24499 5.60286 7.87399 5.56093 7.54377 5.6658C7.50467 5.67816 7.4663 5.6927 7.42883 5.70936C7.24805 5.60374 7.03658 5.55105 6.8259 5.57143C6.3849 5.61408 6.00168 5.97174 5.92574 6.40743L5.89099 6.42893C6.19152 6.91458 6.98255 8.30615 7.03324 8.90496C7.09715 9.6604 7.0333 11.711 7.03265 11.7316L7.40746 11.7435C7.41015 11.6584 7.47265 9.65039 7.40687 8.87333C7.37755 8.52686 7.16555 7.97464 6.77674 7.23205C6.59527 6.88543 6.41908 6.58111 6.31243 6.40155C6.38618 6.16261 6.61274 5.9688 6.86199 5.94471C6.9379 5.93736 7.0149 5.94586 7.08858 5.96749C7.06086 6.003 7.03659 6.04106 7.01609 6.08118C6.88962 6.32914 6.94246 6.64049 7.13899 6.80543C7.2554 6.90308 7.42452 6.93905 7.58046 6.89918C7.72568 6.86205 7.83793 6.76661 7.8884 6.63733C7.93374 6.52114 7.9299 6.38702 7.87693 6.23871C7.84626 6.15339 7.80365 6.07285 7.75037 5.99949C7.8919 5.97222 8.03796 5.9802 8.17568 6.02274C8.12208 6.08446 8.08108 6.15314 8.05412 6.22761C7.99649 6.38702 8.02196 6.57646 8.12062 6.72205C8.20565 6.84755 8.33487 6.92214 8.47524 6.92677C8.47995 6.92694 8.48464 6.92702 8.4893 6.92702C8.61227 6.92702 8.72899 6.87414 8.81937 6.77711C8.92552 6.66314 8.97955 6.50493 8.96387 6.35386C8.9539 6.25783 8.91974 6.16389 8.86474 6.07677C9.24712 6.0073 9.62115 6.13649 9.78296 6.33258C9.6853 6.49508 9.48477 6.83602 9.2774 7.23211C8.88862 7.97474 8.67655 8.52696 8.64727 8.87339C8.58152 9.65046 8.64402 11.6584 8.64668 11.7435L9.02149 11.7317C9.02084 11.7111 8.95699 9.66058 9.0209 8.90502C9.06649 8.36593 9.71193 7.18483 10.0596 6.60008ZM7.53902 6.50099C7.5303 6.52336 7.49743 6.53333 7.48755 6.53586C7.44849 6.54583 7.40427 6.53855 7.37999 6.51821C7.31702 6.46536 7.30333 6.34324 7.35008 6.25158C7.36542 6.22207 7.38489 6.19489 7.4079 6.17086C7.45824 6.22799 7.49827 6.29355 7.52374 6.36486C7.54452 6.42299 7.55008 6.47264 7.53902 6.50099ZM8.54496 6.52143C8.53399 6.53314 8.51168 6.55243 8.48749 6.55193C8.46152 6.55108 8.44096 6.52633 8.43099 6.51164C8.39996 6.4658 8.38999 6.40143 8.40674 6.35511C8.42605 6.30168 8.46333 6.25796 8.50683 6.22277C8.55527 6.27749 8.58499 6.33633 8.59084 6.39258C8.59534 6.43543 8.57687 6.48718 8.54496 6.52143Z" fill="#FAAF63"/>
<path d="M9.87292 12.5844H6.18433C5.97808 12.5844 5.80933 12.7532 5.80933 12.9594V13.1768C5.80933 13.3831 5.97808 13.5518 6.18433 13.5518H7.37564C7.02042 13.684 6.64536 13.9982 6.64536 14.3626V14.5089C6.93045 14.8293 7.19595 15.3864 7.70167 15.3864H8.38573C8.78411 15.3864 9.06711 14.9563 9.41186 14.5089V14.3626C9.41186 13.9982 9.05401 13.684 8.70723 13.5518H9.87292C10.0792 13.5518 10.2479 13.3831 10.2479 13.1768V12.9594C10.2479 12.7532 10.0792 12.5844 9.87292 12.5844Z" fill="#6B83A5"/>
<path d="M10.1377 12.5844H5.91943C5.71318 12.5844 5.54443 12.4157 5.54443 12.2094V11.992C5.54443 11.7858 5.71318 11.617 5.91943 11.617H10.1377C10.3439 11.617 10.5127 11.7858 10.5127 11.992V12.2094C10.5127 12.4157 10.3439 12.5844 10.1377 12.5844ZM9.91868 14.1443V13.9268C9.91868 13.7206 9.74993 13.5518 9.54368 13.5518H6.5134C6.30715 13.5518 6.1384 13.7206 6.1384 13.9268V14.1443C6.1384 14.3505 6.30715 14.5193 6.5134 14.5193H9.54368C9.74993 14.5193 9.91868 14.3505 9.91868 14.1443Z" fill="#ABBDDB"/>
</svg>
