<svg width="16" height="16" viewBox="0 0 16 16" fill="none" xmlns="http://www.w3.org/2000/svg">
<g clip-path="url(#clip0_374_15)">
<path fill-rule="evenodd" clip-rule="evenodd" d="M3.22285 1.82401C5.30372 1.67775 7.39228 1.67775 9.47314 1.82401C9.81028 1.84801 10.1051 1.96573 10.3349 2.14059C10.486 2.24969 10.6738 2.29538 10.8582 2.26791C11.0426 2.24044 11.2089 2.14198 11.3217 1.99355C11.4344 1.84513 11.4847 1.65849 11.4618 1.4735C11.4388 1.28851 11.3445 1.11982 11.1989 1.00344C10.7463 0.660586 10.1863 0.443443 9.57485 0.398871C7.42668 0.246885 5.27046 0.246885 3.12228 0.398871C1.66857 0.502871 0.478854 1.6023 0.406854 3.03201C0.325559 4.68676 0.285166 6.34327 0.285711 8.00001C0.285711 9.70401 0.327997 11.3669 0.406854 12.968C0.478854 14.3977 1.66857 15.4972 3.12228 15.6012C5.27046 15.7531 7.42668 15.7531 9.57485 15.6012C10.1634 15.5615 10.7276 15.3514 11.1989 14.9966C11.2761 14.9408 11.3414 14.8702 11.391 14.7888C11.4405 14.7074 11.4732 14.6169 11.4873 14.5227C11.5013 14.4285 11.4964 14.3324 11.4727 14.2401C11.4491 14.1478 11.4072 14.0612 11.3495 13.9853C11.2919 13.9094 11.2197 13.8459 11.1371 13.7983C11.0545 13.7508 10.9633 13.7203 10.8687 13.7086C10.7742 13.6968 10.6782 13.7041 10.5865 13.7301C10.4949 13.756 10.4093 13.8 10.3349 13.8594C10.1051 14.0332 9.80914 14.152 9.47314 14.176C7.39266 14.3222 5.30448 14.3222 3.224 14.176C2.40914 14.1189 1.86514 13.5269 1.83428 12.8972C1.7536 11.266 1.71359 9.63314 1.71428 8.00001C1.71428 6.32001 1.75543 4.68001 1.83428 3.10287C1.86514 2.47316 2.40914 1.8823 3.224 1.82401M5.21257 7.28573H11.1463V4.81487C11.1464 4.69292 11.1778 4.57304 11.2374 4.46665C11.297 4.36025 11.3829 4.27089 11.4868 4.20707C11.5907 4.14325 11.7092 4.1071 11.8311 4.10207C11.9529 4.09703 12.074 4.12328 12.1829 4.1783C13.5749 4.88344 14.9371 6.26401 15.6343 7.67087C15.6877 7.77255 15.7157 7.88571 15.7157 8.00059C15.7157 8.11546 15.6877 8.22862 15.6343 8.3303C14.9371 9.73601 13.5737 11.1166 12.1829 11.8217C12.074 11.8768 11.9529 11.903 11.8311 11.898C11.7092 11.8929 11.5907 11.8568 11.4868 11.793C11.3829 11.7291 11.297 11.6398 11.2374 11.5334C11.1778 11.427 11.1464 11.3071 11.1463 11.1852V8.7143H5.21143C5.02199 8.7143 4.8403 8.63905 4.70635 8.50509C4.57239 8.37114 4.49714 8.18945 4.49714 8.00001C4.49714 7.81057 4.57239 7.62889 4.70635 7.49494C4.8403 7.36098 5.02313 7.28573 5.21257 7.28573Z" fill="currentColor"/>
</g>
<defs>
<clipPath id="clip0_374_15">
<rect width="16" height="16" fill="white"/>
</clipPath>
</defs>
</svg>
