<svg width="16" height="16" viewBox="0 0 16 16" fill="none" xmlns="http://www.w3.org/2000/svg">
<g clip-path="url(#clip0_431_114)">
<path d="M8 0C3.58832 0 0 3.58832 0 8C0 12.4117 3.58832 16 8 16C12.4117 16 16 12.4117 16 8C16 3.58832 12.4117 0 8 0ZM8.40096 1.13248C10.4518 1.24976 12.2578 2.26096 13.4387 3.78336C13.127 3.77525 12.8167 3.77349 12.5078 3.77808C11.9715 3.78693 11.4357 3.81532 10.9014 3.8632C10.8032 3.66041 10.6498 3.48938 10.4589 3.36969C10.268 3.25 10.0473 3.18648 9.82192 3.1864C9.76609 3.18641 9.71033 3.19031 9.65504 3.19808C9.27937 2.48471 8.86057 1.79489 8.40096 1.13248ZM7.42848 1.14528C8.0104 1.94032 8.51488 2.74736 8.94656 3.5656C8.78598 3.73688 8.67917 3.9515 8.63936 4.18288C7.89298 4.3284 7.15444 4.51157 6.42656 4.73168C6.33599 4.60923 6.22294 4.50513 6.09344 4.42496C6.39536 3.34736 6.81776 2.25552 7.35776 1.15056C7.38128 1.14848 7.40496 1.14736 7.42848 1.14528ZM6.39808 1.3088C5.94688 2.2952 5.58688 3.27792 5.31904 4.2544C5.15702 4.27384 5.00066 4.32612 4.85953 4.40805C4.7184 4.48997 4.59547 4.59982 4.49824 4.73088C3.7763 4.50072 3.04511 4.30066 2.30656 4.1312C3.27046 2.71284 4.72985 1.70613 6.39808 1.3088ZM12.9778 4.57568C13.3125 4.57776 13.6488 4.58848 13.9869 4.60608C14.391 5.31781 14.664 6.09636 14.7928 6.90464C13.8248 7.06208 12.8824 7.28016 11.965 7.55504C11.8659 7.4324 11.7437 7.33047 11.6052 7.25508C11.4668 7.17969 11.3148 7.13233 11.1581 7.11568C11.0038 6.50172 10.816 5.8967 10.5954 5.30336C10.7938 5.13594 10.9326 4.90868 10.9909 4.65568C11.6467 4.59872 12.3086 4.57136 12.9778 4.57568ZM1.87712 4.8576C2.69344 5.03728 3.48992 5.24736 4.2632 5.49424L4.26336 5.49904C3.22208 5.92672 2.19824 6.43104 1.19152 7.00896C1.29915 6.25878 1.53084 5.53173 1.87712 4.8576ZM8.77216 4.96704C8.87588 5.15457 9.02793 5.3109 9.21251 5.41979C9.39709 5.52868 9.60746 5.58615 9.82176 5.58624L9.85408 5.58544C10.0632 6.14558 10.2414 6.71679 10.3878 7.29648C10.3277 7.33458 10.2711 7.37795 10.2187 7.42608C9.09042 6.69071 7.89927 6.05661 6.6592 5.5312C6.66017 5.51756 6.66091 5.5039 6.66144 5.49024C7.35583 5.28051 8.06019 5.10589 8.77216 4.96704ZM4.56112 6.2376C4.64935 6.33794 4.75372 6.42284 4.86992 6.4888C4.6728 8.03136 4.71648 9.55232 5.01728 11.0402C4.30833 11.5585 3.62537 12.1114 2.97088 12.697C1.82272 11.4683 1.12 9.81856 1.12 8C1.12 7.99248 1.12064 7.98528 1.12064 7.97776C2.24816 7.30032 3.39424 6.71856 4.56096 6.23776M6.34032 6.2632C7.56267 6.77968 8.73559 7.40609 9.84464 8.13472C9.83603 8.19246 9.83165 8.25074 9.83152 8.30912V8.31664C8.39792 8.91264 7.02928 9.65744 5.724 10.5429C5.4984 9.2632 5.4744 7.95888 5.64288 6.63184C5.91026 6.59107 6.15603 6.46117 6.34032 6.2632ZM14.8725 7.70224C14.8766 7.80096 14.88 7.90016 14.88 8C14.8812 8.97447 14.6748 9.93802 14.2747 10.8266C13.6013 10.1095 12.8814 9.4375 12.1197 8.81504C12.1931 8.6573 12.2313 8.48549 12.2317 8.31152C13.0983 8.05335 13.9803 7.84985 14.8725 7.70224ZM10.1016 9.06688C10.2743 9.27886 10.5142 9.42552 10.7816 9.48256C10.9566 11.068 10.9032 12.6931 10.6325 14.3594C9.79767 14.704 8.90316 14.8809 8 14.88C7.76352 14.88 7.53019 14.8683 7.3 14.845C6.65808 13.7147 6.19456 12.5618 5.90336 11.3878C7.23584 10.4562 8.63344 9.67984 10.1016 9.06688ZM11.5706 9.39648C12.3927 10.0665 13.1648 10.7958 13.8806 11.5784C13.2927 12.5428 12.4769 13.3479 11.505 13.9232C11.7106 12.3869 11.7354 10.8762 11.5706 9.39648ZM5.21696 11.8854C5.47136 12.8283 5.8304 13.757 6.29744 14.6683C5.28611 14.4113 4.34689 13.9265 3.55152 13.251C4.09504 12.7678 4.65008 12.3118 5.21696 11.8854Z" fill="currentColor"/>
</g>
<defs>
<clipPath id="clip0_431_114">
<rect width="16" height="16" fill="white"/>
</clipPath>
</defs>
</svg>
