<svg width="16" height="16" viewBox="0 0 16 16" fill="none" xmlns="http://www.w3.org/2000/svg">
<g clip-path="url(#clip0_460_122)">
<path d="M8 16C12.4183 16 16 12.4183 16 8C16 3.58172 12.4183 0 8 0C3.58172 0 0 3.58172 0 8C0 12.4183 3.58172 16 8 16Z" fill="black"/>
<path d="M13.2896 14.0017L6.14586 4.79999H4.79999V11.1974H5.87674V6.16736L12.4442 14.6529C12.7402 14.4549 13.0226 14.2374 13.2896 14.0017Z" fill="url(#paint0_linear_460_122)"/>
<path d="M10.2222 4.79999H11.2889V11.2H10.2222V4.79999Z" fill="url(#paint1_linear_460_122)"/>
</g>
<defs>
<linearGradient id="paint0_linear_460_122" x1="9.68886" y1="10.3555" x2="12.8444" y2="14.2666" gradientUnits="userSpaceOnUse">
<stop stop-color="white"/>
<stop offset="1" stop-color="white" stop-opacity="0"/>
</linearGradient>
<linearGradient id="paint1_linear_460_122" x1="10.7555" y1="4.79998" x2="10.7377" y2="9.49997" gradientUnits="userSpaceOnUse">
<stop stop-color="white"/>
<stop offset="1" stop-color="white" stop-opacity="0"/>
</linearGradient>
<clipPath id="clip0_460_122">
<rect width="16" height="16" fill="white"/>
</clipPath>
</defs>
</svg>
