<svg width="16" height="16" viewBox="0 0 16 16" fill="none" xmlns="http://www.w3.org/2000/svg">
<path d="M4.06933 3.94C4.45867 4.256 4.604 4.232 5.33467 4.18334L12.2227 3.77C12.3693 3.77 12.2473 3.62334 12.1987 3.59934L11.0547 2.77267C10.8353 2.60267 10.5433 2.40734 9.984 2.456L3.314 2.94267C3.07133 2.96667 3.02267 3.08867 3.11933 3.186L4.06933 3.94ZM4.48267 5.54534V12.792C4.48267 13.182 4.67733 13.3273 5.116 13.3033L12.6853 12.8653C13.1233 12.8413 13.172 12.5733 13.172 12.2567V5.05867C13.172 4.74267 13.0507 4.572 12.7827 4.59667L4.872 5.05867C4.58 5.08267 4.48267 5.22867 4.48267 5.54534ZM11.956 5.934C12.004 6.15267 11.956 6.372 11.736 6.39667L11.3713 6.46934V11.8193C11.0547 11.99 10.7627 12.0867 10.5193 12.0867C10.13 12.0867 10.0327 11.9653 9.74067 11.6007L7.35467 7.85534V11.4793L8.11 11.6493C8.11 11.6493 8.11 12.0867 7.50067 12.0867L5.82133 12.184C5.77267 12.0867 5.82133 11.844 5.992 11.7953L6.43 11.674V6.88267L5.82133 6.834C5.77267 6.61467 5.89467 6.29867 6.23533 6.274L8.03667 6.15267L10.5193 9.94734V6.59067L9.886 6.518C9.838 6.25 10.0327 6.056 10.276 6.03134L11.956 5.934ZM2.754 2.286L9.69133 1.77534C10.5427 1.702 10.762 1.75134 11.298 2.14L13.512 3.69667C13.8773 3.964 13.9993 4.03667 13.9993 4.32867V12.8653C13.9993 13.4007 13.8047 13.7167 13.1233 13.7653L5.06667 14.252C4.55533 14.276 4.312 14.2033 4.044 13.8627L2.41333 11.7467C2.12133 11.3573 2 11.066 2 10.7247V3.13667C2 2.69934 2.194 2.33467 2.754 2.286Z" fill="currentColor"/>
</svg>
