<svg width="16" height="16" viewBox="0 0 16 16" fill="none" xmlns="http://www.w3.org/2000/svg">
<path d="M12 2C12.5304 2 13.0391 2.21071 13.4142 2.58579C13.7893 2.96086 14 3.46957 14 4V5.42867C14 5.65133 14 5.76267 13.9487 5.844C13.9221 5.88629 13.8863 5.92206 13.844 5.94867C13.7627 6 13.6513 6 13.4287 6H10M12 2C11.4696 2 10.9609 2.21071 10.5858 2.58579C10.2107 2.96086 10 3.46957 10 4V6M12 2H4.66667C3.40933 2 2.78133 2 2.39067 2.39067C2 2.78133 2 3.40933 2 4.66667V14L4 13.3333L6 14L8 13.3333L10 14V6" stroke="currentColor" stroke-width="1.33333"/>
<path d="M4.66663 4.66666H7.33329M5.33329 7.33333H4.66663M4.66663 10H6.66663" stroke="currentColor" stroke-width="1.33333" stroke-linecap="round"/>
</svg>
