<svg width="16" height="16" viewBox="0 0 16 16" fill="none" xmlns="http://www.w3.org/2000/svg">
<g clip-path="url(#clip0_372_9)">
<path fill-rule="evenodd" clip-rule="evenodd" d="M10.6667 5.99998C10.6667 6.70722 10.3858 7.3855 9.88566 7.8856C9.38556 8.3857 8.70728 8.66665 8.00004 8.66665C7.2928 8.66665 6.61452 8.3857 6.11442 7.8856C5.61433 7.3855 5.33337 6.70722 5.33337 5.99998C5.33337 5.29274 5.61433 4.61446 6.11442 4.11436C6.61452 3.61426 7.2928 3.33331 8.00004 3.33331C8.70728 3.33331 9.38556 3.61426 9.88566 4.11436C10.3858 4.61446 10.6667 5.29274 10.6667 5.99998ZM9.33337 5.99998C9.33337 6.3536 9.1929 6.69274 8.94285 6.94279C8.6928 7.19284 8.35366 7.33331 8.00004 7.33331C7.64642 7.33331 7.30728 7.19284 7.05723 6.94279C6.80718 6.69274 6.66671 6.3536 6.66671 5.99998C6.66671 5.64636 6.80718 5.30722 7.05723 5.05717C7.30728 4.80712 7.64642 4.66665 8.00004 4.66665C8.35366 4.66665 8.6928 4.80712 8.94285 5.05717C9.1929 5.30722 9.33337 5.64636 9.33337 5.99998Z" fill="currentColor"/>
<path fill-rule="evenodd" clip-rule="evenodd" d="M8.00002 0.666656C3.95002 0.666656 0.666687 3.94999 0.666687 7.99999C0.666687 12.05 3.95002 15.3333 8.00002 15.3333C12.05 15.3333 15.3334 12.05 15.3334 7.99999C15.3334 3.94999 12.05 0.666656 8.00002 0.666656ZM2.00002 7.99999C2.00002 9.39332 2.47535 10.676 3.27202 11.6947C3.83165 10.9601 4.55346 10.3648 5.38111 9.95514C6.20877 9.54554 7.11989 9.33273 8.04335 9.33332C8.95494 9.33226 9.85473 9.53939 10.6741 9.93891C11.4935 10.3384 12.2108 10.9198 12.7714 11.6387C13.349 10.8811 13.7379 9.9968 13.906 9.05905C14.074 8.1213 14.0163 7.15701 13.7377 6.24598C13.4591 5.33495 12.9675 4.50336 12.3037 3.82001C11.6399 3.13667 10.8229 2.62123 9.92028 2.31633C9.0177 2.01143 8.05549 1.92584 7.11326 2.06664C6.17103 2.20744 5.27588 2.57058 4.50187 3.12603C3.72785 3.68147 3.09723 4.41324 2.66217 5.26079C2.22712 6.10834 2.00014 7.0473 2.00002 7.99999ZM8.00002 14C6.62263 14.0022 5.28678 13.5284 4.21869 12.6587C4.64856 12.0431 5.22082 11.5405 5.88674 11.1936C6.55266 10.8468 7.29253 10.666 8.04335 10.6667C8.7848 10.666 9.51571 10.8423 10.1753 11.1809C10.835 11.5194 11.4043 12.0105 11.836 12.6133C10.7597 13.5113 9.40178 14.0022 8.00002 14Z" fill="currentColor"/>
</g>
<defs>
<clipPath id="clip0_372_9">
<rect width="16" height="16" fill="white"/>
</clipPath>
</defs>
</svg>
