<svg width="16" height="16" viewBox="0 0 16 16" fill="none" xmlns="http://www.w3.org/2000/svg">
<path d="M8.00001 9.42501C8.78702 9.42501 9.42501 8.78702 9.42501 8.00001C9.42501 7.21301 8.78702 6.57501 8.00001 6.57501C7.21301 6.57501 6.57501 7.21301 6.57501 8.00001C6.57501 8.78702 7.21301 9.42501 8.00001 9.42501Z" fill="#61DAFB"/>
<path d="M13.4125 5.65001C13.1375 5.55001 12.85 5.45001 12.55 5.36251C12.625 5.06251 12.6875 4.76251 12.7375 4.47501C13 2.82501 12.7125 1.66251 11.9125 1.21251C11.675 1.07501 11.4125 1.01251 11.1125 1.01251C10.2375 1.01251 9.12499 1.66251 7.99999 2.75001C6.87499 1.66251 5.76249 1.01251 4.88749 1.01251C4.58749 1.01251 4.32499 1.07501 4.08749 1.21251C3.28749 1.67501 2.99999 2.83751 3.26249 4.47501C3.31249 4.76251 3.37499 5.06251 3.44999 5.36251C3.14999 5.45001 2.86249 5.53751 2.58749 5.65001C1.02499 6.25001 0.174988 7.07501 0.174988 8.00001C0.174988 8.92501 1.03749 9.75001 2.58749 10.35C2.86249 10.45 3.14999 10.55 3.44999 10.6375C3.37499 10.9375 3.31249 11.2375 3.26249 11.525C2.99999 13.175 3.28749 14.3375 4.08749 14.7875C4.32499 14.925 4.58749 14.9875 4.88749 14.9875C5.77499 14.9875 6.88749 14.3375 7.99999 13.25C9.12499 14.3375 10.2375 14.9875 11.1125 14.9875C11.4125 14.9875 11.675 14.925 11.9125 14.7875C12.7125 14.325 13 13.1625 12.7375 11.525C12.6875 11.2375 12.625 10.9375 12.55 10.6375C12.85 10.55 13.1375 10.4625 13.4125 10.35C14.975 9.75001 15.825 8.92501 15.825 8.00001C15.825 7.07501 14.975 6.25001 13.4125 5.65001ZM11.5625 1.83751C12.075 2.13751 12.25 3.06251 12.0375 4.37501C12 4.63751 11.9375 4.91251 11.8625 5.20001C11.2125 5.05001 10.525 4.95001 9.79999 4.88751C9.37499 4.28751 8.93749 3.75001 8.49999 3.26251C9.42499 2.35001 10.3625 1.72501 11.125 1.72501C11.2875 1.72501 11.4375 1.76251 11.5625 1.83751ZM10.1625 9.25001C9.93749 9.65001 9.67499 10.05 9.39999 10.45C8.93749 10.4875 8.47499 10.5 7.99999 10.5C7.51249 10.5 7.04999 10.4875 6.59999 10.45C6.32499 10.05 6.07499 9.65001 5.84999 9.25001C5.61249 8.83751 5.38749 8.41251 5.18749 8.00001C5.38749 7.58751 5.61249 7.16251 5.84999 6.75001C6.07499 6.35001 6.33749 5.95001 6.61249 5.55001C7.07499 5.51251 7.53749 5.50001 8.01249 5.50001C8.49999 5.50001 8.96249 5.51251 9.41249 5.55001C9.68749 5.95001 9.93749 6.35001 10.1625 6.75001C10.4 7.16251 10.625 7.58751 10.825 8.00001C10.6125 8.41251 10.4 8.82501 10.1625 9.25001ZM11.2 8.83751C11.3875 9.27501 11.5375 9.70001 11.675 10.125C11.25 10.225 10.8 10.3 10.325 10.3625C10.475 10.125 10.6375 9.87501 10.775 9.61251C10.925 9.35001 11.0625 9.08751 11.2 8.83751ZM7.99999 12.225C7.69999 11.9 7.41249 11.55 7.13749 11.1875C7.42499 11.2 7.71249 11.2125 7.99999 11.2125C8.28749 11.2125 8.57499 11.2 8.86249 11.1875C8.58749 11.55 8.29999 11.9 7.99999 12.225ZM5.67499 10.35C5.19999 10.2875 4.74999 10.2125 4.32499 10.1125C4.46249 9.70001 4.61249 9.26251 4.79999 8.82501C4.93749 9.07501 5.07499 9.33751 5.22499 9.58751C5.37499 9.86251 5.52499 10.1 5.67499 10.35ZM4.79999 7.16251C4.61249 6.72501 4.46249 6.30001 4.32499 5.87501C4.74999 5.77501 5.19999 5.70001 5.67499 5.63751C5.52499 5.87501 5.36249 6.12501 5.22499 6.38751C5.07499 6.65001 4.93749 6.91251 4.79999 7.16251ZM7.99999 3.77501C8.29999 4.10001 8.58749 4.45001 8.86249 4.81251C8.57499 4.80001 8.28749 4.78751 7.99999 4.78751C7.71249 4.78751 7.42499 4.80001 7.13749 4.81251C7.41249 4.45001 7.69999 4.10001 7.99999 3.77501ZM10.775 6.40001L10.325 5.65001C10.8 5.71251 11.25 5.78751 11.675 5.88751C11.5375 6.30001 11.3875 6.73751 11.2 7.17501C11.0625 6.91251 10.925 6.65001 10.775 6.40001ZM3.96249 4.37501C3.74999 3.06251 3.92499 2.13751 4.43749 1.83751C4.56249 1.76251 4.71249 1.72501 4.87499 1.72501C5.62499 1.72501 6.56249 2.33751 7.49999 3.26251C7.06249 3.73751 6.62499 4.28751 6.19999 4.88751C5.47499 4.95001 4.78749 5.06251 4.13749 5.20001C4.06249 4.91251 4.01249 4.63751 3.96249 4.37501ZM0.874988 8.00001C0.874988 7.41251 1.58749 6.78751 2.83749 6.32501C3.08749 6.22501 3.36249 6.13751 3.63749 6.06251C3.83749 6.68751 4.08749 7.35001 4.38749 8.01251C4.08749 8.67501 3.82499 9.32501 3.63749 9.95001C1.91249 9.45001 0.874988 8.70001 0.874988 8.00001ZM4.43749 14.1625C3.92499 13.8625 3.74999 12.9375 3.96249 11.625C3.99999 11.3625 4.06249 11.0875 4.13749 10.8C4.78749 10.95 5.47499 11.05 6.19999 11.1125C6.62499 11.7125 7.06249 12.25 7.49999 12.7375C6.57499 13.65 5.63749 14.275 4.87499 14.275C4.71249 14.275 4.56249 14.2375 4.43749 14.1625ZM12.0375 11.625C12.25 12.9375 12.075 13.8625 11.5625 14.1625C11.4375 14.2375 11.2875 14.275 11.125 14.275C10.375 14.275 9.43749 13.6625 8.49999 12.7375C8.93749 12.2625 9.37499 11.7125 9.79999 11.1125C10.525 11.05 11.2125 10.9375 11.8625 10.8C11.9375 11.0875 11.9875 11.3625 12.0375 11.625ZM13.1625 9.67501C12.9125 9.77501 12.6375 9.86251 12.3625 9.93751C12.1625 9.31251 11.9125 8.65001 11.6125 7.98751C11.9125 7.32501 12.175 6.67501 12.3625 6.05001C14.0875 6.55001 15.125 7.30001 15.125 8.00001C15.125 8.58751 14.4 9.21251 13.1625 9.67501Z" fill="#61DAFB"/>
</svg>
