<svg width="16" height="16" viewBox="0 0 16 16" fill="none" xmlns="http://www.w3.org/2000/svg">
<path d="M10 11.3333C9.86819 11.3333 9.73929 11.3724 9.62966 11.4457C9.52003 11.519 9.43458 11.6231 9.38412 11.7449C9.33366 11.8667 9.32046 12.0008 9.34618 12.1301C9.37191 12.2594 9.4354 12.3782 9.52864 12.4714C9.62187 12.5647 9.74066 12.6281 9.86998 12.6539C9.9993 12.6796 10.1333 12.6664 10.2552 12.6159C10.377 12.5655 10.4811 12.48 10.5544 12.3704C10.6276 12.2608 10.6667 12.1319 10.6667 12C10.6667 11.8232 10.5965 11.6536 10.4714 11.5286C10.3464 11.4036 10.1769 11.3333 10 11.3333ZM6.00004 11.3333H4.00004C3.82323 11.3333 3.65366 11.4036 3.52864 11.5286C3.40361 11.6536 3.33337 11.8232 3.33337 12C3.33337 12.1768 3.40361 12.3464 3.52864 12.4714C3.65366 12.5964 3.82323 12.6667 4.00004 12.6667H6.00004C6.17685 12.6667 6.34642 12.5964 6.47145 12.4714C6.59647 12.3464 6.66671 12.1768 6.66671 12C6.66671 11.8232 6.59647 11.6536 6.47145 11.5286C6.34642 11.4036 6.17685 11.3333 6.00004 11.3333ZM12 11.3333C11.8682 11.3333 11.7393 11.3724 11.6297 11.4457C11.52 11.519 11.4346 11.6231 11.3841 11.7449C11.3337 11.8667 11.3205 12.0008 11.3462 12.1301C11.3719 12.2594 11.4354 12.3782 11.5286 12.4714C11.6219 12.5647 11.7407 12.6281 11.87 12.6539C11.9993 12.6796 12.1333 12.6664 12.2552 12.6159C12.377 12.5655 12.4811 12.48 12.5544 12.3704C12.6276 12.2608 12.6667 12.1319 12.6667 12C12.6667 11.8232 12.5965 11.6536 12.4714 11.5286C12.3464 11.4036 12.1769 11.3333 12 11.3333ZM10 7.33334C9.86819 7.33334 9.73929 7.37244 9.62966 7.4457C9.52003 7.51895 9.43458 7.62307 9.38412 7.74489C9.33366 7.86671 9.32046 8.00075 9.34618 8.13007C9.37191 8.25939 9.4354 8.37818 9.52864 8.47141C9.62187 8.56465 9.74066 8.62814 9.86998 8.65387C9.9993 8.67959 10.1333 8.66639 10.2552 8.61593C10.377 8.56547 10.4811 8.48002 10.5544 8.37039C10.6276 8.26076 10.6667 8.13186 10.6667 8.00001C10.6667 7.8232 10.5965 7.65363 10.4714 7.52861C10.3464 7.40358 10.1769 7.33334 10 7.33334ZM6.00004 7.33334H4.00004C3.82323 7.33334 3.65366 7.40358 3.52864 7.52861C3.40361 7.65363 3.33337 7.8232 3.33337 8.00001C3.33337 8.17682 3.40361 8.34639 3.52864 8.47141C3.65366 8.59644 3.82323 8.66668 4.00004 8.66668H6.00004C6.17685 8.66668 6.34642 8.59644 6.47145 8.47141C6.59647 8.34639 6.66671 8.17682 6.66671 8.00001C6.66671 7.8232 6.59647 7.65363 6.47145 7.52861C6.34642 7.40358 6.17685 7.33334 6.00004 7.33334ZM12 3.33334C11.8682 3.33334 11.7393 3.37244 11.6297 3.4457C11.52 3.51895 11.4346 3.62307 11.3841 3.74489C11.3337 3.86671 11.3205 4.00075 11.3462 4.13007C11.3719 4.25939 11.4354 4.37818 11.5286 4.47141C11.6219 4.56465 11.7407 4.62814 11.87 4.65387C11.9993 4.67959 12.1333 4.66639 12.2552 4.61593C12.377 4.56547 12.4811 4.48002 12.5544 4.37039C12.6276 4.26076 12.6667 4.13186 12.6667 4.00001C12.6667 3.8232 12.5965 3.65363 12.4714 3.52861C12.3464 3.40358 12.1769 3.33334 12 3.33334ZM12 7.33334C11.8682 7.33334 11.7393 7.37244 11.6297 7.4457C11.52 7.51895 11.4346 7.62307 11.3841 7.74489C11.3337 7.86671 11.3205 8.00075 11.3462 8.13007C11.3719 8.25939 11.4354 8.37818 11.5286 8.47141C11.6219 8.56465 11.7407 8.62814 11.87 8.65387C11.9993 8.67959 12.1333 8.66639 12.2552 8.61593C12.377 8.56547 12.4811 8.48002 12.5544 8.37039C12.6276 8.26076 12.6667 8.13186 12.6667 8.00001C12.6667 7.8232 12.5965 7.65363 12.4714 7.52861C12.3464 7.40358 12.1769 7.33334 12 7.33334ZM14.6667 3.33334C14.6667 2.80291 14.456 2.2942 14.0809 1.91913C13.7058 1.54406 13.1971 1.33334 12.6667 1.33334H3.33337C2.80294 1.33334 2.29423 1.54406 1.91916 1.91913C1.54409 2.2942 1.33337 2.80291 1.33337 3.33334V4.66668C1.33631 5.16005 1.52151 5.63492 1.85337 6.00001C1.52151 6.3651 1.33631 6.83997 1.33337 7.33334V8.66668C1.33631 9.16005 1.52151 9.63492 1.85337 10C1.52151 10.3651 1.33631 10.84 1.33337 11.3333V12.6667C1.33337 13.1971 1.54409 13.7058 1.91916 14.0809C2.29423 14.456 2.80294 14.6667 3.33337 14.6667H12.6667C13.1971 14.6667 13.7058 14.456 14.0809 14.0809C14.456 13.7058 14.6667 13.1971 14.6667 12.6667V11.3333C14.6638 10.84 14.4786 10.3651 14.1467 10C14.4786 9.63492 14.6638 9.16005 14.6667 8.66668V7.33334C14.6638 6.83997 14.4786 6.3651 14.1467 6.00001C14.4786 5.63492 14.6638 5.16005 14.6667 4.66668V3.33334ZM13.3334 12.6667C13.3334 12.8435 13.2631 13.0131 13.1381 13.1381C13.0131 13.2631 12.8435 13.3333 12.6667 13.3333H3.33337C3.15656 13.3333 2.98699 13.2631 2.86197 13.1381C2.73695 13.0131 2.66671 12.8435 2.66671 12.6667V11.3333C2.66671 11.1565 2.73695 10.987 2.86197 10.8619C2.98699 10.7369 3.15656 10.6667 3.33337 10.6667H12.6667C12.8435 10.6667 13.0131 10.7369 13.1381 10.8619C13.2631 10.987 13.3334 11.1565 13.3334 11.3333V12.6667ZM13.3334 8.66668C13.3334 8.84349 13.2631 9.01306 13.1381 9.13808C13.0131 9.26311 12.8435 9.33334 12.6667 9.33334H3.33337C3.15656 9.33334 2.98699 9.26311 2.86197 9.13808C2.73695 9.01306 2.66671 8.84349 2.66671 8.66668V7.33334C2.66671 7.15653 2.73695 6.98696 2.86197 6.86194C2.98699 6.73692 3.15656 6.66668 3.33337 6.66668H12.6667C12.8435 6.66668 13.0131 6.73692 13.1381 6.86194C13.2631 6.98696 13.3334 7.15653 13.3334 7.33334V8.66668ZM13.3334 4.66668C13.3334 4.84349 13.2631 5.01306 13.1381 5.13808C13.0131 5.26311 12.8435 5.33334 12.6667 5.33334H3.33337C3.15656 5.33334 2.98699 5.26311 2.86197 5.13808C2.73695 5.01306 2.66671 4.84349 2.66671 4.66668V3.33334C2.66671 3.15653 2.73695 2.98696 2.86197 2.86194C2.98699 2.73691 3.15656 2.66668 3.33337 2.66668H12.6667C12.8435 2.66668 13.0131 2.73691 13.1381 2.86194C13.2631 2.98696 13.3334 3.15653 13.3334 3.33334V4.66668ZM10 3.33334C9.86819 3.33334 9.73929 3.37244 9.62966 3.4457C9.52003 3.51895 9.43458 3.62307 9.38412 3.74489C9.33366 3.86671 9.32046 4.00075 9.34618 4.13007C9.37191 4.25939 9.4354 4.37818 9.52864 4.47141C9.62187 4.56465 9.74066 4.62814 9.86998 4.65387C9.9993 4.67959 10.1333 4.66639 10.2552 4.61593C10.377 4.56547 10.4811 4.48002 10.5544 4.37039C10.6276 4.26076 10.6667 4.13186 10.6667 4.00001C10.6667 3.8232 10.5965 3.65363 10.4714 3.52861C10.3464 3.40358 10.1769 3.33334 10 3.33334ZM6.00004 3.33334H4.00004C3.82323 3.33334 3.65366 3.40358 3.52864 3.52861C3.40361 3.65363 3.33337 3.8232 3.33337 4.00001C3.33337 4.17682 3.40361 4.34639 3.52864 4.47141C3.65366 4.59644 3.82323 4.66668 4.00004 4.66668H6.00004C6.17685 4.66668 6.34642 4.59644 6.47145 4.47141C6.59647 4.34639 6.66671 4.17682 6.66671 4.00001C6.66671 3.8232 6.59647 3.65363 6.47145 3.52861C6.34642 3.40358 6.17685 3.33334 6.00004 3.33334Z" fill="currentColor"/>
</svg>
