<svg width="16" height="16" viewBox="0 0 16 16" fill="none" xmlns="http://www.w3.org/2000/svg">
<path d="M10.863 13.92C10.7117 13.9931 10.5415 14.0171 10.376 13.9886C10.2104 13.96 10.058 13.8805 9.93996 13.761L4.81596 9.063L2.58396 10.766C2.48336 10.8425 2.35911 10.8813 2.23284 10.8757C2.10658 10.87 1.9863 10.8202 1.89296 10.735L1.17696 10.08C1.12129 10.0288 1.07685 9.96655 1.04646 9.89727C1.01606 9.82799 1.00037 9.75316 1.00037 9.6775C1.00037 9.60185 1.01606 9.52702 1.04646 9.45774C1.07685 9.38845 1.12129 9.32623 1.17696 9.275L3.11196 7.5L1.17696 5.725C1.12129 5.67377 1.07685 5.61155 1.04646 5.54227C1.01606 5.47299 1.00037 5.39816 1.00037 5.3225C1.00037 5.24685 1.01606 5.17201 1.04646 5.10273C1.07685 5.03345 1.12129 4.97123 1.17696 4.92L1.89296 4.265C1.98642 4.17993 2.10676 4.13034 2.23302 4.12485C2.35929 4.11937 2.48347 4.15835 2.58396 4.235L4.81596 5.937L9.93996 1.24C10.0585 1.12134 10.211 1.04241 10.3763 1.0141C10.5416 0.985803 10.7117 1.00953 10.863 1.082L13.54 2.376C13.821 2.512 14 2.798 14 3.112V8H10.752V4.534L6.86396 7.5L10.752 10.466V8H14V11.889C14 12.203 13.821 12.489 13.54 12.625L10.863 13.92Z" fill="currentColor"/>
</svg>
