<svg width="16" height="16" viewBox="0 0 16 16" fill="none" xmlns="http://www.w3.org/2000/svg">
<path d="M12 2V5.33333M4.00004 2V5.33333M13.6667 2.66667V3.66667M13.6667 3.66667V4.66667M13.6667 3.66667H14.6667M2.33337 2.66667V3.66667M2.33337 3.66667V4.66667M2.33337 3.66667H1.33337M12 3.66667H4.00004M6.00004 5.33333V10.6667M10 5.33333V10.6667M10.6667 12.6667V14M5.33337 12.6667V14M4.85137 12.6667H11.1494C11.974 12.6667 12.3867 12.6667 12.5574 12.4647C12.944 12.0073 12.2027 11.402 11.932 11.0973C11.6274 10.7533 11.404 10.6667 10.9534 10.6667H5.04671C4.59604 10.6667 4.37337 10.7533 4.06804 11.0973C3.79737 11.402 3.05604 12.0073 3.44271 12.4647C3.61337 12.6667 4.02671 12.6667 4.85137 12.6667Z" stroke="currentColor" stroke-linecap="round" stroke-linejoin="round"/>
</svg>
