<svg width="16" height="16" viewBox="0 0 16 16" fill="none" xmlns="http://www.w3.org/2000/svg">
<g clip-path="url(#clip0_431_120)">
<path d="M8.00001 3.00001C8.00001 2.55798 7.82441 2.13406 7.51185 1.8215C7.19929 1.50894 6.77537 1.33334 6.33334 1.33334C5.89131 1.33334 5.46739 1.50894 5.15483 1.8215C4.84227 2.13406 4.66667 2.55798 4.66667 3.00001C4.31201 2.99991 3.96369 3.09412 3.65743 3.27299C3.35117 3.45187 3.09799 3.70896 2.92383 4.01793C2.74967 4.32689 2.66081 4.67661 2.66635 5.03123C2.67188 5.38586 2.77162 5.73263 2.95534 6.03601C2.49903 6.12418 2.08766 6.36846 1.79184 6.7269C1.49603 7.08535 1.33423 7.5356 1.33423 8.00034C1.33423 8.46509 1.49603 8.91534 1.79184 9.27378C2.08766 9.63223 2.49903 9.87651 2.95534 9.96468C2.77179 10.268 2.67219 10.6147 2.66674 10.9693C2.66129 11.3238 2.75019 11.6734 2.92433 11.9823C3.09846 12.2911 3.35158 12.5481 3.65774 12.727C3.9639 12.9058 4.31211 13 4.66667 13C4.66676 13.442 4.84244 13.8659 5.15507 14.1784C5.46769 14.4909 5.89165 14.6664 6.33367 14.6663C6.7757 14.6663 7.19959 14.4906 7.51209 14.178C7.82459 13.8653 8.0001 13.4414 8.00001 12.9993" stroke="currentColor" stroke-linecap="round" stroke-linejoin="round"/>
<path d="M8 13C8 13.442 8.17559 13.866 8.48816 14.1785C8.80072 14.4911 9.22464 14.6667 9.66667 14.6667C10.1087 14.6667 10.5326 14.4911 10.8452 14.1785C11.1577 13.866 11.3333 13.442 11.3333 13C11.6879 13 12.0361 12.9058 12.3423 12.727C12.6484 12.5481 12.9015 12.2911 13.0757 11.9823C13.2498 11.6734 13.3387 11.3238 13.3333 10.9693C13.3278 10.6147 13.2282 10.268 13.0447 9.96467C13.501 9.87651 13.9124 9.63223 14.2082 9.27378C14.504 8.91534 14.6658 8.46509 14.6658 8.00034C14.6658 7.53559 14.504 7.08534 14.2082 6.7269C13.9124 6.36845 13.501 6.12418 13.0447 6.03601C13.2284 5.73263 13.3281 5.38586 13.3337 5.03123C13.3392 4.67661 13.2503 4.32689 13.0762 4.01792C12.902 3.70896 12.6488 3.45186 12.3426 3.27299C12.0363 3.09412 11.688 2.99991 11.3333 3.00001C11.3334 2.78114 11.2903 2.5644 11.2066 2.36218C11.1229 2.15995 11.0001 1.97619 10.8454 1.8214C10.6907 1.6666 10.507 1.5438 10.3048 1.46C10.1026 1.3762 9.88587 1.33305 9.667 1.33301C9.22497 1.33292 8.80101 1.50843 8.48839 1.82093C8.17577 2.13343 8.00009 2.55731 8 2.99934" stroke="currentColor" stroke-linecap="round" stroke-linejoin="round"/>
<path d="M6.99129 4.66735V5.98669M4.66663 7.00069H6.03463M10.0153 7.00069H11.3833M10.0153 8.98335H11.3833M4.66663 8.98335H6.03463M6.99129 10.0134V11.3334M9.00796 10.0134V11.3334M9.00196 4.66669V5.98669M6.70196 9.97935H9.34929C9.5261 9.97935 9.69567 9.90912 9.8207 9.78409C9.94572 9.65907 10.016 9.4895 10.016 9.31269V6.65335C10.016 6.47654 9.94572 6.30697 9.8207 6.18195C9.69567 6.05692 9.5261 5.98669 9.34929 5.98669H6.70196C6.52515 5.98669 6.35558 6.05692 6.23055 6.18195C6.10553 6.30697 6.03529 6.47654 6.03529 6.65335V9.31269C6.03529 9.4895 6.10553 9.65907 6.23055 9.78409C6.35558 9.90912 6.52515 9.97935 6.70196 9.97935Z" stroke="currentColor" stroke-linecap="round" stroke-linejoin="round"/>
</g>
<defs>
<clipPath id="clip0_431_120">
<rect width="16" height="16" fill="white"/>
</clipPath>
</defs>
</svg>
