<svg width="16" height="16" viewBox="0 0 16 16" fill="none" xmlns="http://www.w3.org/2000/svg">
<path d="M14 9.5V3C14 2.73478 13.8946 2.48043 13.7071 2.29289C13.5196 2.10536 13.2652 2 13 2H3.00001C2.73479 2 2.48043 2.10536 2.2929 2.29289C2.10536 2.48043 2.00001 2.73478 2.00001 3V9.5M14 9.5H2.00001M14 9.5L15.4133 12.594C15.481 12.7462 15.5095 12.9129 15.4963 13.0789C15.4832 13.245 15.4288 13.4051 15.3381 13.5448C15.2473 13.6844 15.1232 13.7992 14.9768 13.8787C14.8305 13.9582 14.6666 13.9999 14.5 14H1.50001C1.3334 14 1.16942 13.9584 1.02298 13.879C0.876538 13.7995 0.752269 13.6847 0.661462 13.545C0.570655 13.4053 0.516189 13.2452 0.503011 13.0791C0.489833 12.913 0.518362 12.7463 0.586005 12.594L2.00001 9.5M7.00001 12H9.00001" stroke="currentColor" stroke-linecap="round" stroke-linejoin="round"/>
</svg>
