<svg width="16" height="16" viewBox="0 0 16 16" fill="none" xmlns="http://www.w3.org/2000/svg">
<path d="M11 1H13V3H11V1ZM11 5V11.065C10.9987 11.5778 10.7944 12.0692 10.4318 12.4318C10.0692 12.7944 9.57779 12.9987 9.065 13H9V15H9.065C9.58183 15.0003 10.0936 14.8987 10.5712 14.701C11.0487 14.5033 11.4826 14.2135 11.8481 13.8481C12.2135 13.4826 12.5033 13.0487 12.701 12.5712C12.8987 12.0936 13.0003 11.5818 13 11.065V5H11ZM7 1H9V11H7V1Z" fill="#43A047"/>
<path d="M5.919 6C6.20558 6.0004 6.4803 6.11442 6.68294 6.31706C6.88559 6.5197 6.9996 6.79442 7 7.081V9.5585L6.615 9.687C6.16102 9.8384 5.67326 9.85714 5.209 9.741C4.86349 9.65482 4.55675 9.4555 4.33765 9.17478C4.11855 8.89406 3.99969 8.5481 4 8.192V7.9185C4.0004 7.40972 4.20272 6.92189 4.56253 6.56218C4.92234 6.20246 5.41022 6.00027 5.919 6ZM5.919 4C4.87978 4.00027 3.8832 4.41318 3.14832 5.14796C2.41343 5.88275 2.0004 6.87928 2 7.9185V8.192C1.99975 8.99409 2.26775 9.77323 2.76135 10.4055C3.25495 11.0377 3.94581 11.4867 4.724 11.681C5.55727 11.8894 6.43268 11.8557 7.2475 11.584L9 11V7.081C9.00013 6.67636 8.92053 6.27566 8.76574 5.9018C8.61095 5.52793 8.38401 5.18823 8.09789 4.90211C7.81177 4.61599 7.47207 4.38905 7.0982 4.23426C6.72434 4.07947 6.32364 3.99987 5.919 4Z" fill="#43A047"/>
</svg>
