<svg width="16" height="16" viewBox="0 0 16 16" fill="none" xmlns="http://www.w3.org/2000/svg">
<path fill-rule="evenodd" clip-rule="evenodd" d="M1.42857 10.7143V2.42857H14.5714V10.7143H1.42857ZM11.2286 12.1429H14.7143C15.424 12.1429 16 11.5669 16 10.8571V2.28571C16 1.576 15.424 1 14.7143 1H1.28571C0.576 1 0 1.576 0 2.28571V10.8571C0 11.5669 0.576 12.1429 1.28571 12.1429H4.77143C4.19208 12.7779 3.81422 13.5706 3.68571 14.4206C3.6659 14.5504 3.67186 14.6828 3.70323 14.8104C3.73461 14.9379 3.7908 15.058 3.86859 15.1638C4.02569 15.3775 4.26124 15.52 4.52343 15.56C4.78561 15.6 5.05296 15.5342 5.26664 15.3771C5.48032 15.22 5.62285 14.9845 5.66286 14.7223C5.74702 14.1627 6.0292 13.6518 6.45808 13.2826C6.88697 12.9134 7.43409 12.7104 8 12.7104C8.56591 12.7104 9.11303 12.9134 9.54192 13.2826C9.9708 13.6518 10.253 14.1627 10.3371 14.7223C10.357 14.8521 10.4021 14.9768 10.4701 15.0891C10.5381 15.2015 10.6276 15.2993 10.7334 15.3771C10.8392 15.4549 10.9593 15.5111 11.0868 15.5425C11.2143 15.5739 11.3468 15.5798 11.4766 15.56C11.6064 15.5402 11.731 15.495 11.8434 15.427C11.9558 15.359 12.0536 15.2696 12.1314 15.1638C12.2092 15.058 12.2654 14.9379 12.2968 14.8104C12.3281 14.6828 12.3341 14.5504 12.3143 14.4206C12.1858 13.5706 11.8079 12.7779 11.2286 12.1429Z" fill="currentColor"/>
</svg>
