<svg width="16" height="16" viewBox="0 0 16 16" fill="none" xmlns="http://www.w3.org/2000/svg">
<path d="M14.6667 2H4.66667C4.20667 2 3.84667 2.23333 3.60667 2.58667L0 8L3.60667 13.4067C3.84667 13.76 4.25333 14 4.71333 14H14.6667C15.4 14 16 13.4 16 12.6667V3.33333C16 2.6 15.4 2 14.6667 2ZM6 9C5.44667 9 5 8.55333 5 8C5 7.44667 5.44667 7 6 7C6.55333 7 7 7.44667 7 8C7 8.55333 6.55333 9 6 9ZM9.33333 9C8.78 9 8.33333 8.55333 8.33333 8C8.33333 7.44667 8.78 7 9.33333 7C9.88667 7 10.3333 7.44667 10.3333 8C10.3333 8.55333 9.88667 9 9.33333 9ZM12.6667 9C12.1133 9 11.6667 8.55333 11.6667 8C11.6667 7.44667 12.1133 7 12.6667 7C13.22 7 13.6667 7.44667 13.6667 8C13.6667 8.55333 13.22 9 12.6667 9Z" fill="currentColor"/>
</svg>
