<svg width="16" height="16" viewBox="0 0 16 16" fill="none" xmlns="http://www.w3.org/2000/svg">
<g clip-path="url(#clip0_448_65)">
<path d="M13.8667 5.95555C14.0476 6.47191 14.1597 7.00988 14.2 7.55555H7.77332L3.68887 12.4755C2.67692 11.4893 2.03078 10.188 1.85676 8.78576C1.68274 7.38348 1.9912 5.96373 2.7314 4.76008C3.47159 3.55642 4.59943 2.64055 5.92938 2.16314C7.25932 1.68573 8.71216 1.67522 10.0489 2.13333C10.0957 1.8385 10.1824 1.55142 10.3067 1.27999C8.78056 0.752309 7.12063 0.757674 5.59798 1.29521C4.07533 1.83275 2.77993 2.8707 1.92336 4.23953C1.06679 5.60836 0.69966 7.22718 0.881937 8.83161C1.06421 10.436 1.78512 11.9313 2.92692 13.0731C4.06872 14.2149 5.56394 14.9358 7.16837 15.118C8.77279 15.3003 10.3916 14.9332 11.7605 14.0766C13.1293 13.22 14.1672 11.9246 14.7048 10.402C15.2423 8.87935 15.2477 7.21942 14.72 5.69333C14.4488 5.81911 14.1617 5.90733 13.8667 5.95555ZM7.99998 14.2222C6.69715 14.2219 5.42777 13.8096 4.37332 13.0444L8.1911 8.44444H14.2C14.0877 10.0126 13.3859 11.4802 12.2357 12.552C11.0855 13.6239 9.57219 14.2206 7.99998 14.2222Z" fill="currentColor"/>
<path d="M13.3333 4.88889C14.5606 4.88889 15.5555 3.89396 15.5555 2.66667C15.5555 1.43937 14.5606 0.444443 13.3333 0.444443C12.106 0.444443 11.1111 1.43937 11.1111 2.66667C11.1111 3.89396 12.106 4.88889 13.3333 4.88889Z" fill="currentColor"/>
</g>
<defs>
<clipPath id="clip0_448_65">
<rect width="16" height="16" fill="white"/>
</clipPath>
</defs>
</svg>
