<svg width="16" height="16" viewBox="0 0 16 16" fill="none" xmlns="http://www.w3.org/2000/svg">
<path d="M14.4733 13.5267L13.5266 14.4733C13.4017 14.5975 13.2327 14.6672 13.0566 14.6672C12.8805 14.6672 12.7115 14.5975 12.5866 14.4733L4.66663 6.56666C4.44985 6.62955 4.22564 6.66318 3.99996 6.66666C3.57549 6.66636 3.15723 6.56473 2.77995 6.37024C2.40267 6.17574 2.07727 5.89399 1.8308 5.54841C1.58433 5.20284 1.42392 4.80342 1.3629 4.38336C1.30187 3.9633 1.34201 3.53475 1.47996 3.13333L3.17329 4.82666L3.52663 4.47333L4.47329 3.52666L4.82663 3.17333L3.13329 1.47999C3.53471 1.34204 3.96327 1.30191 4.38332 1.36293C4.80338 1.42395 5.2028 1.58437 5.54838 1.83084C5.89395 2.0773 6.1757 2.40271 6.3702 2.77999C6.5647 3.15727 6.66632 3.57553 6.66663 3.99999C6.66314 4.22568 6.62951 4.44989 6.56663 4.66666L14.4733 12.5867C14.5975 12.7116 14.6672 12.8805 14.6672 13.0567C14.6672 13.2328 14.5975 13.4018 14.4733 13.5267ZM1.52663 12.5867C1.40246 12.7116 1.33276 12.8805 1.33276 13.0567C1.33276 13.2328 1.40246 13.4018 1.52663 13.5267L2.47329 14.4733C2.5982 14.5975 2.76717 14.6672 2.94329 14.6672C3.11942 14.6672 3.28838 14.5975 3.41329 14.4733L7.05996 10.8333L5.17329 8.94666M13.3333 1.33333L10.6666 2.66666V3.99999L9.21996 5.44666L10.5533 6.78L12 5.33333H13.3333L14.6666 2.66666L13.3333 1.33333Z" fill="currentColor"/>
</svg>
