<svg width="16" height="16" viewBox="0 0 16 16" fill="none" xmlns="http://www.w3.org/2000/svg">
<path d="M14.3534 4.76667C14.252 4.70816 14.1371 4.67735 14.02 4.67735C13.903 4.67735 13.7881 4.70816 13.6867 4.76667L11.3334 5.92667C11.3144 5.40905 11.0953 4.91898 10.7223 4.55963C10.3492 4.20027 9.85134 3.99965 9.33337 4H3.33337C2.80294 4 2.29423 4.21071 1.91916 4.58579C1.54409 4.96086 1.33337 5.46957 1.33337 6V10C1.33337 10.5304 1.54409 11.0391 1.91916 11.4142C2.29423 11.7893 2.80294 12 3.33337 12H9.33337C9.85134 12.0003 10.3492 11.7997 10.7223 11.4404C11.0953 11.081 11.3144 10.591 11.3334 10.0733L13.7067 11.26C13.7976 11.3066 13.8979 11.3317 14 11.3333C14.1249 11.3337 14.2473 11.2991 14.3534 11.2333C14.4495 11.1733 14.5286 11.0897 14.5835 10.9906C14.6383 10.8914 14.6669 10.78 14.6667 10.6667V5.33333C14.6669 5.22004 14.6383 5.10855 14.5835 5.0094C14.5286 4.91026 14.4495 4.82671 14.3534 4.76667ZM10 10C10 10.1768 9.9298 10.3464 9.80478 10.4714C9.67975 10.5964 9.51019 10.6667 9.33337 10.6667H3.33337C3.15656 10.6667 2.98699 10.5964 2.86197 10.4714C2.73695 10.3464 2.66671 10.1768 2.66671 10V6C2.66671 5.82319 2.73695 5.65362 2.86197 5.5286C2.98699 5.40357 3.15656 5.33333 3.33337 5.33333H9.33337C9.51019 5.33333 9.67975 5.40357 9.80478 5.5286C9.9298 5.65362 10 5.82319 10 6V10ZM13.3334 9.58667L11.3334 8.58667V7.41333L13.3334 6.41333V9.58667Z" fill="currentColor"/>
</svg>
