<svg width="64" height="64" viewBox="0 0 64 64" fill="none" xmlns="http://www.w3.org/2000/svg">
<path d="M17.356 1.73197C18.378 0.709916 19.755 0.133073 21.1923 0.124896L43.1311 8.81236e-05C44.5897 -0.00820957 45.9918 0.569774 47.029 1.60691L62.3669 16.9433C63.4196 17.9959 64.0083 19.4333 63.9999 20.9305L63.8772 42.7435C63.8689 44.2186 63.2816 45.63 62.2444 46.6672L46.644 62.268C45.622 63.2901 44.245 63.8669 42.8077 63.8751L20.8689 63.9999C19.4103 64.0082 18.0082 63.4302 16.971 62.3931L1.63314 47.0567C0.580384 46.0041 -0.0083329 44.5667 8.91349e-05 43.0695L0.122792 21.2565C0.13109 19.7814 0.718416 18.37 1.75559 17.3328L17.356 1.73197Z" fill="#1E3A8A"/>
<path d="M30.5804 43.984C30.303 44.0053 30.047 43.9413 29.8124 43.792C29.599 43.664 29.4497 43.4933 29.3644 43.28C29.279 43.1733 29.1404 42.9387 28.9484 42.576C28.7564 42.2347 28.639 41.936 28.5964 41.68C28.5324 40.9973 28.4897 40.336 28.4684 39.696C28.4684 39.056 28.5004 38.16 28.5644 37.008C28.6284 36.0693 28.7564 35.2373 28.9484 34.512C29.1404 33.7653 29.3324 33.136 29.5244 32.624C29.7164 32.0907 29.8657 31.696 29.9724 31.44C30.079 31.1627 30.1004 31.024 30.0364 31.024C29.951 31.024 29.855 31.1093 29.7484 31.28C29.663 31.4293 29.5564 31.632 29.4284 31.888C29.3217 32.144 29.1937 32.4213 29.0444 32.72C28.9164 33.0187 28.7777 33.3067 28.6284 33.584C28.3297 34.2453 27.9777 34.9493 27.5724 35.696C27.1884 36.4213 26.7937 37.1253 26.3884 37.808C25.983 38.4907 25.631 39.088 25.3324 39.6C25.1404 39.8133 24.9164 40.1227 24.6604 40.528C24.4044 40.912 24.127 41.3173 23.8284 41.744C23.5297 42.1707 23.2204 42.5227 22.9004 42.8C22.431 43.248 21.951 43.5147 21.4604 43.6C20.9697 43.7067 20.511 43.6533 20.0844 43.44C19.871 43.4187 19.647 43.3013 19.4124 43.088C19.1777 42.896 18.9857 42.6507 18.8364 42.352C18.7084 42.0533 18.6764 41.776 18.7404 41.52C18.719 41.2213 18.719 40.7627 18.7404 40.144C18.783 39.504 18.847 38.8107 18.9324 38.064C19.0177 37.296 19.103 36.56 19.1884 35.856C19.295 35.152 19.391 34.5653 19.4764 34.096C19.6684 32.7307 19.9244 31.3333 20.2444 29.904C20.5857 28.4747 20.895 27.0347 21.1724 25.584C21.343 25.1573 21.4924 24.6773 21.6204 24.144C21.7697 23.5893 21.919 23.0773 22.0684 22.608C22.0897 22.1387 22.2604 21.8507 22.5804 21.744C22.9004 21.616 23.2417 21.5947 23.6044 21.68C23.9884 21.7653 24.255 21.9147 24.4044 22.128C24.6177 22.3413 24.8204 22.672 25.0124 23.12C25.2044 23.568 25.151 24.1333 24.8524 24.816C24.4257 25.8613 24.0097 27.1413 23.6044 28.656C23.2204 30.1493 22.8684 31.9627 22.5484 34.096C22.463 34.608 22.367 35.184 22.2604 35.824C22.175 36.4427 22.0897 37.04 22.0044 37.616C21.9404 38.192 21.887 38.672 21.8444 39.056C21.823 39.4187 21.8337 39.6107 21.8764 39.632C22.047 39.6747 22.2284 39.5787 22.4204 39.344C22.6337 39.1093 22.8577 38.736 23.0924 38.224C23.967 36.7733 24.7884 35.3333 25.5564 33.904C26.3457 32.4747 27.135 30.9813 27.9244 29.424C28.287 28.8053 28.6497 28.1333 29.0124 27.408C29.3964 26.6613 29.759 25.9787 30.1004 25.36C30.463 24.72 30.815 24.1013 31.1564 23.504C31.4977 22.9067 31.7964 22.4053 32.0524 22C32.3084 21.5733 32.5004 21.3387 32.6284 21.296C33.2044 21.296 33.631 21.4453 33.9084 21.744C34.207 22.0427 34.4417 22.4053 34.6124 22.832C34.655 22.9387 34.6764 23.12 34.6764 23.376C34.6977 23.632 34.6657 23.856 34.5804 24.048C34.559 24.1973 34.463 24.5067 34.2924 24.976C34.143 25.4453 34.0044 25.968 33.8764 26.544C33.663 27.12 33.471 27.696 33.3004 28.272C33.151 28.8267 33.0444 29.2853 32.9804 29.648C32.8097 30.5653 32.5964 31.568 32.3404 32.656C32.0844 33.744 31.8604 34.832 31.6684 35.92C31.4977 36.9867 31.4017 37.936 31.3804 38.768C31.359 39.3653 31.359 39.76 31.3804 39.952C31.423 40.1227 31.487 40.304 31.5724 40.496C31.615 40.6667 31.711 40.7093 31.8604 40.624C32.0097 40.5387 32.159 40.3893 32.3084 40.176C32.607 39.728 32.831 39.344 32.9804 39.024C33.151 38.704 33.3217 38.3627 33.4924 38C33.663 37.616 33.8977 37.136 34.1964 36.56C34.7297 35.5787 35.2737 34.5013 35.8284 33.328C36.4044 32.1547 36.9484 30.992 37.4604 29.84C37.9937 28.688 38.4524 27.664 38.8364 26.768C39.2417 25.616 39.583 24.688 39.8604 23.984C40.1377 23.2587 40.3937 22.704 40.6284 22.32C40.863 21.936 41.087 21.68 41.3004 21.552C41.407 21.4667 41.631 21.424 41.9724 21.424C42.335 21.424 42.6124 21.5093 42.8044 21.68C42.8897 21.7653 43.039 21.904 43.2524 22.096C43.4657 22.288 43.5617 22.512 43.5404 22.768C43.4337 23.1093 43.231 23.664 42.9324 24.432C42.655 25.2 42.3244 26.0533 41.9404 26.992C41.5777 27.9093 41.215 28.7947 40.8524 29.648C40.511 30.48 40.223 31.1413 39.9884 31.632C39.7537 32.08 39.5297 32.464 39.3164 32.784C39.103 33.104 38.9964 33.3493 38.9964 33.52C38.9964 33.6053 38.8897 33.872 38.6764 34.32C38.463 34.7467 38.1857 35.2693 37.8444 35.888C37.5244 36.5067 37.1724 37.1467 36.7884 37.808C36.4044 38.4693 36.0417 39.0773 35.7004 39.632C35.359 40.1867 35.071 40.6133 34.8364 40.912C34.303 41.5733 33.727 42.128 33.1084 42.576C32.511 43.0453 31.9777 43.3973 31.5084 43.632C31.039 43.8667 30.7297 43.984 30.5804 43.984Z" fill="#F9FAFB"/>
<path d="M44.4347 41.07C44.0747 41.082 43.8107 40.896 43.6427 40.512C43.4867 40.14 43.5767 39.552 43.9127 38.748C43.9847 38.616 44.0507 38.484 44.1107 38.352C44.1827 38.22 44.2247 38.112 44.2367 38.028C44.2727 37.944 44.3507 37.782 44.4707 37.542C44.5907 37.29 44.7407 36.99 44.9207 36.642C45.1007 36.294 45.2867 35.934 45.4787 35.562C45.6827 35.19 45.8687 34.842 46.0367 34.518C46.2167 34.182 46.3667 33.906 46.4867 33.69C46.6067 33.474 46.6787 33.348 46.7027 33.312C46.7627 33.324 46.8167 33.294 46.8647 33.222C46.9127 33.138 46.9427 33.054 46.9547 32.97C46.9787 32.862 47.0207 32.754 47.0807 32.646C47.1407 32.538 47.2007 32.472 47.2607 32.448C47.2727 32.388 47.2967 32.322 47.3327 32.25C47.3687 32.178 47.3927 32.118 47.4047 32.07C47.4167 32.022 47.4407 31.98 47.4767 31.944C47.5127 31.896 47.5307 31.848 47.5307 31.8C47.6267 31.68 47.7707 31.458 47.9627 31.134C48.1667 30.81 48.3947 30.432 48.6467 30C48.8987 29.556 49.1567 29.1 49.4207 28.632C49.6847 28.152 49.9307 27.702 50.1587 27.282C50.3867 26.862 50.5727 26.514 50.7167 26.238C50.8607 25.95 50.9387 25.782 50.9507 25.734C50.9627 25.554 51.0767 25.482 51.2927 25.518C51.3767 25.458 51.4727 25.44 51.5807 25.464C51.5807 25.464 51.6407 25.53 51.7607 25.662C51.8927 25.782 52.0007 25.902 52.0847 26.022C52.1807 26.118 52.2227 26.22 52.2107 26.328C52.2107 26.436 52.1927 26.556 52.1567 26.688C52.1327 26.844 52.0907 26.982 52.0307 27.102C51.9827 27.222 51.8807 27.384 51.7247 27.588C51.5807 27.792 51.3587 28.11 51.0587 28.542C50.9867 28.65 50.8727 28.83 50.7167 29.082C50.5727 29.334 50.4167 29.598 50.2487 29.874C50.0927 30.15 49.9607 30.39 49.8527 30.594C49.7447 30.798 49.6907 30.912 49.6907 30.936C49.6787 30.984 49.6367 31.056 49.5647 31.152C49.5047 31.236 49.4447 31.35 49.3847 31.494C49.3127 31.578 49.2167 31.71 49.0967 31.89C48.9887 32.058 48.8747 32.238 48.7547 32.43C48.6347 32.61 48.5267 32.772 48.4307 32.916C48.3467 33.048 48.3047 33.126 48.3047 33.15C48.2927 33.186 48.2747 33.228 48.2507 33.276C48.2387 33.324 48.2027 33.366 48.1427 33.402C48.1067 33.39 48.0767 33.42 48.0527 33.492C48.0287 33.552 48.0167 33.582 48.0167 33.582C48.0407 33.678 47.8967 33.978 47.5847 34.482C47.4647 34.734 47.3027 35.064 47.0987 35.472C46.8947 35.88 46.6727 36.318 46.4327 36.786C46.2047 37.254 45.9827 37.71 45.7667 38.154C45.5507 38.598 45.3707 38.988 45.2267 39.324C45.0827 39.66 44.9987 39.894 44.9747 40.026C44.9267 40.302 44.8487 40.536 44.7407 40.728C44.6327 40.92 44.5307 41.034 44.4347 41.07Z" fill="#F9FAFB"/>
<path d="M52.5181 38.64C52.4461 38.664 52.3321 38.616 52.1761 38.496C52.0321 38.364 51.9301 38.28 51.8701 38.244C51.7501 38.148 51.6601 38.088 51.6001 38.064C51.5401 38.028 51.4981 37.962 51.4741 37.866C51.4741 37.866 51.4861 37.812 51.5101 37.704C51.5461 37.596 51.6061 37.506 51.6901 37.434C51.8581 37.29 52.0741 37.152 52.3381 37.02C52.6141 36.876 52.9441 36.702 53.3281 36.498C53.7241 36.294 54.1801 36.036 54.6961 35.724C55.0201 35.52 55.2661 35.382 55.4341 35.31C55.6021 35.238 55.7101 35.172 55.7581 35.112C55.8061 35.052 55.8181 34.944 55.7941 34.788C55.5901 34.548 55.2541 34.308 54.7861 34.068C54.3301 33.816 53.6521 33.552 52.7521 33.276C52.3081 33.132 51.9781 33 51.7621 32.88C51.5461 32.748 51.4021 32.616 51.3301 32.484C51.2701 32.352 51.2521 32.208 51.2761 32.052C51.3361 31.944 51.4861 31.86 51.7261 31.8C51.9661 31.728 52.2361 31.692 52.5361 31.692C52.8481 31.692 53.1301 31.752 53.3821 31.872C53.7541 31.968 54.0781 32.058 54.3541 32.142C54.6301 32.214 54.9361 32.382 55.2721 32.646C55.6801 32.874 56.0041 33.066 56.2441 33.222C56.4961 33.378 56.7361 33.618 56.9641 33.942L57.5581 34.662L57.7561 35.616C57.6601 35.628 57.5701 35.658 57.4861 35.706C57.4021 35.754 57.3481 35.784 57.3241 35.796C57.1801 35.868 57.0301 35.958 56.8741 36.066C56.7301 36.162 56.5321 36.294 56.2801 36.462C56.0281 36.618 55.6741 36.828 55.2181 37.092C54.6661 37.38 54.1861 37.644 53.7781 37.884C53.3701 38.124 53.1061 38.304 52.9861 38.424C52.9141 38.508 52.8301 38.568 52.7341 38.604C52.6501 38.628 52.5781 38.64 52.5181 38.64Z" fill="#F9FAFB"/>
<path d="M11.7474 38.226C11.3754 38.13 11.0514 38.046 10.7754 37.974C10.4994 37.89 10.1934 37.716 9.8574 37.452C9.4494 37.212 9.1194 37.02 8.8674 36.876C8.6274 36.72 8.3934 36.48 8.1654 36.156L7.5714 35.436L7.3734 34.482C7.4694 34.458 7.5594 34.428 7.6434 34.392C7.7394 34.344 7.7934 34.314 7.8054 34.302C7.9494 34.23 8.0934 34.146 8.2374 34.05C8.3934 33.942 8.5974 33.804 8.8494 33.636C9.1014 33.468 9.4554 33.258 9.9114 33.006C10.4754 32.718 10.9554 32.454 11.3514 32.214C11.7594 31.974 12.0234 31.794 12.1434 31.674C12.2154 31.59 12.2994 31.536 12.3954 31.512C12.4914 31.476 12.5634 31.458 12.6114 31.458C12.6834 31.434 12.7974 31.488 12.9534 31.62C13.1094 31.74 13.2114 31.818 13.2594 31.854C13.3914 31.938 13.4874 31.998 13.5474 32.034C13.6074 32.07 13.6434 32.136 13.6554 32.232C13.6554 32.232 13.6374 32.286 13.6014 32.394C13.5774 32.502 13.5234 32.592 13.4394 32.664C13.2834 32.796 13.0674 32.934 12.7914 33.078C12.5274 33.222 12.1974 33.396 11.8014 33.6C11.4174 33.792 10.9614 34.05 10.4334 34.374C10.1094 34.566 9.8634 34.704 9.6954 34.788C9.5274 34.86 9.4194 34.926 9.3714 34.986C9.3234 35.046 9.3114 35.154 9.3354 35.31C9.5394 35.55 9.8694 35.796 10.3254 36.048C10.7934 36.288 11.4774 36.546 12.3774 36.822C12.8214 36.954 13.1514 37.086 13.3674 37.218C13.5954 37.35 13.7394 37.482 13.7994 37.614C13.8594 37.746 13.8774 37.89 13.8534 38.046C13.7934 38.154 13.6434 38.244 13.4034 38.316C13.1634 38.376 12.8874 38.406 12.5754 38.406C12.2754 38.394 11.9994 38.334 11.7474 38.226Z" fill="#F9FAFB"/>
</svg>
