<svg width="16" height="16" viewBox="0 0 16 16" fill="none" xmlns="http://www.w3.org/2000/svg">
<g clip-path="url(#clip0_767_19)">
<path d="M8.00001 2.99998C8.00001 2.55795 7.82441 2.13403 7.51185 1.82147C7.19929 1.50891 6.77537 1.33331 6.33334 1.33331C5.89131 1.33331 5.46739 1.50891 5.15483 1.82147C4.84227 2.13403 4.66667 2.55795 4.66667 2.99998C4.31211 2.99995 3.9639 3.09418 3.65774 3.27302C3.35158 3.45186 3.09846 3.70887 2.92433 4.01773C2.75019 4.32659 2.66129 4.67619 2.66674 5.03072C2.67219 5.38525 2.77179 5.73195 2.95534 6.03531C2.49903 6.12348 2.08766 6.36776 1.79184 6.72621C1.49603 7.08465 1.33423 7.5349 1.33423 7.99965C1.33423 8.46439 1.49603 8.91464 1.79184 9.27309C2.08766 9.63153 2.49903 9.87581 2.95534 9.96398C2.77162 10.2674 2.67188 10.6141 2.66635 10.9688C2.66081 11.3234 2.74967 11.6731 2.92383 11.9821C3.09799 12.291 3.35117 12.5481 3.65743 12.727C3.96369 12.9059 4.31201 13.0001 4.66667 13C4.66667 13.442 4.84227 13.8659 5.15483 14.1785C5.46739 14.4911 5.89131 14.6666 6.33334 14.6666C6.77537 14.6666 7.19929 14.4911 7.51185 14.1785C7.82441 13.8659 8.00001 13.442 8.00001 13M8.00001 13C8.00001 13.442 8.1756 13.8659 8.48816 14.1785C8.80072 14.4911 9.22465 14.6666 9.66667 14.6666C10.1087 14.6666 10.5326 14.4911 10.8452 14.1785C11.1577 13.8659 11.3333 13.442 11.3333 13C11.688 13.0001 12.0363 12.9059 12.3426 12.727C12.6488 12.5481 12.902 12.291 13.0762 11.9821C13.2503 11.6731 13.3392 11.3234 13.3337 10.9688C13.3281 10.6141 13.2284 10.2674 13.0447 9.96398C13.501 9.87581 13.9124 9.63153 14.2082 9.27309C14.504 8.91464 14.6658 8.46439 14.6658 7.99965C14.6658 7.5349 14.504 7.08465 14.2082 6.72621C13.9124 6.36776 13.501 6.12348 13.0447 6.03531C13.2282 5.73195 13.3278 5.38525 13.3333 5.03072C13.3387 4.67619 13.2498 4.32659 13.0757 4.01773C12.9016 3.70887 12.6484 3.45186 12.3423 3.27302C12.0361 3.09418 11.6879 2.99995 11.3333 2.99998C11.3333 2.55795 11.1577 2.13403 10.8452 1.82147C10.5326 1.50891 10.1087 1.33331 9.66667 1.33331C9.22465 1.33331 8.80072 1.50891 8.48816 1.82147C8.1756 2.13403 8.00001 2.55795 8.00001 2.99998" stroke="black" stroke-linecap="round" stroke-linejoin="round"/>
<path d="M6.99142 4.66663V5.98663M4.66675 6.99996H6.03475M10.0154 6.99996H11.3834M10.0154 8.98263H11.3834M4.66675 8.98329H6.03475M6.99142 10.0133V11.3333M9.00808 10.0133V11.3333M9.00141 4.66663V5.98663M6.70141 9.97863H9.34875C9.52556 9.97863 9.69513 9.90839 9.82015 9.78336C9.94518 9.65834 10.0154 9.48877 10.0154 9.31196V6.65329C10.0154 6.47648 9.94518 6.30691 9.82015 6.18189C9.69513 6.05686 9.52556 5.98663 9.34875 5.98663H6.70141C6.5246 5.98663 6.35503 6.05686 6.23001 6.18189C6.10499 6.30691 6.03475 6.47648 6.03475 6.65329V9.31196C6.03475 9.48877 6.10499 9.65834 6.23001 9.78336C6.35503 9.90839 6.5246 9.97863 6.70141 9.97863Z" stroke="black" stroke-linecap="round"/>
</g>
<defs>
<clipPath id="clip0_767_19">
<rect width="16" height="16" fill="white"/>
</clipPath>
</defs>
</svg>
