<svg width="16" height="16" viewBox="0 0 16 16" fill="none" xmlns="http://www.w3.org/2000/svg">
<g clip-path="url(#clip0_767_23)">
<path d="M3.82812 10.4922C3.69792 10.4922 3.57292 10.4661 3.45312 10.414C3.33333 10.362 3.22396 10.289 3.125 10.1953L0.289062 7.35935C0.0963542 7.16665 0 6.93227 0 6.65623C0 6.5156 0.0260417 6.3854 0.078125 6.2656C0.130208 6.14581 0.200521 6.04165 0.289062 5.9531C0.377604 5.86456 0.484375 5.79425 0.609375 5.74217C0.734375 5.69008 0.864583 5.66404 1 5.66404C1.13542 5.66404 1.26302 5.68748 1.38281 5.73435C1.5026 5.78123 1.61198 5.85415 1.71094 5.9531L4.53906 8.78123C4.63281 8.87498 4.70312 8.98175 4.75 9.10154C4.79688 9.22133 4.82292 9.35154 4.82812 9.49217C4.82812 9.62758 4.80208 9.75519 4.75 9.87498C4.69792 9.99477 4.6276 10.1015 4.53906 10.1953C4.45052 10.289 4.34375 10.362 4.21875 10.414C4.09375 10.4661 3.96354 10.4922 3.82812 10.4922ZM9.48438 4.83592C9.35417 4.83592 9.22917 4.80988 9.10938 4.75779C8.98958 4.70571 8.88021 4.63279 8.78125 4.53904L5.95312 1.71092C5.75521 1.513 5.65625 1.27602 5.65625 0.99998C5.65625 0.859355 5.68229 0.729146 5.73438 0.609355C5.78646 0.489563 5.85677 0.385396 5.94531 0.296855C6.03385 0.208313 6.14062 0.135396 6.26562 0.0781047C6.39062 0.020813 6.52083 -0.00522868 6.65625 -2.0345e-05C6.93229 -2.0345e-05 7.16667 0.0963338 7.35938 0.289042L10.1953 3.12498C10.2891 3.21873 10.3594 3.3255 10.4062 3.44529C10.4531 3.56508 10.4792 3.69529 10.4844 3.83592C10.4844 3.97133 10.4583 4.09894 10.4062 4.21873C10.3542 4.33852 10.2839 4.44529 10.1953 4.53904C10.1068 4.63279 10 4.70571 9.875 4.75779C9.75 4.80988 9.61979 4.83592 9.48438 4.83592ZM5.42188 7.8906L2.59375 5.06248L5.0625 2.59373L7.89062 5.42185L5.42188 7.8906ZM15.1406 14.4375C15.2396 14.5364 15.2891 14.6536 15.2891 14.789C15.2891 14.9245 15.2396 15.0416 15.1406 15.1406C15.0417 15.2396 14.9245 15.289 14.7891 15.289C14.6536 15.289 14.5365 15.2396 14.4375 15.1406L7.00781 7.71873L7.71875 7.00779L15.1406 14.4375ZM0 15H8V16H0V15ZM1 13H7V14H1V13Z" fill="black"/>
</g>
<defs>
<clipPath id="clip0_767_23">
<rect width="16" height="16" fill="white"/>
</clipPath>
</defs>
</svg>
