<svg width="16" height="16" viewBox="0 0 16 16" fill="none" xmlns="http://www.w3.org/2000/svg">
<path d="M2 9.99998V12C2 12.1768 2.07024 12.3464 2.19526 12.4714C2.32029 12.5964 2.48986 12.6666 2.66667 12.6666H5.33333V9.99998M2 9.99998V7.33331M2 9.99998H5.33333M5.33333 9.99998V7.33331H2M2 7.33331V3.99998C2 3.82317 2.07024 3.6536 2.19526 3.52858C2.32029 3.40355 2.48986 3.33331 2.66667 3.33331H13.3333C13.5101 3.33331 13.6797 3.40355 13.8047 3.52858C13.9298 3.6536 14 3.82317 14 3.99998V5.32665M11.6467 12.7813L11.0673 11.822L9.19 11.6653L7.47467 8.82731L8.466 6.93665L9.42867 8.52931C9.55243 8.73406 9.75247 8.88126 9.98476 8.93852C10.2171 8.99578 10.4626 8.95841 10.6673 8.83465C10.8721 8.71088 11.0193 8.51085 11.0765 8.27855C11.1338 8.04625 11.0964 7.80073 10.9727 7.59598L10.01 6.00265H12.1007L13.8407 8.85465L13.126 10.578L13.706 11.5366" stroke="black" stroke-width="1.33333" stroke-linecap="round" stroke-linejoin="round"/>
</svg>
