<svg width="16" height="16" viewBox="0 0 16 16" fill="none" xmlns="http://www.w3.org/2000/svg">
<path d="M12.1201 5.35997L12.4287 5.05064C12.6745 4.80478 13.0079 4.66663 13.3555 4.66656C13.7031 4.6665 14.0365 4.80454 14.2824 5.05031C14.5283 5.29607 14.6664 5.62944 14.6665 5.97707C14.6665 6.3247 14.5285 6.65812 14.2827 6.90397L13.9741 7.21331M12.1201 5.35997C12.1201 5.35997 12.1587 6.01597 12.7381 6.59531C13.3174 7.17464 13.9741 7.21331 13.9741 7.21331M12.1201 5.35997L9.28006 8.19997C9.08673 8.39197 8.99073 8.48864 8.90806 8.59464C8.81029 8.71997 8.72717 8.85464 8.65873 8.99864C8.60073 9.11997 8.55806 9.24864 8.47206 9.50664L8.19673 10.3333L8.1074 10.6006M13.9741 7.21331L11.1341 10.0533C10.9407 10.2466 10.8447 10.3426 10.7387 10.4253C10.6134 10.5231 10.4787 10.6062 10.3347 10.6746C10.2134 10.7326 10.0847 10.7753 9.82673 10.8613L9.00006 11.1366L8.73273 11.226M8.1074 10.6006L8.01873 10.8686C7.99808 10.9308 7.99514 10.9976 8.01023 11.0614C8.02533 11.1251 8.05787 11.1835 8.10422 11.2298C8.15057 11.2762 8.2089 11.3087 8.27268 11.3238C8.33646 11.3389 8.40319 11.336 8.4654 11.3153L8.73273 11.226M8.1074 10.6006L8.73273 11.226" stroke="black"/>
<path d="M5.33333 8.66665H7M5.33333 5.99998H9.66667M5.33333 11.3333H6.33333M13.2187 2.11465C12.438 1.33331 11.1807 1.33331 8.66667 1.33331H7.33333C4.81933 1.33331 3.562 1.33331 2.78133 2.11465C2.00067 2.89598 2 4.15265 2 6.66665V9.33331C2 11.8473 2 13.1046 2.78133 13.8853C3.56267 14.666 4.81933 14.6666 7.33333 14.6666H8.66667C11.1807 14.6666 12.438 14.6666 13.2187 13.8853C13.848 13.2566 13.97 12.32 13.994 10.6666" stroke="black" stroke-linecap="round"/>
</svg>
