<svg width="16" height="16" viewBox="0 0 16 16" fill="none" xmlns="http://www.w3.org/2000/svg">
<path d="M5.33327 13.3334C4.9666 13.3334 4.65282 13.2029 4.39193 12.942C4.13105 12.6811 4.00038 12.3671 3.99993 12V10.6667C3.99993 10.4778 4.06393 10.3196 4.19193 10.192C4.31993 10.0645 4.47816 10.0005 4.6666 10H5.99993V8.50002C5.6666 8.4778 5.33616 8.40846 5.0086 8.29202C4.68105 8.17558 4.39482 8.00046 4.14993 7.76669C4.08327 7.70002 4.0306 7.62513 3.99193 7.54202C3.95327 7.45891 3.93371 7.37269 3.93327 7.28335V6.83335H3.44994C3.36105 6.83335 3.27505 6.81669 3.19193 6.78335C3.10882 6.75002 3.03371 6.70002 2.9666 6.63335L1.4666 5.13335C1.33327 5.00002 1.2666 4.84446 1.2666 4.66669C1.2666 4.48891 1.33327 4.33335 1.4666 4.20002C1.78882 3.8778 2.22216 3.6418 2.7666 3.49202C3.31105 3.34224 3.81105 3.26713 4.2666 3.26669C4.5666 3.26669 4.85838 3.28891 5.14193 3.33335C5.42549 3.3778 5.71149 3.46113 5.99993 3.58335C5.99993 3.3278 6.08882 3.11113 6.2666 2.93335C6.44438 2.75558 6.66105 2.66669 6.9166 2.66669H12.6666C13.0333 2.66669 13.3473 2.79735 13.6086 3.05869C13.8699 3.32002 14.0004 3.6338 13.9999 4.00002V11.3334C13.9999 11.8889 13.8055 12.3611 13.4166 12.75C13.0277 13.1389 12.5555 13.3334 11.9999 13.3334H5.33327ZM7.33327 10H10.6666C10.8555 10 11.0139 10.064 11.1419 10.192C11.2699 10.32 11.3337 10.4782 11.3333 10.6667V11.3334C11.3333 11.5222 11.3973 11.6807 11.5253 11.8087C11.6533 11.9367 11.8115 12.0005 11.9999 12C12.1884 11.9996 12.3468 11.9356 12.4753 11.808C12.6037 11.6805 12.6675 11.5222 12.6666 11.3334V4.00002H7.33327V4.40002L11.1499 8.21669C11.2499 8.31669 11.311 8.43069 11.3333 8.55869C11.3555 8.68669 11.3388 8.81158 11.2833 8.93335C11.2277 9.05513 11.1499 9.15224 11.0499 9.22469C10.9499 9.29713 10.8222 9.33335 10.6666 9.33335C10.5777 9.33335 10.4917 9.3138 10.4086 9.27469C10.3255 9.23558 10.2559 9.18846 10.1999 9.13335L8.49994 7.43335L8.3666 7.56669C8.21105 7.72224 8.04727 7.86113 7.87527 7.98335C7.70327 8.10558 7.5226 8.20002 7.33327 8.26669V10ZM3.73327 5.50002H4.59993C4.78882 5.50002 4.94727 5.56402 5.07527 5.69202C5.20327 5.82002 5.26705 5.97824 5.2666 6.16669V6.93335C5.39994 7.02224 5.53882 7.08335 5.68327 7.11669C5.82771 7.15002 5.97771 7.16669 6.13327 7.16669C6.38882 7.16669 6.61949 7.1278 6.82527 7.05002C7.03105 6.97224 7.23371 6.83335 7.43327 6.63335L7.5666 6.50002L6.63327 5.56669C6.31105 5.24447 5.94993 5.00269 5.54993 4.84135C5.14993 4.68002 4.72216 4.59958 4.2666 4.60002C4.04438 4.60002 3.83327 4.61669 3.63327 4.65002C3.43327 4.68335 3.23327 4.73335 3.03327 4.80002L3.73327 5.50002ZM9.99994 11.3334H5.33327V12H10.0999C10.0666 11.9 10.0417 11.7945 10.0253 11.6834C10.0088 11.5722 10.0004 11.4556 9.99994 11.3334Z" fill="black"/>
</svg>
