<svg width="16" height="16" viewBox="0 0 16 16" fill="none" xmlns="http://www.w3.org/2000/svg">
<path d="M6.85725 12.5714L5.71439 15.4286M9.14296 12.5714L10.2858 15.4286M4.57153 15.4286H11.4287M14.8572 2.28571H1.14296C0.99141 2.28571 0.846064 2.34591 0.738901 2.45307C0.631737 2.56024 0.571533 2.70558 0.571533 2.85713V12C0.571533 12.1515 0.631737 12.2969 0.738901 12.4041C0.846064 12.5112 0.99141 12.5714 1.14296 12.5714H14.8572C15.0088 12.5714 15.1541 12.5112 15.2613 12.4041C15.3685 12.2969 15.4287 12.1515 15.4287 12V2.85713C15.4287 2.70558 15.3685 2.56024 15.2613 2.45307C15.1541 2.34591 15.0088 2.28571 14.8572 2.28571Z" stroke="black" stroke-width="1.14286" stroke-linecap="round" stroke-linejoin="round"/>
<path d="M5.14307 5.99997L3.14307 7.71426L4.85735 9.14283M11.1431 6.28569L12.8574 7.71426L10.8574 9.42855M7.14307 9.99997L8.85735 4.85712" stroke="black" stroke-width="1.14286" stroke-linecap="round" stroke-linejoin="round"/>
</svg>
