<svg width="16" height="16" viewBox="0 0 16 16" fill="none" xmlns="http://www.w3.org/2000/svg">
<path d="M8.66659 5.99998H7.33325V4.66665H8.66659M8.66659 11.3333H7.33325V7.33331H8.66659M7.99992 1.33331C7.12444 1.33331 6.25753 1.50575 5.4487 1.84078C4.63986 2.17581 3.90493 2.66688 3.28587 3.28593C2.03563 4.53618 1.33325 6.23187 1.33325 7.99998C1.33325 9.76809 2.03563 11.4638 3.28587 12.714C3.90493 13.3331 4.63986 13.8241 5.4487 14.1592C6.25753 14.4942 7.12444 14.6666 7.99992 14.6666C9.76803 14.6666 11.4637 13.9643 12.714 12.714C13.9642 11.4638 14.6666 9.76809 14.6666 7.99998C14.6666 7.1245 14.4941 6.25759 14.1591 5.44876C13.8241 4.63992 13.333 3.90499 12.714 3.28593C12.0949 2.66688 11.36 2.17581 10.5511 1.84078C9.7423 1.50575 8.8754 1.33331 7.99992 1.33331Z" fill="black"/>
</svg>
