<svg width="16" height="16" viewBox="0 0 16 16" fill="none" xmlns="http://www.w3.org/2000/svg">
<path d="M11.0126 11.0007C11.1293 10.91 11.2353 10.804 11.4466 10.5927L14.0846 7.95401C14.1486 7.89067 14.1193 7.78067 14.0346 7.75067C13.6215 7.60748 13.2466 7.37169 12.9386 7.06134C12.6282 6.75336 12.3924 6.37846 12.2493 5.96534C12.2193 5.88067 12.1093 5.85134 12.0459 5.91534L9.40659 8.55334C9.19526 8.76467 9.08926 8.87067 8.99859 8.98734C8.89059 9.12556 8.79903 9.27356 8.72392 9.43134C8.66059 9.56467 8.61326 9.70734 8.51859 9.99134L8.39592 10.358L8.20126 10.9413L8.01926 11.488C7.99656 11.5565 7.99336 11.63 8.01001 11.7002C8.02666 11.7705 8.06251 11.8347 8.11354 11.8857C8.16458 11.9368 8.2288 11.9726 8.29903 11.9892C8.36926 12.0059 8.44274 12.0027 8.51126 11.98L9.05792 11.798L9.64126 11.6033L10.0079 11.4807C10.2919 11.386 10.4346 11.3393 10.5679 11.2753C10.7257 11.1998 10.8744 11.1082 11.0126 11.0007ZM14.9113 7.12801C15.1817 6.85748 15.3336 6.49061 15.3335 6.1081C15.3335 5.72559 15.1814 5.35877 14.9109 5.08834C14.6404 4.81791 14.2735 4.66601 13.891 4.66608C13.5085 4.66614 13.1417 4.81815 12.8713 5.08867L12.7873 5.17401C12.7467 5.21366 12.7165 5.26266 12.6993 5.31671C12.6821 5.37076 12.6784 5.4282 12.6886 5.48401C12.7019 5.55534 12.7253 5.66067 12.7686 5.78534C12.8553 6.03534 13.0193 6.36334 13.3279 6.67201C13.6366 6.98067 13.9646 7.14467 14.2146 7.23134C14.3399 7.27467 14.4446 7.29801 14.5159 7.31134C14.5717 7.32093 14.629 7.31698 14.683 7.29981C14.7369 7.28263 14.7859 7.25275 14.8259 7.21267L14.9113 7.12801Z" fill="black"/>
<path fill-rule="evenodd" clip-rule="evenodd" d="M2.78133 2.11465C2 2.89531 2 4.15265 2 6.66665V9.33331C2 11.8473 2 13.1046 2.78133 13.8853C3.56267 14.666 4.81933 14.6666 7.33333 14.6666H8.66667C11.1807 14.6666 12.438 14.6666 13.2187 13.8853C13.9873 13.1173 14 11.888 14 9.45331L12.1213 11.332C11.9413 11.512 11.794 11.6593 11.628 11.7893C11.4333 11.9418 11.2222 12.0722 10.9987 12.178C10.7941 12.27 10.5839 12.3491 10.3693 12.4146L8.828 12.9286C8.58332 13.0102 8.32075 13.0221 8.06972 12.9628C7.81869 12.9036 7.58912 12.7756 7.40674 12.5932C7.22436 12.4109 7.09637 12.1813 7.03713 11.9303C6.97789 11.6792 6.98973 11.4167 7.07133 11.172L7.254 10.6253L7.57067 9.67465L7.58467 9.63065C7.66533 9.38931 7.73133 9.19198 7.822 9.00131C7.92867 8.77731 8.05822 8.56776 8.21067 8.37265C8.34067 8.20598 8.488 8.05931 8.668 7.87931L11.3387 5.20798L12.08 4.46665L12.1647 4.38198C12.3912 4.15475 12.6604 3.97457 12.9569 3.8518C13.2533 3.72903 13.5711 3.66611 13.892 3.66665C13.7913 2.97998 13.596 2.49131 13.2187 2.11465C12.438 1.33331 11.1807 1.33331 8.66667 1.33331H7.33333C4.81933 1.33331 3.562 1.33331 2.78133 2.11465ZM4.83333 5.99998C4.83333 5.86737 4.88601 5.74019 4.97978 5.64643C5.07355 5.55266 5.20073 5.49998 5.33333 5.49998H9.66667C9.79928 5.49998 9.92645 5.55266 10.0202 5.64643C10.114 5.74019 10.1667 5.86737 10.1667 5.99998C10.1667 6.13259 10.114 6.25976 10.0202 6.35353C9.92645 6.4473 9.79928 6.49998 9.66667 6.49998H5.33333C5.20073 6.49998 5.07355 6.4473 4.97978 6.35353C4.88601 6.25976 4.83333 6.13259 4.83333 5.99998ZM4.83333 8.66665C4.83333 8.53404 4.88601 8.40686 4.97978 8.31309C5.07355 8.21933 5.20073 8.16665 5.33333 8.16665H7C7.13261 8.16665 7.25979 8.21933 7.35355 8.31309C7.44732 8.40686 7.5 8.53404 7.5 8.66665C7.5 8.79925 7.44732 8.92643 7.35355 9.0202C7.25979 9.11397 7.13261 9.16665 7 9.16665H5.33333C5.20073 9.16665 5.07355 9.11397 4.97978 9.0202C4.88601 8.92643 4.83333 8.79925 4.83333 8.66665ZM4.83333 11.3333C4.83333 11.2007 4.88601 11.0735 4.97978 10.9798C5.07355 10.886 5.20073 10.8333 5.33333 10.8333H6.33333C6.46594 10.8333 6.59312 10.886 6.68689 10.9798C6.78065 11.0735 6.83333 11.2007 6.83333 11.3333C6.83333 11.4659 6.78065 11.5931 6.68689 11.6869C6.59312 11.7806 6.46594 11.8333 6.33333 11.8333H5.33333C5.20073 11.8333 5.07355 11.7806 4.97978 11.6869C4.88601 11.5931 4.83333 11.4659 4.83333 11.3333Z" fill="black"/>
</svg>
