<svg width="12" height="12" viewBox="0 0 12 12" fill="none" xmlns="http://www.w3.org/2000/svg">
<path d="M2.22001 7.53001C2.36064 7.67046 2.55126 7.74935 2.75001 7.74935C2.94876 7.74935 3.13939 7.67046 3.28001 7.53001L6.00001 4.81001L8.72001 7.53001C8.86219 7.66249 9.05023 7.73461 9.24453 7.73119C9.43883 7.72776 9.62422 7.64905 9.76163 7.51163C9.89905 7.37422 9.97776 7.18884 9.98119 6.99453C9.98462 6.80023 9.91249 6.61219 9.78001 6.47001L6.53001 3.22001C6.38939 3.07956 6.19876 3.00067 6.00001 3.00067C5.80126 3.00067 5.61064 3.07956 5.47001 3.22001L2.22001 6.47001C2.07956 6.61064 2.00067 6.80126 2.00067 7.00001C2.00067 7.19876 2.07956 7.38939 2.22001 7.53001Z" fill="currentColor"/>
</svg>
