<svg width="12" height="12" viewBox="0 0 12 12" fill="none" xmlns="http://www.w3.org/2000/svg">
<path d="M4.47001 2.22001C4.32956 2.36064 4.25067 2.55126 4.25067 2.75001C4.25067 2.94876 4.32956 3.13939 4.47001 3.28001L7.19001 6.00001L4.47001 8.72001C4.33753 8.86219 4.26541 9.05023 4.26884 9.24453C4.27226 9.43883 4.35098 9.62422 4.48839 9.76163C4.6258 9.89905 4.81119 9.97776 5.00549 9.98119C5.19979 9.98462 5.38784 9.91249 5.53001 9.78001L8.78001 6.53001C8.92046 6.38939 8.99935 6.19876 8.99935 6.00001C8.99935 5.80126 8.92046 5.61064 8.78001 5.47001L5.53001 2.22001C5.38939 2.07956 5.19876 2.00067 5.00001 2.00067C4.80126 2.00067 4.61064 2.07956 4.47001 2.22001Z" fill="currentColor"/>
</svg>
