<svg width="12" height="12" viewBox="0 0 12 12" fill="none" xmlns="http://www.w3.org/2000/svg">
<path d="M7.53001 2.22001C7.67046 2.36064 7.74935 2.55126 7.74935 2.75001C7.74935 2.94876 7.67046 3.13939 7.53001 3.28001L4.81001 6.00001L7.53001 8.72001C7.66249 8.86219 7.73461 9.05023 7.73119 9.24453C7.72776 9.43883 7.64905 9.62422 7.51163 9.76163C7.37422 9.89905 7.18884 9.97776 6.99453 9.98119C6.80023 9.98462 6.61219 9.91249 6.47001 9.78001L3.22001 6.53001C3.07956 6.38939 3.00067 6.19876 3.00067 6.00001C3.00067 5.80126 3.07956 5.61064 3.22001 5.47001L6.47001 2.22001C6.61064 2.07956 6.80126 2.00067 7.00001 2.00067C7.19876 2.00067 7.38939 2.07956 7.53001 2.22001Z" fill="currentColor"/>
</svg>
