<svg width="16" height="16" viewBox="0 0 16 16" fill="none" xmlns="http://www.w3.org/2000/svg">
<path fill-rule="evenodd" clip-rule="evenodd" d="M6.57133 0.166687C5.101 0.166687 3.997 0.231687 3.219 0.30502C2.03733 0.416687 1.199 1.37235 1.13533 2.51235C1.071 3.65335 1 5.48302 1 8.00002C1 10.5167 1.07067 12.3464 1.135 13.4877C1.199 14.6277 2.037 15.5834 3.21867 15.695C3.99667 15.7684 5.10067 15.8334 6.571 15.8334C8.03167 15.8334 9.13033 15.7694 9.90767 15.6967C11.0997 15.5847 11.9403 14.616 12.0043 13.471C12.04 12.8267 12.0783 11.9777 12.1057 10.9494C12.1103 10.7726 12.0445 10.6012 11.9228 10.4729C11.8011 10.3447 11.6334 10.27 11.4567 10.2654C11.2799 10.2607 11.1085 10.3265 10.9803 10.4482C10.852 10.5699 10.7773 10.7376 10.7727 10.9144C10.7515 11.7424 10.7181 12.57 10.6727 13.397C10.6427 13.9337 10.2683 14.3237 9.78333 14.369C9.05 14.4377 7.99267 14.5 6.571 14.5C5.14 14.5 4.07767 14.4367 3.34433 14.3674C2.86333 14.322 2.49567 13.9404 2.466 13.413C2.40333 12.2964 2.33333 10.492 2.33333 8.00002C2.33333 5.50802 2.40333 3.70369 2.466 2.58702C2.496 2.05969 2.86333 1.67802 3.344 1.63269C4.078 1.56335 5.14 1.50002 6.571 1.50002C7.99267 1.50002 9.05 1.56235 9.78333 1.63102C10.2683 1.67669 10.6427 2.06602 10.6727 2.60302C10.708 3.23535 10.746 4.07169 10.7727 5.08569C10.7773 5.26245 10.852 5.43014 10.9803 5.55185C11.1085 5.67356 11.2799 5.73933 11.4567 5.73469C11.6334 5.73005 11.8011 5.65537 11.9228 5.5271C12.0445 5.39882 12.1103 5.22745 12.1057 5.05069C12.0841 4.20968 12.0502 3.36904 12.004 2.52902C11.9407 1.38402 11.1 0.415354 9.90767 0.303354C9.13133 0.230687 8.032 0.166687 6.57133 0.166687ZM8.09533 4.15335C8.443 4.31202 8.67633 4.65535 8.70367 5.06469C8.724 5.37035 8.74533 5.72969 8.76367 6.12135L13.686 6.33169C14.282 6.35735 14.886 6.76369 14.968 7.46002C15.0098 7.81892 15.0098 8.18146 14.968 8.54035C14.8857 9.23702 14.282 9.64302 13.686 9.66869L8.76367 9.87869C8.7472 10.231 8.7272 10.5831 8.70367 10.935C8.67633 11.3444 8.443 11.6877 8.09533 11.8464C7.74267 12.0074 7.32433 11.9534 7.00033 11.6794C6.67167 11.401 6.24367 11.0157 5.707 10.489C4.81233 9.61102 4.36033 8.97902 4.13467 8.59169C4.02902 8.41229 3.97331 8.20788 3.97331 7.99969C3.97331 7.79149 4.02902 7.58709 4.13467 7.40769C4.36 7.02035 4.81233 6.38835 5.707 5.51069C6.24367 4.98402 6.67133 4.59869 7.00033 4.32069C7.32433 4.04635 7.74267 3.99235 8.09533 4.15335Z" fill="currentColor"/>
</svg>
